<svg xmlns="http://www.w3.org/2000/svg" xmlns:xlink="http://www.w3.org/1999/xlink" viewBox="0 0 1069 479"><defs><style>.cls-1{fill:#31363b;stroke:#000;}.cls-1,.cls-14,.cls-15,.cls-27{stroke-miterlimit:10;}.cls-15,.cls-2{fill:#6c63ff;}.cls-2,.cls-5,.cls-7{opacity:0.1;}.cls-2,.cls-3,.cls-5,.cls-7{isolation:isolate;}.cls-3{fill:#e6e6ef;opacity:0.41;}.cls-4,.cls-5{fill:#2ecc71;}.cls-6{fill:#d4dfec;}.cls-8{fill:#a0616a;}.cls-16,.cls-9{fill:#3daee9;}.cls-10{fill:#2f2e41;}.cls-11{fill:#f67400;}.cls-12,.cls-14{fill:#3f3d56;}.cls-13{fill:#d0cde1;}.cls-14,.cls-15,.cls-27{stroke:#fff;}.cls-16{opacity:0.29;}.cls-17{fill:#fd8369;}.cls-18,.cls-20,.cls-22{fill:none;stroke-linecap:round;stroke-linejoin:round;}.cls-18{stroke:#fd8369;stroke-width:2px;}.cls-19{fill:#ffd98e;}.cls-20{stroke:#ffd98e;}.cls-20,.cls-22{stroke-width:3px;}.cls-21{fill:#01cd9a;}.cls-22{stroke:#6bd5e1;}.cls-23{fill:#e0e0e0;}.cls-24{fill:url(#linear-gradient);}.cls-25{fill:#b6b9d3;}.cls-26,.cls-27{fill:#fff;}</style><linearGradient id="linear-gradient" x1="284.54" y1="347.81" x2="284.54" y2="409.3" gradientTransform="matrix(1, 0, 0, -1, -9.94, 582.29)" gradientUnits="userSpaceOnUse"><stop offset="0" stop-color="gray" stop-opacity="0.25"/><stop offset="0.54" stop-color="gray" stop-opacity="0.12"/><stop offset="1" stop-color="gray" stop-opacity="0.1"/></linearGradient></defs><title>command</title><g id="Layer_1" data-name="Layer 1"><rect class="cls-1" x="0.5" y="0.5" width="1068" height="422"/></g><g id="Layer_2" data-name="Layer 2"><path class="cls-2" d="M556.87,98.24H528.48a211.12,211.12,0,0,1,15.11-20.52c4.21-5.11,8.65-10.1,13.28-14.9Z" transform="translate(0.5 0.5)"/><path class="cls-2" d="M556.87,100.39v73.23H505.25a4.62,4.62,0,0,1,.06-.64c0-.56.09-1.15.14-1.73s.12-1.35.18-2,.13-1.47.21-2.2.15-1.47.24-2.22.16-1.46.25-2.18.18-1.47.27-2.19l.24-1.81c.12-.85.24-1.7.37-2.55a2.32,2.32,0,0,1,.06-.38,172.19,172.19,0,0,1,3.8-18.38,136.53,136.53,0,0,1,6.4-18.63,139.49,139.49,0,0,1,9.63-18.31Z" transform="translate(0.5 0.5)"/><path class="cls-2" d="M569.24,175.77v69.65H679.81V175.77Zm0,71.8V307.4c.63.13,1.26.26,1.88.36.85.16,1.69.31,2.54.43a4.61,4.61,0,0,1,.5.07l1,.15c.85.11,1.69.21,2.56.28l1.22.11,1,.07h0l1.6.09a8,8,0,0,1,1,0h3.62c.44,0,.88,0,1.31,0h0a6.85,6.85,0,0,0,.91,0h.26a6.35,6.35,0,0,0,.76,0h.17l1.69-.13,1.69-.18,1.16-.14a101.23,101.23,0,0,0,14-2.94c10.32-2.83,20.39-6.81,30.72-9.71,13.41-3.79,28.14-5.62,41-1.06V247.57ZM679.81,98.24V5.53a143.49,143.49,0,0,0-35.93,4.16c-28,6.94-53.14,22-74.65,41.23V98.24h5.55v2.15h-5.55v73.23H679.81V100.39H597.6V98.24ZM821.88,66.92a46.16,46.16,0,0,1-20-5.75c-11.91-6.39-21.44-16.26-32.06-24.59C747.69,19.23,720.29,8.75,692.2,6.16V98.24H850l.39-.41Zm14.38-2.54L851.51,80.9V60.06c-5.12.62-9.59,2.12-15.24,4.32Zm15.25,257.83V247.57H819c-.08-.32-.17-.64-.27-1l.27,1H692.2v54c1.2.89,2.39,1.82,3.57,2.75h0q1.9,1.54,3.79,3.12l1.27,1c.6.5,1.22,1,1.83,1.48q1.85,1.47,3.71,2.9c.62.49,1.25,1,1.88,1.43a256.18,256.18,0,0,0,31.44,20.3q3.69,2,7.45,3.92c1.66.85,3.34,1.68,5,2.49q3.8,1.83,7.65,3.54h0a283.8,283.8,0,0,0,74.5,21.41q8.57,1.24,17.2,2V322.21h0ZM692.2,100.39v73.23H851.52V100.39Zm0,75.38v69.65H851.52V175.77ZM863.88,60v23.3l19.46-21.08Q873.68,60.62,863.88,60Zm0,115.81v69.65h155V175.77Zm154.42,152,.56-80.18h-155V368.7a285,285,0,0,0,30-.35H894c4.76-.3,9.49-.73,14.22-1.29h.11a264.5,264.5,0,0,0,73-19.24m67.35-160.56c-.58-1.35-1.19-2.7-1.81-4-1.12-2.49-2.37-5-3.62-7.41h-12.09v69.6h30.56c0-19.7-5.08-39.87-13-58.21Zm-17.52,60.36v68.92a98.85,98.85,0,0,0,21.12-28.11,95.85,95.85,0,0,0,9.42-40.86Zm0-92.09v18.14h11a197.58,197.58,0,0,0-11-18.19ZM926.12,73.63c-.8-.31-1.61-.62-2.42-.91a222.84,222.84,0,0,0-26.18-7.78L867.74,97.17h0l-.56.62.38.41h106A227.87,227.87,0,0,0,926.12,73.63Zm50.53,26.76H866.06l-2.18,2v71.26h155V139.09a219.38,219.38,0,0,0-42.18-38.7Z" transform="translate(0.5 0.5)"/><path class="cls-2" d="M556.87,137.33v36.29H505.25a4.62,4.62,0,0,1,.06-.64c0-.56.09-1.15.14-1.73s.12-1.35.18-2,.13-1.47.21-2.2.15-1.47.24-2.22.16-1.46.25-2.18.18-1.47.27-2.19l.24-1.81c.12-.85.24-1.7.37-2.55a2.32,2.32,0,0,1,.06-.38,172.19,172.19,0,0,1,3.8-18.38Z" transform="translate(0.5 0.5)"/><path class="cls-2" d="M505.11,175.77h51.76v69.65h-48c-.12.71-.24,1.43-.38,2.15h48.36v56.15l-.23-.09c-1.38-.56-2.73-1.11-4.07-1.7l-.88-.39q-2.06-1-4.07-2c-.47-.24-.94-.5-1.41-.76a84.68,84.68,0,0,1-20.37-15.65l-.5-.52c-.82-.88-1.64-1.78-2.42-2.69l-.87-1c-.93-1.11-1.83-2.27-2.69-3.44-.13-.17-.26-.35-.39-.51a73.88,73.88,0,0,1-8.77-15.66c-.07-.16-.14-.34-.2-.51-.71-1.76-1.35-3.55-1.9-5.37-.23-.76-.46-1.53-.65-2.3-.08-.23-.13-.46-.2-.69-2.87-11.15-3.19-22.74-3.19-34.27v-4q0-7,.13-14c0-1.21.05-2.42.08-3.64q.11-4.63.3-9.27l.12-2.57c0-.49.05-1,.08-1.48C504.88,179.32,505,177.55,505.11,175.77Z" transform="translate(0.5 0.5)"/><polygon class="cls-2" points="608.67 111.38 608.67 174.12 569.74 174.12 569.74 111.38 575.29 111.38 575.29 90.13 598.08 90.13 598.08 111.38 608.67 111.38"/><path class="cls-2" d="M569.24,247.57h38.93v57.9a101.06,101.06,0,0,1-14,2.94l-1.16.14-1.69.17-1.69.14h-.18l-.74,0h-.26c-.31,0-.62,0-.92,0h0c-.43,0-.87,0-1.31,0h-3.62a8.62,8.62,0,0,1-1,0c-.53,0-1.06-.05-1.6-.09h0l-1-.07-1.22-.11c-.86-.08-1.69-.18-2.56-.29l-1-.14a4,4,0,0,1-.5-.07c-.85-.13-1.69-.27-2.54-.43-.63-.11-1.25-.24-1.88-.36Z" transform="translate(0.5 0.5)"/><rect class="cls-2" x="819.92" y="103.97" width="32.1" height="70.15"/><polygon class="cls-2" points="852.02 176.27 852.02 245.91 692.69 245.91 692.69 215.88 777.56 215.88 777.56 233.6 819.92 233.6 819.92 176.27 852.02 176.27"/><path class="cls-2" d="M852,322.24h-.51v45.68q-8.62-.72-17.19-2a283.89,283.89,0,0,1-74.52-21.44q-10.27-4.57-20.12-10a257.29,257.29,0,0,1-31.44-20.29q-3.76-2.85-7.42-5.81l-5.07-4.16c-1.17-.93-2.36-1.86-3.57-2.77v-54H819l-.27-1c.1.33.19.65.27,1h32.52V322.2Z" transform="translate(0.5 0.5)"/><path class="cls-2" d="M935.23,98.24h-20.9V91.8h9.37V72.72c.81.29,1.62.6,2.42.91V91.8h9.11Z" transform="translate(0.5 0.5)"/><path class="cls-2" d="M985.64,173.62H863.88V103.47h5.4v51.86H894V124.64h20.38V100.39h20.9v24.25h20.38v30.69h30Z" transform="translate(0.5 0.5)"/><path class="cls-2" d="M863.88,175.77v69.65H985.64V175.77ZM1018.67,327.4l.17-55.12H985.62V247.57H863.88V368.7a285,285,0,0,0,30-.35H894c4.76-.3,9.49-.73,14.22-1.29h.11a264.5,264.5,0,0,0,73-19.24" transform="translate(0.5 0.5)"/><path class="cls-2" d="M1033.36,247.57h28.4a95.85,95.85,0,0,1-9.42,40.86,99,99,0,0,1-21.12,28.11V272.25h2.14Z" transform="translate(0.5 0.5)"/><path class="cls-2" d="M1061.78,245.42h-28.42V187.21h15.38C1056.69,205.55,1061.75,225.72,1061.78,245.42Z" transform="translate(0.5 0.5)"/><rect class="cls-2" x="834.83" y="123.47" width="17.2" height="21.99"/><rect class="cls-2" x="834.83" y="176.27" width="17.2" height="14.78"/><rect class="cls-2" x="834.83" y="214.65" width="17.2" height="21.99"/><rect class="cls-2" x="834.83" y="260.24" width="17.2" height="21.99"/><path class="cls-2" d="M851.52,350.91v17q-8.62-.72-17.19-2v-15Z" transform="translate(0.5 0.5)"/><rect class="cls-2" x="692.69" y="274.55" width="73.7" height="9.96"/><path class="cls-2" d="M765.89,304.31v10H708.25q-3.76-2.83-7.42-5.81c-1.69-1.38-3.38-2.78-5.07-4.15Z" transform="translate(0.5 0.5)"/><path class="cls-2" d="M765.89,334.56v10h-6.08q-10.27-4.56-20.12-10Z" transform="translate(0.5 0.5)"/><rect class="cls-2" x="894.33" y="183.03" width="14.51" height="14.31"/><rect class="cls-2" x="580.2" y="116.32" width="14.51" height="14.31"/><rect class="cls-2" x="580.2" y="149.57" width="14.51" height="14.31"/><rect class="cls-2" x="580.2" y="182.82" width="14.51" height="14.31"/><rect class="cls-2" x="580.2" y="282.59" width="14.51" height="14.31"/><rect class="cls-2" x="894.33" y="218.34" width="14.51" height="14.31"/><rect class="cls-2" x="894.33" y="324.28" width="14.51" height="14.31"/><rect class="cls-2" x="949.72" y="324.28" width="14.51" height="14.31"/><path class="cls-2" d="M507.23,155.7v8.19h49.64V155.7Zm4.94,7.68H508.1v-7.12h4.07Zm4.94,0H513v-7.12h4.07Zm4.94,0H518v-7.12h4.07Zm4.94,0h-4.07v-7.12H527Zm4.94,0h-4.07v-7.12h4.07Zm4.94,0H532.8v-7.12h4.07Zm5,0h-4.07v-7.12h4.07Zm4.94,0h-4.08v-7.12h4.08Zm4.93,0h-4.07v-7.12h4.07Zm4.94,0h-4.08v-7.12h4.07Z" transform="translate(0.5 0.5)"/><ellipse class="cls-3" cx="239.7" cy="389.48" rx="239.2" ry="26.55"/><path class="cls-4" d="M77.73,327a8.4,8.4,0,0,0-1.15,2.15c-.08.19-.14.4-.21.61a2.12,2.12,0,0,0-.4-.14,5.59,5.59,0,0,0-1.82-.15c0-.24,0-.5,0-.74.07-2.64-.24-6.31-2.79-4.76s-.71,4,.87,5.61l.41.4c-1.44,1-1.71,3.37-2,5.83S68.37,341,67,342.48l-.39.42a5.23,5.23,0,0,0-4.06-1l-.19-.68c-1.14-4.05-3.5-11.06-6.51-12.6.13-.15.26-.31.4-.5,1.28-1.65,2.71-4.1.59-4.73s-2.31,2.13-2.2,4.19a4.44,4.44,0,0,0,.06.74,3.07,3.07,0,0,0-2.22,1.07l-.33-.39c-1.72-2-4.89-5.19-5.84-2.78-.9,2.24,1.89,5.15,3.85,6.84l.12.11c-1.32,5.26,4.42,9.55,7.51,11.43l.4.24c-4.26,4.95-6.89,14.25-6.89,14.25l11.93,2.1s7.91-6.74,6.9-13.07h.08c7.91-1.56,9.71-9.88,8.48-14.82l.14-.06a8.92,8.92,0,0,0,3.66-2.73C84.65,327.43,80,324,77.73,327Z" transform="translate(0.5 0.5)"/><path class="cls-5" d="M77.73,327a8.4,8.4,0,0,0-1.15,2.15c-.08.19-.14.4-.21.61a2.12,2.12,0,0,0-.4-.14,5.59,5.59,0,0,0-1.82-.15c0-.24,0-.5,0-.74.07-2.64-.24-6.31-2.79-4.76s-.71,4,.87,5.61l.41.4c-1.44,1-1.71,3.37-2,5.83S68.37,341,67,342.48l-.39.42a5.23,5.23,0,0,0-4.06-1l-.19-.68c-1.14-4.05-3.5-11.06-6.51-12.6.13-.15.26-.31.4-.5,1.28-1.65,2.71-4.1.59-4.73s-2.31,2.13-2.2,4.19a4.44,4.44,0,0,0,.06.74,3.07,3.07,0,0,0-2.22,1.07l-.33-.39c-1.72-2-4.89-5.19-5.84-2.78-.9,2.24,1.89,5.15,3.85,6.84l.12.11c-1.32,5.26,4.42,9.55,7.51,11.43l.4.24c-4.26,4.95-6.89,14.25-6.89,14.25l11.93,2.1s7.91-6.74,6.9-13.07h.08c7.91-1.56,9.71-9.88,8.48-14.82l.14-.06a8.92,8.92,0,0,0,3.66-2.73C84.65,327.43,80,324,77.73,327Z" transform="translate(0.5 0.5)"/><path class="cls-4" d="M54,330.4l-1.4,4s-.77-.54-1.75-1.39c-2-1.69-4.74-4.6-3.85-6.85,1-2.41,4.12.77,5.85,2.79C53.52,329.78,54,330.4,54,330.4Z" transform="translate(0.5 0.5)"/><path class="cls-4" d="M56.93,328.09a20.71,20.71,0,0,1-1.36,1.59,17,17,0,0,1-.25-2.13c-.12-2.05.1-4.8,2.19-4.18S58.2,326.43,56.93,328.09Z" transform="translate(0.5 0.5)"/><path class="cls-4" d="M74.92,328.73c0,1.33-.18,2.39-.18,2.39A18.08,18.08,0,0,1,73,329.58c-1.57-1.61-3.32-4.11-.87-5.61S75,326.09,74.92,328.73Z" transform="translate(0.5 0.5)"/><path class="cls-4" d="M83.16,330.47a9.95,9.95,0,0,1-4.89,3.17l-1.65-2.28a15.66,15.66,0,0,1,.68-2.21A8.73,8.73,0,0,1,78.45,327C80.74,324,85.38,327.43,83.16,330.47Z" transform="translate(0.5 0.5)"/><path class="cls-5" d="M52.83,329c.69.8,1.15,1.42,1.15,1.42l-1.4,4s-.77-.54-1.75-1.39a7.87,7.87,0,0,1,1.57-3.54A6.16,6.16,0,0,1,52.83,329Z" transform="translate(0.5 0.5)"/><path class="cls-5" d="M56.93,328.09a20.71,20.71,0,0,1-1.36,1.59,17,17,0,0,1-.25-2.13A3,3,0,0,1,56.93,328.09Z" transform="translate(0.5 0.5)"/><path class="cls-4" d="M63.78,344.1l-3.47,1.5c-.63-.32-1.24-.66-1.84-1-3.65-2.22-11-7.79-6.09-14.36s9,5.21,10.65,11C63.52,342.91,63.78,344.1,63.78,344.1Z" transform="translate(0.5 0.5)"/><path class="cls-5" d="M73,329.58a3,3,0,0,1,1.92-.85c0,1.33-.18,2.39-.18,2.39A18.08,18.08,0,0,1,73,329.58Z" transform="translate(0.5 0.5)"/><path class="cls-5" d="M79.5,333.2a9,9,0,0,1-1.23.44l-1.65-2.28a15.66,15.66,0,0,1,.68-2.21C78.37,329.76,79.16,331.28,79.5,333.2Z" transform="translate(0.5 0.5)"/><path class="cls-4" d="M70.89,348.08l-.59.11c-11.63,1.74-3.83-4.45-3.83-4.45s.51-.51,1.23-1.26c1.4-1.53,3.52-4.2,3.76-6.68.36-3.71.79-7.2,5.24-6.18S81.9,345.91,70.89,348.08Z" transform="translate(0.5 0.5)"/><rect class="cls-6" x="76.41" y="369.3" width="33.39" height="8.66"/><rect class="cls-6" x="45.41" y="358.42" width="29.04" height="20.13"/><rect class="cls-7" x="76.41" y="369.3" width="33.39" height="8.66"/><rect class="cls-7" x="45.41" y="358.42" width="29.04" height="20.13"/><rect class="cls-6" x="78.6" y="369.3" width="33.39" height="8.66"/><path class="cls-5" d="M63,341.19c.51,1.72.75,2.91.75,2.91l-3.47,1.5c-.63-.32-1.24-.66-1.84-1A8.93,8.93,0,0,1,63,341.19Z" transform="translate(0.5 0.5)"/><path class="cls-5" d="M70.89,348.08l-.59.11c-11.63,1.74-3.83-4.45-3.83-4.45s.51-.51,1.23-1.26A7.6,7.6,0,0,1,70.89,348.08Z" transform="translate(0.5 0.5)"/><path class="cls-4" d="M52,359.06s6.52-23,15.65-15.92-3.71,18-3.71,18Z" transform="translate(0.5 0.5)"/><ellipse class="cls-5" cx="55.76" cy="334.33" rx="0.73" ry="0.72"/><ellipse class="cls-5" cx="55.7" cy="337.69" rx="0.73" ry="0.72"/><ellipse class="cls-5" cx="76.89" cy="334.99" rx="0.73" ry="0.72"/><ellipse class="cls-7" cx="59.84" cy="352.23" rx="0.73" ry="0.72"/><ellipse class="cls-5" cx="75.37" cy="340.58" rx="0.73" ry="0.72"/><ellipse class="cls-5" cx="67.82" cy="348.03" rx="0.73" ry="0.72"/><ellipse class="cls-5" cx="58.26" cy="335.77" rx="0.73" ry="0.72"/><ellipse class="cls-5" cx="74.88" cy="337.15" rx="0.73" ry="0.72"/><ellipse class="cls-5" cx="72.38" cy="342.74" rx="0.73" ry="0.72"/><ellipse class="cls-5" cx="64.71" cy="351.69" rx="0.73" ry="0.72"/><ellipse class="cls-5" cx="63.13" cy="348.15" rx="0.73" ry="0.72"/><ellipse class="cls-5" cx="59.35" cy="340.16" rx="0.73" ry="0.72"/><rect class="cls-7" x="78.6" y="369.3" width="33.39" height="3.17"/><rect class="cls-6" x="46.87" y="358.42" width="29.04" height="20.13"/><ellipse class="cls-7" cx="65.68" cy="354.93" rx="0.73" ry="0.72"/><ellipse class="cls-7" cx="61.3" cy="355.84" rx="0.73" ry="0.72"/><path class="cls-8" d="M836.36,259c-2.8,1.09-51.32-7.45-38.56-28.56s47.12,9.09,47.12,9.09S839.17,257.93,836.36,259Z" transform="translate(0.5 0.5)"/><path class="cls-9" d="M872.5,277.23c-1.09-2.81-44.55-14.94-44.55-14.94l10.89-30.06s9.19,2.88,10.59,2.33,7.79,3.43,14.73,8.8S911.74,262,911.74,262,873.59,280,872.5,277.23Z" transform="translate(0.5 0.5)"/><path class="cls-10" d="M893.66,415.94,899,382.05l3.37-21.25,33.09-12,8,12.41,25.05,38.73,1.67,15.9,1.8,17a149,149,0,0,1-81.61,3.48Z" transform="translate(0.5 0.5)"/><path class="cls-11" d="M875.73,412.85c2.51-9,4.11-14.45,4.11-14.45L899,382.05l21.42-18.24,23.07-2.63,14.24-1.63,9.8-1.12,1.62-.18,3.91-.45,19.55,40.6s-.58,5.17-2.41,13.53c-.46,2.13-1,4.46-1.65,7-.56,2.17-1.18,4.48-1.88,6.9-.14.48-.28,1-.43,1.44a211.7,211.7,0,0,1-7.54,21.14,114.41,114.41,0,0,1-.54-17.75c-2,.77-4.08,1.51-6.15,2.2a149,149,0,0,1-81.61,3.48c-1.8-.43-3.57-.89-5.33-1.38-2.54-.71-5-1.49-7.52-2.34-2.22-.75-4.43-1.56-6.6-2.43C872.76,423.56,874.37,417.69,875.73,412.85Z" transform="translate(0.5 0.5)"/><circle class="cls-8" cx="906.46" cy="117" r="34.59"/><path class="cls-8" d="M896.21,139.63c11.27,10.61,5.29,52.54,5.29,52.54L952.32,157l-18.1-38.73S884.94,129,896.21,139.63Z" transform="translate(0.5 0.5)"/><path class="cls-9" d="M876.83,270.57s-10.53,132.34-9,138.36,46.62,9,58.65,10.53,9-39.11,9-39.11,12,30.08,24.06,34.59,45.12-7.52,45.12-7.52l-7.52-192.5s1.5-3,10.52-6-1.5-3-1.5-7.52,0-6,1.5-13.53S958,145.74,938.49,145.74s-43.61,49.63-43.61,49.63Z" transform="translate(0.5 0.5)"/><path class="cls-8" d="M978.19,430.63c0-1.48.13-2.86.22-4.11.3-4.31.69-7.06.69-7.06l9.48-.56,14.88-.88,1.21-.07s.64,2.36,1.52,6.15c3.74,16.27,11.7,58.89-9,54-12.21-2.87-16.88-16.38-18.42-29.71v0A114.41,114.41,0,0,1,978.19,430.63Z" transform="translate(0.5 0.5)"/><path class="cls-9" d="M926.46,210.41l39.1,84.22L973.08,427l34.59-3s0-21.06,6-33.09-3-66.17,3-75.2,0-21.05,0-21.05L973.08,183.34C929.47,175.82,926.46,210.41,926.46,210.41Z" transform="translate(0.5 0.5)"/><path class="cls-7" d="M997.9,214.17c-9-27.07-36.1-34.59-36.1-34.59Z" transform="translate(0.5 0.5)"/><path d="M941.14,145.6c6.06-.37,10.2-16.24,11.57-20.88a47.1,47.1,0,0,0-.22-27.3c-3.41-10.84-10.67-20.09-18.86-28-3.32-3.2-6.92-6.27-11.22-8-5.23-2.05-11.09-1.88-16.61-.8A53.8,53.8,0,0,0,883,71.07c-3.85,3-7.8,6.75-12.69,6.7-1,0-2.06-.13-2.77.52-1.71,1.56,0,6.06-2.27,5.81a8.37,8.37,0,0,0-7.9-2,13.38,13.38,0,0,1-1.18,7.19l-2.61-2.73c-.39,5.42.43,11.09,3.33,15.7s8.11,8,13.54,7.66c3.52-.18,6.79-1.8,10.25-2.49s7.64-.12,9.48,2.89a14.44,14.44,0,0,1,1.39,4.5c2.64,11.77,15.08,20.45,27,18.86,3.34-.44,6.63-1.58,10-1.38C938.1,132.85,933.53,146.06,941.14,145.6Z" transform="translate(0.5 0.5)"/><polygon class="cls-7" points="973.42 416.03 962.09 295.36 926.67 243.41 973.42 416.03"/><ellipse class="cls-12" cx="785.85" cy="211.58" rx="0.99" ry="2.64" transform="translate(23.75 496.27) rotate(-35.51)"/><path class="cls-13" d="M832.28,268.12l-45.66-64h0a4.63,4.63,0,0,1,6.45,1.08l40.29,56.46h0a4.63,4.63,0,0,1-1.08,6.45Z" transform="translate(0.5 0.5)"/><path class="cls-10" d="M830.63,273.77h0l-49.88-69.91h0l2.81-2h0a3.14,3.14,0,0,1,4.4.73l45.87,64.29a3.74,3.74,0,0,1-.87,5.22l-2.33,1.67Z" transform="translate(0.5 0.5)"/><rect class="cls-13" x="789.68" y="208.98" width="1.32" height="5.28" transform="translate(24.56 498.89) rotate(-35.51)"/><rect class="cls-13" x="793.9" y="214.89" width="1.32" height="5.28" transform="translate(21.91 502.44) rotate(-35.51)"/><polygon class="cls-2" points="608.67 108.96 608.67 243.76 569.74 243.76 569.74 108.96 575.29 108.96 575.29 63.32 598.08 63.32 598.08 108.96 608.67 108.96"/><path class="cls-2" d="M506.69,173.74h51.77v69.65h-48c-.13.71-.25,1.43-.38,2.15h48.36v56.15l-.24-.09c-1.37-.56-2.73-1.11-4.07-1.7l-.87-.39q-2.06-1-4.07-2c-.47-.24-1-.5-1.42-.76a84.82,84.82,0,0,1-20.36-15.65c-.18-.17-.34-.35-.5-.52-.83-.88-1.64-1.78-2.43-2.69l-.87-1c-.93-1.11-1.82-2.27-2.69-3.44-.13-.17-.25-.35-.38-.51a73.92,73.92,0,0,1-8.78-15.66c-.07-.16-.14-.34-.2-.51q-1.06-2.64-1.9-5.37c-.23-.76-.46-1.53-.65-2.3-.07-.23-.13-.46-.19-.69-2.87-11.15-3.2-22.74-3.2-34.27v-4q0-7,.14-14c0-1.21.05-2.42.08-3.64.07-3.09.16-6.18.3-9.27,0-.86.07-1.72.12-2.57,0-.49,0-1,.08-1.48C506.46,177.29,506.57,175.52,506.69,173.74Z" transform="translate(0.5 0.5)"/><rect class="cls-14" x="501.89" y="60.94" width="274.08" height="139.38"/><rect class="cls-15" x="551.61" y="107.87" width="27.76" height="2.31"/><rect class="cls-15" x="588.62" y="107.87" width="27.76" height="2.31"/><rect class="cls-15" x="642.4" y="129.24" width="27.76" height="2.31"/><rect class="cls-15" x="679.98" y="129.24" width="27.76" height="2.31"/><rect class="cls-15" x="626.21" y="107.87" width="81.54" height="2.31"/><rect class="cls-15" x="551.61" y="129.24" width="81.54" height="2.31"/><rect class="cls-15" x="551.61" y="150.61" width="81.54" height="2.31"/><rect class="cls-15" x="651.07" y="150.61" width="56.67" height="2.31"/><polygon class="cls-15" points="543.81 117.63 534.04 107.88 543.81 98.12 545.76 100.07 537.95 107.88 545.76 115.68 543.81 117.63"/><polygon class="cls-15" points="734.05 162.68 732.09 160.73 739.91 152.92 732.09 145.12 734.05 143.17 743.81 152.92 734.05 162.68"/><rect class="cls-15" x="711.74" y="150.75" width="19.92" height="2.76" transform="translate(367.07 799.07) rotate(-73.12)"/></g><g id="Layer_3" data-name="Layer 3"><path class="cls-16" d="M384.68,341.11c-22.38,24-81.87,13.19-134.62,2.68S151.39,323.18,123.79,292s-36.71-83.42-23.05-130.61S150.78,72,200.84,48s113.69-29.73,145.44-1.4,31.65,90.52,38.93,151.06S407.14,317.06,384.68,341.11Z" transform="translate(0.5 0.5)"/><rect class="cls-17" x="117.12" y="232.6" width="242.13" height="6.04"/><line class="cls-18" x1="137.39" y1="394.27" x2="137.39" y2="238.45"/><line class="cls-18" x1="178.12" y1="394.27" x2="178.12" y2="238.45"/><line class="cls-18" x1="137.39" y1="255.17" x2="178.12" y2="255.17"/><line class="cls-18" x1="137.39" y1="383.73" x2="178.12" y2="383.73"/><line class="cls-18" x1="298.26" y1="394.27" x2="298.26" y2="238.45"/><line class="cls-18" x1="338.99" y1="394.27" x2="338.99" y2="238.45"/><line class="cls-18" x1="298.26" y1="255.17" x2="338.99" y2="255.17"/><line class="cls-18" x1="298.26" y1="383.73" x2="338.99" y2="383.73"/><rect class="cls-19" x="147.98" y="224.85" width="44.55" height="7.75"/><path class="cls-20" d="M221.36,131v-4.19a25.22,25.22,0,0,0-25.15-25.15h-1.3a25.23,25.23,0,0,0-25.15,25.15v97.52" transform="translate(0.5 0.5)"/><path class="cls-21" d="M234.66,154.69V144.53a13.35,13.35,0,0,0-13.32-13.32h0a13.35,13.35,0,0,0-13.29,13.32v10.16Z" transform="translate(0.5 0.5)"/><path class="cls-19" d="M225.42,154.75a4.06,4.06,0,0,1-8.11,0" transform="translate(0.5 0.5)"/><circle class="cls-19" cx="305.42" cy="106.45" r="28.64"/><line class="cls-22" x1="305.42" y1="106.45" x2="305.42" y2="85.98"/><line class="cls-22" x1="291.55" y1="106.45" x2="304.78" y2="106.45"/><rect class="cls-17" x="337.72" y="203.82" width="102.38" height="4.27"/><rect class="cls-23" x="383.16" y="150.61" width="10.24" height="53.21"/><rect class="cls-19" x="374.25" y="157.25" width="8.9" height="46.58"/><rect class="cls-23" x="410.42" y="157.24" width="8.94" height="46.77" transform="matrix(0.84, -0.55, 0.55, 0.84, -30.66, 257.28)"/><rect class="cls-21" x="393.39" y="165.17" width="5.52" height="38.65"/><rect class="cls-17" x="350.77" y="208.09" width="5.34" height="5.34"/><rect class="cls-17" x="421.72" y="208.09" width="5.34" height="5.34"/></g><g id="Layer_4" data-name="Layer 4"><path class="cls-24" d="M330.63,227.39h-10.8a3.71,3.71,0,0,0,.37-1.6V176.61a3.61,3.61,0,0,0-3.61-3.61H233a3.61,3.61,0,0,0-3.61,3.61h0v49.18a3.72,3.72,0,0,0,.37,1.61H218.57a.94.94,0,0,0-.95.95h0v.77a5.35,5.35,0,0,0,5.35,5.35H326.23a5.35,5.35,0,0,0,5.35-5.35h0v-.77a1,1,0,0,0-.95-1Zm-66.55,3.06-.93-1h23l-1,1.06Z" transform="translate(0.5 0.5)"/><rect class="cls-25" x="230.9" y="174.19" width="88.77" height="55.13" rx="3.91"/><circle class="cls-26" cx="275.19" cy="178.3" r="0.75"/><path class="cls-25" d="M287.79,226.86l-2.91,3H264.33l-2.64-3H219.84a.93.93,0,0,0-.93.93v.76a5.23,5.23,0,0,0,5.23,5.22H325.06a5.23,5.23,0,0,0,5.23-5.22v-.76a.93.93,0,0,0-.93-.93Z" transform="translate(0.5 0.5)"/><rect class="cls-12" x="234.22" y="182.02" width="81.86" height="42.37"/><rect class="cls-27" x="249.07" y="196.29" width="8.29" height="0.7"/><rect class="cls-27" x="260.12" y="196.29" width="8.29" height="0.7"/><rect class="cls-27" x="276.18" y="202.78" width="8.29" height="0.7"/><rect class="cls-27" x="287.41" y="202.78" width="8.29" height="0.7"/><rect class="cls-27" x="271.35" y="196.29" width="24.35" height="0.7"/><rect class="cls-27" x="249.07" y="202.78" width="24.35" height="0.7"/><rect class="cls-27" x="249.07" y="209.28" width="24.35" height="0.7"/><rect class="cls-27" x="278.77" y="209.28" width="16.93" height="0.7"/><polygon class="cls-27" points="246.74 199.25 243.82 196.29 246.74 193.32 247.32 193.91 244.99 196.29 247.32 198.66 246.74 199.25"/><polygon class="cls-27" points="303.56 212.95 302.97 212.35 305.3 209.98 302.97 207.61 303.56 207.02 306.47 209.98 303.56 212.95"/><polygon class="cls-27" points="298.76 212.67 300.49 206.88 301.27 207.12 299.55 212.91 298.76 212.67"/></g></svg>