<?xml version="1.0" encoding="utf-8"?>
<!-- Generator: Adobe Illustrator 24.0.1, SVG Export Plug-In . SVG Version: 6.00 Build 0)  -->
<svg version="1.1" id="Layer_1" xmlns="http://www.w3.org/2000/svg" xmlns:xlink="http://www.w3.org/1999/xlink" x="0px" y="0px"
	 viewBox="0 0 60.2 72.1" style="enable-background:new 0 0 60.2 72.1;" xml:space="preserve">
<style type="text/css">
	.st0{fill:#3DAEE9;stroke:#3DAEE9;stroke-width:2;stroke-linecap:round;stroke-miterlimit:10;}
	.st1{fill:#B2BBBF;}
	.st2{fill:#CEC1BC;}
	.st3{fill:none;stroke:#3DAEE9;stroke-width:2;stroke-miterlimit:10;}
	.st4{fill:#D87A35;stroke:#E8883F;stroke-miterlimit:10;}
	.st5{fill:none;stroke:#E8883F;stroke-width:2;stroke-miterlimit:10;}
	.st6{fill:#3DAEE9;stroke:#E8883F;stroke-width:2;stroke-linecap:round;stroke-miterlimit:10;}
	.st7{fill:none;stroke:#3DAEE9;stroke-width:2;stroke-linecap:round;stroke-miterlimit:10;}
	.st8{fill:none;stroke:#FFFFFF;stroke-linecap:round;stroke-miterlimit:10;}
	.st9{opacity:0.3;fill:none;stroke:#FFFFFF;stroke-linecap:round;stroke-miterlimit:10;enable-background:new    ;}
	.st10{opacity:0.7;fill:none;stroke:#FFFFFF;stroke-linecap:round;stroke-miterlimit:10;enable-background:new    ;}
	.st11{fill:none;stroke:#FFFFFF;stroke-width:2;stroke-linecap:round;stroke-miterlimit:10;}
</style>
<title>Asset 23</title>
<g>
	<line class="st0" x1="30.3" y1="6.1" x2="30.3" y2="2.8"/>
	<line class="st0" x1="16.9" y1="6.4" x2="18.8" y2="8.8"/>
	<line class="st0" x1="43.7" y1="6.4" x2="41.8" y2="8.8"/>
	<path class="st1" d="M13.6,38.1c1.2,2.9,3.1,5.4,4.6,8.1s2.9,5.8,2.7,8.9h18.2c-0.1-3.1,1.1-6.1,2.7-8.9c1.6-2.7,3.4-5.3,4.6-8.1
		c5-11.9-2.7-27.1-16.4-26.9C16.3,11,8.6,26.1,13.6,38.1z"/>
	<path class="st2" d="M30.2,11v43.9h9.1c-0.1-3.1,1.1-6.1,2.7-8.9c1.6-2.7,3.4-5.3,4.6-8.1C51.7,26,44,10.8,30.2,11z"/>
	<path class="st3" d="M13.7,38.3c1.2,2.9,3.1,5.4,4.6,8.1c1.4,2.2,2.3,4.7,2.6,7.3c0.1,0.9,0.9,1.6,1.8,1.6h14.8
		c0.9,0,1.7-0.7,1.8-1.6c0.4-2.6,1.3-5.1,2.6-7.3c1.6-2.7,3.4-5.3,4.6-8.1c5-11.9-2.7-27.1-16.5-26.9C16.5,11.2,8.7,26.4,13.7,38.3z
		"/>
	<path class="st4" d="M23.4,63.1h13.1l0,0v0.3c0,3.6-2.9,6.5-6.5,6.5c0,0,0,0,0,0l0,0c-3.6,0-6.5-2.9-6.5-6.5l0,0V63.1
		C23.4,63.1,23.4,63.1,23.4,63.1z"/>
	<path class="st5" d="M23.6,63.3h13.1l0,0v0.3c0,3.6-2.9,6.5-6.5,6.5c0,0,0,0,0,0l0,0c-3.6,0-6.5-2.9-6.6-6.5c0,0,0,0,0,0V63.3
		L23.6,63.3z"/>
	<line class="st6" x1="16.8" y1="63.3" x2="43.1" y2="63.3"/>
	<line class="st6" x1="21.5" y1="59.5" x2="37.2" y2="59.5"/>
	<line class="st0" x1="48.8" y1="16.1" x2="52.3" y2="14"/>
	<line class="st0" x1="11.8" y1="16.1" x2="8.2" y2="14"/>
	<line class="st7" x1="30.2" y1="54.9" x2="30.2" y2="47.1"/>
	<polyline class="st7" points="33.6,42.2 32,44.6 30.3,46.9 28.6,44.6 26.9,42.2 	"/>
	<path class="st8" d="M41.4,37c-0.3,0.7-0.6,1.4-1,2.1"/>
	<path class="st9" d="M42.8,30.6c0,0.8-0.1,1.6-0.3,2.4"/>
	<path class="st8" d="M35.9,17c3.5,1.9,6.1,5.3,6.9,9.2"/>
	<path class="st10" d="M20.8,18.1c1.6-1.2,3.5-2.1,5.4-2.5c1.8-0.4,3.6-0.4,5.4-0.1"/>
	<path class="st11" d="M17.9,22.5c1-1.9,2.5-3.5,4.2-4.7"/>
	<path class="st11" d="M21.2,39.9c-4.4-3.7-6.1-9.7-4.3-15.1"/>
</g>
</svg>
