<svg xmlns="http://www.w3.org/2000/svg" viewBox="0 0 1068 427.95"><defs><style>.cls-1{fill:#31363b;}.cls-2{fill:#f2f2f2;}.cls-3{opacity:0.1;}.cls-14,.cls-3,.cls-5{isolation:isolate;}.cls-4{fill:#65617d;}.cls-5{opacity:0.2;}.cls-6{fill:#3daee9;}.cls-7{fill:#fbbebe;}.cls-8{fill:#f47750;}.cls-9{fill:#3f3d56;}.cls-10{fill:#fcfcfc;}.cls-11{fill:#da4453;stroke:#000;stroke-miterlimit:10;}.cls-12{fill:#57b894;}.cls-13{fill:#1d99f3;}.cls-14{fill:#6c63ff;opacity:0.3;}.cls-15{fill:#e6e6e6;}.cls-16{fill:#fdbc4b;}.cls-17{fill:#f67400;}</style></defs><title>files</title><g id="Layer_2" data-name="Layer 2"><rect class="cls-1" width="1068" height="422"/></g><g id="Layer_1" data-name="Layer 1"><path class="cls-2" d="M954.43,345.73c-1.11,1.75-2.21,3.47-3.32,5.18q-2.58,4-5.1,7.77c-.74,1.13-1.49,2.23-2.22,3.33-8.23,12.29-15.91,23.15-22.44,32.09-12.06,16.49-35.51,26.89-61.15,27.12l-145.44,1.37h-1.53l-12.47.11-10.66.1-32.71.31h-1.32l-16.65.16h-.51l-102.61,1-91.6.84-10.65.1-66.17.62h-.08l-42.92.4h-.46l-135.7,1.28-40.59.38c-3.46,0-6.92-.09-10.35-.36h0c-1.17-.1-2.34-.21-3.5-.34C115.34,425.07,98,418.31,85.06,408a138,138,0,0,1-38.78-48q-1.86-3.82-3.46-7.76C13.16,279.6,49,185.7,113.77,122.8q4.07-3.94,8.27-7.7l.07,0a255.79,255.79,0,0,1,66-43.4c42.17-18.86,88.91-24.23,134.92-8.52A394.45,394.45,0,0,0,433.56,84.3q5.34.24,10.65.35C525,86.38,600.67,65.07,689.55,51.25q5.31-.82,10.66-1.61C763.62,40.36,834,35.4,917.65,45.46a241.78,241.78,0,0,1,25.67,4.43q5.53,1.29,10.67,2.78c40,11.77,61.76,33.6,71.06,61q1.32,3.81,2.28,7.75C1043.84,187.26,995.93,280.8,954.43,345.73Z"/><path class="cls-3" d="M509,351.58a50.44,50.44,0,0,1-1.78,7.77l89.86-.14v-7.77Zm-75,44,10.66-.08,0-19.18L434,376ZM210.59,352v7.77L401,359.51v-7.77ZM1025.1,113.67l-71,.11-.1-61.1q-5.13-1.51-10.66-2.78l.09,63.9-243.15.37-.1-64.55q-5.36.78-10.66,1.61l.1,63-245.39.38-.05-29.93q-5.31-.1-10.65-.35l0,30.29L188.22,115l-.07-43.3a255.79,255.79,0,0,0-66,43.4H122v0q-4.22,3.78-8.27,7.7h8.29l.35,229.38-79.6.12c1.06,2.62,2.22,5.21,3.46,7.76l76.14-.12.1,65.39a110.19,110.19,0,0,0,11.7,1.93c1.16.13,2.33.24,3.5.34h0q5.16.41,10.35.36l40.59-.39-.1-67.74L434,359.45l.1,65.79,10.65-.1-.1-65.7L690,359.07l.1,63.81,10.66-.1-.1-63.73,243.11-.37V362c.73-1.1,1.48-2.2,2.22-3.33q2.52-3.81,5.1-7.77c1.11-1.7,2.21-3.42,3.32-5.18l-.34-224.18,73.29-.11Q1026.41,117.47,1025.1,113.67ZM188.58,352.07l-.35-229.38,245.39-.38L434,351.69Zm256.06-.39-.35-229.38,245.37-.38L690,351.3Zm499.15-.76-243.12.37-.35-229.38,243.11-.37Z"/><polygon class="cls-4" points="826.01 410.24 826.03 420.8 703.91 422.13 702.61 422.15 656.19 422.65 655.08 422.67 640.98 422.81 640.56 422.81 554.56 423.75 413.4 425.29 413.28 425.29 377.39 425.69 377 425.7 217.52 427.42 217.5 415.23 254.97 392.41 330.21 391.66 331.81 391.65 332.35 391.64 333.95 391.62 370.08 391.26 371.69 391.25 372.21 391.24 373.81 391.23 385.4 391.12 385.7 391.11 414.28 390.82 414.51 390.82 637.5 388.58 642.96 388.53 643.5 388.53 647.67 388.48 677.93 388.18 679.54 388.16 681.03 388.14 681.8 388.14 691.21 388.05 693.08 388.02 695.58 388 703.41 387.92 715.85 387.79 717.46 387.77 720.25 387.75 720.78 387.75 780.83 387.14 826.01 410.24"/><polygon class="cls-5" points="826.01 410.24 826.03 420.8 703.91 422.13 702.61 422.15 656.19 422.65 655.08 422.67 640.98 422.81 640.56 422.81 554.56 423.75 413.4 425.29 413.28 425.29 377.39 425.69 377 425.7 217.52 427.42 217.5 415.23 254.97 392.41 330.21 391.66 331.81 391.65 332.35 391.64 333.95 391.62 370.08 391.26 371.69 391.25 372.21 391.24 373.81 391.23 385.4 391.12 385.7 391.11 414.28 390.82 414.51 390.82 637.5 388.58 642.96 388.53 643.5 388.53 647.67 388.48 677.93 388.18 679.54 388.16 681.03 388.14 681.8 388.14 691.21 388.05 693.08 388.02 695.58 388 703.41 387.92 715.85 387.79 717.46 387.77 720.25 387.75 720.78 387.75 780.83 387.14 826.01 410.24"/><path class="cls-4" d="M651.18,213.38l.22,144.22c0,1.83-2.09,3.33-4.67,3.4L414,365.73h0c-2.66,0-4.83-1.51-4.87-3.38l-.22-148.6c0-1.86,2.15-3.37,4.79-3.39L646.38,210C649,210,651.14,211.52,651.18,213.38Z"/><polygon class="cls-6" points="424.38 219.55 639.94 219.22 640.13 346.34 424.58 350.1 424.38 219.55"/><polygon class="cls-3" points="826.01 410.24 826.03 420.8 703.91 422.13 702.61 422.15 656.19 422.65 655.08 422.67 640.98 422.81 640.56 422.81 554.56 423.75 413.4 425.29 413.28 425.29 377.39 425.69 377 425.7 217.52 427.42 217.5 415.23 380.29 413.9 380.67 413.9 413.62 413.62 413.78 413.62 641.33 411.75 641.56 411.75 641.7 411.74 642.08 411.74 645.93 411.71 647.1 411.71 706.98 411.21 710.51 411.19 711.3 411.18 826.01 410.24"/><ellipse class="cls-7" cx="523.61" cy="219.29" rx="41.26" ry="41.72" transform="translate(-0.33 0.8) rotate(-0.09)"/><path class="cls-7" d="M565,283.44s-80,9.88-72.35.11c2.76-3.53,3.51-14,3.34-25.89-.06-3.62-.19-7.36-.38-11.09-.91-17.88-3.07-35.35-3.07-35.35s69.88-33.44,61.89-7c-3.2,10.68-2.13,25.66.34,39.73.72,4.1,1.55,8.13,2.43,11.94A279,279,0,0,0,565,283.44Z"/><path class="cls-8" d="M538.87,280.17c9.25-1.74,19-4.9,27.75-1.29,2.3.95,4.41,2.33,6.75,3.13s4.92,1,7.37,1.54c8.59,1.95,15.56,8.55,20,16.22s6.81,16.36,9.09,25l5.58,21c4.85,18.24,9.7,36.64,10.85,55.5a1937.51,1937.51,0,0,1-201.64,1.47c4.36-8.41,8.82-17.34,8.43-26.84s-5.81-18.86-3.87-28.23c1.24-6,5.27-10.89,7.73-16.44,7-15.88,1.5-37.22,13.84-49.32,5.56-5.44,13.66-7.5,21.4-7.26,9.87.32,20,3.42,29.75,4.92C514.45,281.41,526.27,282.53,538.87,280.17Z"/><path class="cls-3" d="M644.23,370.37l-.08,1.16v.08l-.13,1.87-1,15-1.26,18.13-.37,5.1-.78,10.93v.13l-86,.95L413.4,425.53v.68h-.11v-.91l.34-11.67.66-22.81.56-19.34.06-1.92a8.5,8.5,0,0,1,8.7-8.31,3.44,3.44,0,0,1,.46,0c3.8.32,8.73.71,14.62,1.12l2.41.18c34,2.33,96.92,5.33,160.37,1.38,1.34-.08,2.68-.16,4-.26,9.84-.64,19.67-1.46,29.4-2.48a8.48,8.48,0,0,1,9.31,7.6,7.62,7.62,0,0,1,0,1.51Z"/><path class="cls-9" d="M413.38,426.21v-.68l141.17-1.77,86-.94h.24v-.14l.79-10.93.33-4.88,1.29-18.37,1-14.55v-.36a9,9,0,0,0-.09-2v-.08a8.54,8.54,0,0,0-1.62-3.77,8.43,8.43,0,0,0-7.57-3.24c-9.74,1-19.57,1.84-29.41,2.48-1.34.1-2.68.19-4,.26-63.45,3.91-126.34.92-160.37-1.38l-2.42-.17c-5.89-.42-10.82-.8-14.61-1.13a8.53,8.53,0,0,0-9.17,8.28l-.52,18-.71,22.82-.34,11.67v.88Z"/><path class="cls-3" d="M644.48,376.07l-1,12.46-1.44,18.57-.36,4.65-.79,10.41,0,.52v.14h0l-.12,1.21.09-1.21h-.23l-86,.95L413.4,425.53v-.23l.38-11.67.77-22.81.49-15.16a5.18,5.18,0,0,1,2.45-4.27,5,5,0,0,1,3-.74c1.69.14,3.76.3,6.18.47,3.93.29,8.78.62,14.42,1,10.45.65,23.57,1.35,38.59,1.91,41.8,1.56,98.23,2,151.83-2.81,2.41-.21,4.9-.45,7.34-.69a5,5,0,0,1,2.79.53,3.92,3.92,0,0,1,.7.44,5,5,0,0,1,1.61,2,2.65,2.65,0,0,1,.2.49A5.22,5.22,0,0,1,644.48,376.07Z"/><path class="cls-3" d="M371.81,387.61v2.59a5,5,0,0,1-2.8,4.51l-32.24.67a5,5,0,0,1-2.87-4.52v-2.44Z"/><polygon class="cls-10" points="392.51 402.31 313.19 401.85 313.19 406.92 392.52 407.39 392.51 402.31"/><path class="cls-9" d="M497.53,232.11c.07,5.69-2.53,11.06-4.73,16.32a134.18,134.18,0,0,0-10.08,60.74c.6,8.94,2.1,17.88.62,26.74s-6.75,17.7-15.24,20.26a42.85,42.85,0,0,0,46.43-2.23c7.06-5.21,12.31-12.48,17.45-19.62a80.1,80.1,0,0,1-10.64,36.38,82.9,82.9,0,0,0,59-33.26c3.46-4.73,6.46-9.92,7.79-15.65,2.47-10.57-1-21.54-3.68-32.1a219.32,219.32,0,0,1-5-26.81,24.22,24.22,0,0,1,.07-8.7c.8-3.31,2.94-6.1,4.52-9.12,4.49-8.58,4.58-18.95,2.26-28.36s-6.86-18.08-11.35-26.65C571.4,183.18,567.5,176,560.93,172c-4.1-2.52-8.85-3.56-13.57-4.57L527,163c-4.47-1-9.06-1.92-13.57-1.2-7.61,1.21-13,6.78-17.66,12.49-3.69,4.44-12.69,12.79-13.32,18.6-.57,5.36,4.12,14.32,4.93,20,1.05,7.31,1.79,4.88,5.88,9.36A14.54,14.54,0,0,1,497.53,232.11Z"/><path class="cls-2" d="M373.33,248.32l-80.06.12a.41.41,0,0,1,0-.81l80.06-.12a.41.41,0,0,1,0,.81Z"/><path class="cls-2" d="M373.34,255.64l-80.06.12a.41.41,0,0,1,0-.81l80.06-.13a.41.41,0,0,1,0,.82Z"/><path class="cls-2" d="M373.35,263l-80.06.12a.41.41,0,0,1,0-.81l80.06-.12a.41.41,0,1,1,0,.81Z"/><path class="cls-11" d="M341.36,381.16l-5.83-12a38.49,38.49,0,0,1-.48-33.17c3.68-7.86,10.69-15.81,23.69-21.13L344.58,298l55.28,8.14-26.75,48.15-4.69-20.13S340.78,341.75,341.36,381.16Z"/><path class="cls-12" d="M338.72,253.16l0-.08a5.81,5.81,0,0,0-4,3.95l9,1.64C340.91,255.3,338.75,253.19,338.72,253.16Z"/><path class="cls-2" d="M331.22,248.85,292.58,259c-7.26-13.19-10.2-27.74-11.33-42.93l38.64-10.19A81.6,81.6,0,0,0,331.22,248.85Z"/><rect class="cls-13" x="288.3" y="215.77" width="24.42" height="2.62" transform="translate(-45.43 83.82) rotate(-14.78)"/><rect class="cls-14" x="284.92" y="222.07" width="33.1" height="1.31" transform="translate(-46.84 84.26) rotate(-14.78)"/><rect class="cls-14" x="286" y="226.17" width="33.1" height="1.31" transform="translate(-47.84 84.67) rotate(-14.78)"/><rect class="cls-14" x="287.08" y="230.26" width="33.1" height="1.31" transform="matrix(0.97, -0.26, 0.26, 0.97, -48.85, 85.08)"/><rect class="cls-14" x="288.17" y="234.36" width="33.1" height="1.31" transform="matrix(0.97, -0.26, 0.26, 0.97, -49.86, 85.49)"/><rect class="cls-14" x="289.25" y="238.46" width="33.1" height="1.31" transform="matrix(0.97, -0.26, 0.26, 0.97, -50.87, 85.9)"/><rect class="cls-14" x="290.33" y="242.56" width="33.1" height="1.31" transform="translate(-51.88 86.31) rotate(-14.78)"/><rect class="cls-14" x="291.41" y="246.66" width="33.1" height="1.31" transform="matrix(0.97, -0.26, 0.26, 0.97, -52.89, 86.72)"/><path class="cls-15" d="M308.3,242.21l-40,.08c-3.68-14.59-2.85-29.41-.09-44.4l40-.08A81.48,81.48,0,0,0,308.3,242.21Z"/><rect class="cls-13" x="274.41" y="202.4" width="24.42" height="2.62" transform="translate(-0.42 0.6) rotate(-0.12)"/><rect class="cls-14" x="269.58" y="208.76" width="33.1" height="1.31" transform="translate(-0.44 0.6) rotate(-0.12)"/><rect class="cls-14" x="269.59" y="212.99" width="33.1" height="1.31" transform="translate(-0.44 0.6) rotate(-0.12)"/><rect class="cls-14" x="269.6" y="217.23" width="33.1" height="1.31" transform="translate(-0.45 0.6) rotate(-0.12)"/><rect class="cls-14" x="269.61" y="221.47" width="33.1" height="1.31" transform="translate(-0.46 0.6) rotate(-0.12)"/><rect class="cls-14" x="269.62" y="225.71" width="33.1" height="1.31" transform="translate(-0.47 0.6) rotate(-0.12)"/><rect class="cls-14" x="269.63" y="229.95" width="33.1" height="1.31" transform="translate(-0.48 0.6) rotate(-0.12)"/><rect class="cls-14" x="269.63" y="234.18" width="33.1" height="1.31" transform="translate(-0.49 0.6) rotate(-0.12)"/><path class="cls-2" d="M301.13,249l-37.06,15c-8.85-12.18-13.59-26.25-16.61-41.18l37.07-14.95A81.47,81.47,0,0,0,301.13,249Z"/><rect class="cls-13" x="254.48" y="219.98" width="24.42" height="2.62" transform="translate(-63.41 115.79) rotate(-21.96)"/><rect class="cls-14" x="251.8" y="226.11" width="33.1" height="1.31" transform="translate(-65.33 116.81) rotate(-21.96)"/><rect class="cls-14" x="253.39" y="230.04" width="33.1" height="1.31" transform="translate(-66.69 117.69) rotate(-21.96)"/><rect class="cls-14" x="254.97" y="233.97" width="33.1" height="1.31" transform="translate(-68.04 118.57) rotate(-21.96)"/><rect class="cls-14" x="256.56" y="237.9" width="33.1" height="1.31" transform="translate(-69.4 119.44) rotate(-21.96)"/><rect class="cls-14" x="258.14" y="241.83" width="33.1" height="1.31" transform="translate(-70.75 120.32) rotate(-21.96)"/><rect class="cls-14" x="259.73" y="245.76" width="33.1" height="1.31" transform="matrix(0.93, -0.37, 0.37, 0.93, -72.11, 121.2)"/><rect class="cls-14" x="261.31" y="249.69" width="33.1" height="1.31" transform="translate(-73.46 122.08) rotate(-21.96)"/><path class="cls-16" d="M272.83,250.81,256.06,246a1.55,1.55,0,0,0-1.55-.22l-6.9,2.77a1.59,1.59,0,0,0-.87,2h0l24.53,60.82a5.1,5.1,0,0,0,6.63,2.82l70.74-28.52a5.1,5.1,0,0,0,2.82-6.64L332.38,231.8a4.63,4.63,0,0,0-6-2.56Z"/><rect class="cls-17" x="321.5" y="244.99" width="13.83" height="4.84" transform="translate(-68.69 140.77) rotate(-21.96)"/></g></svg>