<?xml version="1.0" encoding="utf-8"?>
<!-- Generator: Adobe Illustrator 24.0.1, SVG Export Plug-In . SVG Version: 6.00 Build 0)  -->
<svg version="1.1" id="Layer_1" xmlns="http://www.w3.org/2000/svg" xmlns:xlink="http://www.w3.org/1999/xlink" x="0px" y="0px"
	 viewBox="0 0 159.3 110.4" style="enable-background:new 0 0 159.3 110.4;" xml:space="preserve">
<style type="text/css">
	.st0{fill:#FFFFFF;}
	.st1{fill:#DBCEC8;}
	.st2{fill:none;stroke:#ED1515;stroke-width:3;stroke-linecap:round;stroke-miterlimit:10;}
	.st3{fill:none;stroke:#ED1515;stroke-width:5;stroke-miterlimit:10;}
</style>
<title>Asset 31</title>
<path class="st0" d="M156.2,26v58.7c0,4.4-3.5,8-7.9,8c0,0,0,0-0.1,0h-14.9l-7.7,12c-0.3,0.5-0.9,0.7-1.4,0.4
	c-0.2-0.1-0.3-0.2-0.4-0.4l-7.2-12H52c-4.4,0-8-3.6-8-8V26c0-4.4,3.6-8,8-8h96.1C152.6,18,156.2,21.6,156.2,26
	C156.2,26,156.2,26,156.2,26z"/>
<path class="st1" d="M120.4,63.6V18.9l-6.6-0.7l-3.4,57.4l-4.2,2.2l-3.5,0.6l-7.4-0.2l1.9,0.4l-12.7-2.7l-31.8,1
	c-2,0-3.7-1.7-3.7-3.7v-63c0-0.9,0.1-1.7,0.4-2.5c-3.4,1-5.7,4.1-5.7,7.7v58.7c0,4.4,3.6,8,8,8h15.7L90.8,82l8.2,0.1h9.7
	c3.8,0,9.9,0,11.8-3.3S120.4,69.1,120.4,63.6z"/>
<circle class="st1" cx="54.5" cy="75.8" r="5.2"/>
<circle class="st1" cx="63.7" cy="71.4" r="2.3"/>
<circle class="st1" cx="111.2" cy="74.9" r="1.8"/>
<line class="st2" x1="146.2" y1="39.2" x2="61.1" y2="39.2"/>
<line class="st2" x1="146.2" y1="52.8" x2="114.1" y2="52.8"/>
<line class="st2" x1="146.2" y1="66.4" x2="98.1" y2="66.4"/>
<path class="st3" d="M156.8,22.4v64.8c0,2.8-2.2,5-5,5h-17.9l-8.6,13.4l-8-13.4H49.5c-2.8,0-5-2.2-5-5V25.5c0-4.4,3.6-8,8-8h99.2
	C154.5,17.4,156.7,19.6,156.8,22.4z"/>
<path class="st0" d="M3.1,11.1v58.7c0,4.4,3.6,8,8.1,8H26l7.6,12c0.3,0.5,1,0.6,1.4,0.3c0.1-0.1,0.2-0.2,0.3-0.3l7.2-12h64.7
	c4.4,0,8-3.6,8-8V11.1c0-4.4-3.6-8-8-8H11.1C6.7,3.1,3.1,6.7,3.1,11.1C3.1,11.1,3.1,11.1,3.1,11.1z"/>
<path class="st1" d="M54.4,70.9h50c2.1,0,3.7-1.7,3.7-3.7v-63c0-0.8,0.5-1.4,1.3-1.5c0.3,0,0.6,0.1,0.9,0.3c2,1.5,3.1,3.9,3.1,6.3
	v65.4c0,0.8-0.6,1.4-1.4,1.4H89.8L66.4,76l-8.2,0.1H43.3"/>
<circle class="st1" cx="104.8" cy="66.9" r="5.2"/>
<circle class="st1" cx="95.5" cy="62.5" r="2.3"/>
<circle class="st1" cx="55.2" cy="69.3" r="4"/>
<circle class="st1" cx="48" cy="66" r="1.8"/>
<line class="st2" x1="13.1" y1="24.3" x2="98.2" y2="24.3"/>
<line class="st2" x1="13.1" y1="37.9" x2="45.2" y2="37.9"/>
<line class="st2" x1="13.1" y1="51.5" x2="61.2" y2="51.5"/>
<path class="st3" d="M2.5,3.9v72c0,0.8,0.6,1.4,1.4,1.4c0,0,0,0,0,0h20.8c0.5,0,0.9,0.2,1.2,0.6L34,90.7l7.6-12.8
	c0.3-0.4,0.7-0.7,1.2-0.7h70.6c0.8,0,1.4-0.6,1.4-1.4c0,0,0,0,0,0v-72c0-0.8-0.6-1.4-1.4-1.4H3.9C3.1,2.5,2.5,3.1,2.5,3.9z"/>
</svg>
