<?xml version="1.0" encoding="utf-8"?>
<!-- Generator: Adobe Illustrator 24.0.1, SVG Export Plug-In . SVG Version: 6.00 Build 0)  -->
<svg version="1.1" id="Layer_1" xmlns="http://www.w3.org/2000/svg" xmlns:xlink="http://www.w3.org/1999/xlink" x="0px" y="0px"
	 viewBox="0 0 173.8 204.4" style="enable-background:new 0 0 173.8 204.4;" xml:space="preserve">
<style type="text/css">
	.st0{fill:#E8E9EA;}
	.st1{fill:#676A72;}
	.st2{fill:#818487;}
	.st3{fill:#4E515C;}
	.st4{fill:#5E5C67;}
	.st5{fill:#747379;}
	.st6{fill:#060206;}
	.st7{fill:#FFFFFF;}
	.st8{fill:#CFE1F0;}
	.st9{fill:#3E4250;}
	.st10{fill:#A4A4A4;}
	.st11{fill:#F47750;}
	.st12{fill:#515862;}
	.st13{fill:#AE5343;}
	.st14{fill:#0F050F;}
</style>
<title>Asset 220</title>
<g>
	<path class="st0" d="M113.6,195.7H43.9c2.2,3,5.7,5,9.7,5h60.6c-0.4-0.8-0.6-1.8-0.6-2.8V195.7 M150.7,18.8c0,0.3,0,0.5,0,0.8
		v165.2c0,6-4.9,10.9-10.9,10.9h-7.4v2.2c0,1-0.2,1.9-0.6,2.8h13.8c6.6,0,12-5.4,12-12v-159C157.7,24.9,154.8,20.7,150.7,18.8"/>
	<path class="st1" d="M34.9,10.2h104.9c5.2,0,9.4,4.2,9.4,9.4v165.2c0,5.2-4.2,9.4-9.4,9.4H34.9c-5.2,0-9.4-4.2-9.4-9.4V19.6
		C25.5,14.4,29.7,10.2,34.9,10.2"/>
	<path class="st2" d="M71.7,189.9c-1.4,1.5-3.2,2.7-5.2,3.4c-2.8,0.8-5.7,1.1-8.6,1l-10.7,0.1c-6.7,0-15.4,1.6-19.5-3.6
		c-3-3.8-2.1-11.1-2.1-16c0-48.9,0-97.7,0.1-146.6c0-3.9-0.9-8,1.1-11.3c3.8-6.1,9.3-6.7,16.4-6.6l16.6,0.1c1-0.1,2.1,0.2,2.8,0.9
		c0.7,0.9,0.5,2.1,0.2,3.2c-3.3,12.3-9.3,23-14.9,34.3c-9.6,19.4-10.3,40-8.9,61.2c0.7,9.9,1.8,20.2,5.9,29.3
		c3.9,8.5,11.2,14,18.6,19.2C73.3,165.6,82.2,178.9,71.7,189.9"/>
	<path class="st3" d="M149.6,21.1l-2,158.2c0,8.2-4.9,14.9-11,14.9h-36.6c4.1,0,12-17,13.5-20c12.9-25.8,15-56.6,13.9-84.9
		c-0.6-12.3-1.8-24.5-3.6-36.6c-1.1-7.2-1.7-14.6-1.5-21.9c0.1-2.1,1.4-20.6,3.8-20.6h10.6C142.7,10.2,149.6,12.9,149.6,21.1"/>
	<polyline points="39.1,9.4 42.1,9.4 42.1,193.4 39.1,193.4 39.1,9.4 	"/>
	<path class="st4" d="M39.1,80.3c-0.3,3.1-0.5,6.2-0.6,9.3h0.6V80.3"/>
	<path class="st5" d="M39.1,11.7h-1.9v77.9h1.3c0.1-3.1,0.3-6.2,0.6-9.3V11.7"/>
	<polyline class="st6" points="39.2,11.7 39.1,11.7 39.1,80.3 39.1,89.6 39.2,89.6 39.2,11.7 	"/>
	<polyline class="st5" points="39.1,123.5 37.2,123.5 37.2,192.7 39.1,192.7 39.1,123.5 	"/>
	<polyline class="st6" points="39.2,123.5 39.1,123.5 39.1,192.7 39.2,192.7 39.2,123.5 	"/>
	<polyline class="st7" points="149.2,122 25.5,122 24.7,91.1 149.2,91.1 149.2,122 	"/>
	<path class="st8" d="M149.6,91.5l-2,28.9H24.9l-0.1-4.8h105.1c6.3,0,11.4-5.1,11.4-11.4V90.5L149.6,91.5"/>
	<path class="st9" d="M149.6,131.2v48.1c0,8.2-3.5,14.9-7.7,14.9h-1.8v-38.6C140.1,145.3,143.9,136.3,149.6,131.2z"/>
	<path d="M139.9,195.7h-105c-6,0-10.9-4.9-10.9-10.9V19.6c0-6,4.9-10.9,10.9-10.9h105c6,0,10.9,4.9,10.9,10.9v165.2
		C150.7,190.8,145.9,195.7,139.9,195.7 M34.9,11.7c-4.4,0-7.9,3.5-7.9,7.9v165.2c0,4.4,3.5,7.9,7.9,7.9h105c4.4,0,7.9-3.5,7.9-7.9
		V19.6c0-4.4-3.5-7.9-7.9-7.9H34.9"/>
	<path class="st9" d="M138.5,27.7h2.3c1.1,0,2,0.9,2,2V51c0,1.1-0.9,2-2,2h-2.3c-1.1,0-2-0.9-2-2V29.7
		C136.5,28.6,137.4,27.7,138.5,27.7z"/>
	<path class="st10" d="M31.3,148.2h1.2c0.6,0,1,0.4,1,1v20.2c0,0.6-0.4,1-1,1h-1.2c-0.6,0-1-0.4-1-1v-20.2
		C30.3,148.7,30.7,148.2,31.3,148.2z"/>
	<path class="st10" d="M31.3,173.6h1.2c0.6,0,1,0.4,1,1v1.2c0,0.6-0.4,1-1,1h-1.2c-0.6,0-1-0.4-1-1v-1.2
		C30.3,174,30.7,173.6,31.3,173.6z"/>
	<polyline points="25.5,120.5 149.2,120.5 149.2,123.5 25.5,123.5 25.5,120.5 	"/>
	<polyline points="24.7,89.6 149.2,89.6 149.2,92.6 24.7,92.6 24.7,89.6 	"/>
	<path class="st11" d="M120.9,0.7h5.9c2.8,0,5,2.2,5,5v191.5c0,2.8-2.2,5-5,5h-5.9c-2.8,0-5-2.2-5-5V5.7
		C115.9,2.9,118.2,0.7,120.9,0.7"/>
	<path d="M126,204.5h-5.9c-3.6,0-6.5-2.9-6.5-6.5V6.5c0-3.6,2.9-6.5,6.5-6.5h5.9c3.6,0,6.5,2.9,6.5,6.5V198
		C132.5,201.5,129.6,204.4,126,204.5 M120.1,3c-1.9,0-3.5,1.6-3.5,3.5V198c0,1.9,1.6,3.5,3.5,3.5h5.9c1.9,0,3.5-1.6,3.5-3.5V6.5
		c0-1.9-1.6-3.5-3.5-3.5H120.1"/>
	<rect x="118.6" y="3.1" class="st12" width="1" height="199.1"/>
	<polyline class="st13" points="122.8,3.1 121.8,3.1 121.8,201.5 122.8,201.5 122.8,3.1 	"/>
	<polyline class="st14" points="122.8,201.5 121.8,201.5 121.8,202.2 122.8,202.2 122.8,201.5 	"/>
	<rect x="122.8" y="3.1" class="st12" width="1" height="199.1"/>
	<rect x="125.9" y="3.1" class="st12" width="1" height="199.1"/>
</g>
</svg>
