<svg xmlns="http://www.w3.org/2000/svg" xmlns:xlink="http://www.w3.org/1999/xlink" viewBox="0 0 1085.35 443.36"><defs><style>.cls-1,.cls-5{fill:none;}.cls-2,.cls-31{fill:#6c63ff;}.cls-11,.cls-2{opacity:0.1;}.cls-11,.cls-18,.cls-2,.cls-7{isolation:isolate;}.cls-3{fill:#31363b;}.cls-4{fill:#f67400;}.cls-21,.cls-22,.cls-5{stroke-miterlimit:10;}.cls-5{stroke:url(#Unnamed_Pattern);}.cls-6{opacity:0.12;}.cls-7{opacity:0.4;}.cls-8{fill:url(#linear-gradient);}.cls-9{fill:#187ca8;}.cls-10{fill:#65617d;}.cls-12{fill:#fbbebe;}.cls-13{fill:#3daee9;}.cls-14{fill:#3f3d56;}.cls-15{fill:#e7effd;}.cls-16{opacity:0.2;}.cls-17{fill:#dfe6f5;}.cls-18{opacity:0.05;}.cls-19{fill:#a7adb8;}.cls-20{fill:#454b69;}.cls-21{fill:#da4453;}.cls-21,.cls-22{stroke:#000;}.cls-22{fill:#fdbc4b;}.cls-23{fill:#f47750;}.cls-24,.cls-25{fill:#828282;}.cls-24{stroke:#828282;}.cls-24,.cls-27{stroke-linecap:round;stroke-linejoin:round;stroke-width:4px;}.cls-26,.cls-27{fill:#eff0f1;}.cls-27{stroke:#eff0f1;}.cls-28{fill:#ffb8b8;}.cls-29{fill:#2f2e41;}.cls-30{fill:#4d4d4d;}.cls-32{fill:#bdc3c7;}.cls-33{fill:#ccc;}.cls-34{fill:#e6e6e6;}.cls-35{fill:#d0cde1;}</style><pattern id="Unnamed_Pattern" data-name="Unnamed Pattern" width="1131.14" height="715.49" patternUnits="userSpaceOnUse" viewBox="0 0 1131.14 715.49"><rect class="cls-1" width="1131.14" height="715.49"/><path class="cls-2" d="M752.66,52.28C786.44,10.59,861.87-7,920.66,2.52c56.09,9,98,43.46,103.59,85,8.12,60.49-53.09,120.26-84.68,180.84-14.72,28.2-22.74,60.2-4.09,83.9,33.88,42.9,132.73,34.82,176.5,72.39,26.09,22.35,25.47,59.69-1.45,87C1089.32,533.15,1055.84,547,1023,558c-59.23,19.86-121,33.65-182.46,47.38-166.14,37.08-332.73,74.25-501.08,97.86-76.05,10.67-154.65,18.49-225.26,5.42-34.76-6.43-68.12-18.76-85.4-40.53-17.44-22-16.21-50.78-6.56-77.6s27-52.6,41.23-78.82c30.27-55.9,44.21-121.68-2.23-163.61-13.34-12.05-31-21.43-42.56-34.49C2,294.76,0,270.36,0,246.76,0,215.4,4.76,180.66,35.57,155c32-26.68,83.18-35.77,129.13-37.63,71.48-2.82,139.86,7.29,208.48,15.06s139.94,13.15,211.31,1.15C647.51,123,718,95.17,752.66,52.28Z"/></pattern><linearGradient id="linear-gradient" x1="-110.88" y1="1016.08" x2="-110.88" y2="1254.19" gradientTransform="matrix(1, 0, 0, -1, 253.95, 1398.53)" gradientUnits="userSpaceOnUse"><stop offset="0" stop-color="gray" stop-opacity="0.25"/><stop offset="0.54" stop-color="gray" stop-opacity="0.12"/><stop offset="1" stop-color="gray" stop-opacity="0.1"/></linearGradient></defs><title>hero_main</title><g id="Layer_1" data-name="Layer 1"><rect class="cls-3" x="0.5" width="1068" height="422"/></g><g id="Layer_6" data-name="Layer 6"><path class="cls-4" d="M36.68,197.41c-8-7.23-18.62-12.85-25.51-20.68C1.2,165.45,0,150.82,0,136.67c0-18.79,2.86-39.61,21.32-55,19.19-16,49.86-21.44,77.4-22.56,42.85-1.68,83.84,4.38,125,9s83.88,7.88,126.66.69c47.16-7.93,43.59-31.56,100.8-48.72C500,5.44,533.91,9.29,549,11.87c26.35,4.5,58.4,10,65,29.36C622.31,66,593.79,91,563.19,149.62c-8.83,16.9-13.64,36.09-2.46,50.29,20.31,25.72,79.57,20.87,105.8,43.39,15.64,13.4,15.27,35.78-.87,52.15-12.71,12.89-32.78,21.18-52.49,27.77-35.51,11.91-72.52,20.17-109.37,28.4-99.59,22.23-199.44,44.51-300.36,58.66-45.58,6.39-92.69,11.08-135,3.25-20.84-3.86-40.83-11.25-51.19-24.3S7.52,358.8,13.3,342.72,29.5,311.19,38,295.48C56.16,262,64.51,222.54,36.68,197.41Z" transform="translate(0.5)"/><path class="cls-5" d="M350.35,68.82c-42.78,7.19-85.53,4-126.66-.69s-82.12-10.71-125-9c-27.54,1.12-58.21,6.57-77.4,22.56C2.86,97.06,0,117.88,0,136.67c0,14.15,1.2,28.78,11.17,40.06,6.89,7.83,17.51,13.45,25.51,20.68C64.51,222.54,56.16,262,38,295.48c-8.52,15.71-18.94,31.16-24.72,47.24s-6.52,33.35,3.93,46.51,30.35,20.44,51.19,24.3c42.33,7.83,89.44,3.14,135-3.25,100.92-14.15,200.77-36.43,300.36-58.66,36.85-8.23,73.86-16.49,109.37-28.4,19.71-6.59,39.78-14.88,52.49-27.77,16.14-16.37,16.51-38.75.87-52.15-26.23-22.52-85.49-17.67-105.8-43.39-11.18-14.2-6.37-33.39,2.46-50.29C593.79,91,622.31,66,614,41.23c-6.56-19.39-38.61-24.86-65-29.36-15.08-2.58-49-6.43-97.84,8.23C393.94,37.26,397.51,60.89,350.35,68.82Z" transform="translate(0.5)"/></g><g id="Layer_4" data-name="Layer 4"><ellipse class="cls-6" cx="193.3" cy="361.52" rx="169.76" ry="29.65"/><rect class="cls-7" x="189.3" y="325.13" width="12.15" height="8.2"/><rect class="cls-7" x="222.1" y="325.13" width="12.15" height="8.2"/><rect class="cls-7" x="82.72" y="271.36" width="60.73" height="7.33"/><rect class="cls-7" x="82.72" y="294.74" width="60.73" height="7.33"/><path class="cls-8" d="M212.35,312.45S197.77,316,192,322.57a19.67,19.67,0,0,1-7.76,4.92v-9.95c3.33-5.6,6.69-11.82,6.69-11.82.15-.31,1.37-4.6,1.37-4.6,2.73-2.15-.16-9.66-.16-9.66s1.68-4.76.76-5.68-.15-3.37.61-4.44a5.58,5.58,0,0,0,.61-3.38c0-.91-1.22-2.3-3.19-3.06s.15-2,1.37-2.31,1.52-3.22.15-4.75.15-2.45.91-4.14-2.44-1.38-2.44-1.38v-15.5h0s-.92-5.06-1.83-13.95-4.4-9.82-4.4-9.82a40.05,40.05,0,0,1-5.47-2.15,37,37,0,0,0-5.77-2.14,29.66,29.66,0,0,1-7.44-1,22.54,22.54,0,0,0-5.07-1.1l-.55-.27a19.85,19.85,0,0,1-9.21-9.77c-.1-.21-.18-.43-.27-.63a21.24,21.24,0,0,0,2.43-3.22v1.78h0v0c2.42-4.28,9.44-5.26,10.11-10.14a5.19,5.19,0,0,0,0-.68v-.52c-.09-1.36-.56-2.72-.65-4.1a7.75,7.75,0,0,1,0-1.18v0c.32-3.79,3.18-7.09,4.48-10.77a12.42,12.42,0,0,0,.69-3.07v0c0-.31.05-.63.06-1v-.9a14.33,14.33,0,0,0-4.73-10.36c-2.43-2.1-5.62-3.42-7.3-6.17-.78-1.28-1.17-2.79-2-4-1.61-2.33-4.55-3.28-7.34-3.61s-5.66-.23-8.33-1.1c-1.89-.62-3.61-1.72-5.52-2.27a10.56,10.56,0,0,0-11.35,4.09c-1,1.47-1.66,3.22-3,4.37-2.78,2.35-7.5,1.34-9.94,4.05-1.34,1.49-1.49,3.52-1.33,5.59v.08a4.35,4.35,0,0,0,.05.48v.22a.69.69,0,0,0,0,.24c.08.75.19,1.49.28,2.2,0,.11,0,.22,0,.33l.08.66a4,4,0,0,0,0,.49c0,.16,0,.42,0,.6a3.75,3.75,0,0,0,0,.48,32.85,32.85,0,0,1-3.48,16.35c-2.3,4.51-5.72,8.66-6.31,13.69a14.81,14.81,0,0,0-.07,2.49v.29c0,.1,0,.3,0,.45s0,.34,0,.51a2.54,2.54,0,0,0,0,.29c0,.23.07.46.11.68l0,.15c.6,3.43,2,6.8,2.7,10.26a28.29,28.29,0,0,1,.54,3.88v0c0,.43,0,.83.06,1.25v1.7A28.43,28.43,0,0,1,98,221.69c-2.12.3-8.35,5.82-7.9,7.22s-2.78,11-2.87,11.33h0l-5.1,35.26s-2.71,2.61-1.86,4.29-.17,4.6-.17,4.6-4.57,2-3.55,3.22.55,3.53-.15,5.06-1.84,4.3,0,4.76.32,6.44.32,6.44,6.41-.74,5.94,3.07c-.15,1.21,4.49,4.54,6.42,5.87v18.33a55.87,55.87,0,0,1-7.59-2.58c-4-1.84-26.12-5.37-31,5.21S57.16,358.46,60,360a19.61,19.61,0,0,1,3.34,3.22c.61,1.08,4.1,1.38,4.1,1.38A26.09,26.09,0,0,1,72,367.2c.68.68,6.23,2.44,12.81,3.82h0s-5.32,12.23,3.35,11.23,12.89-5.28,19-5.28c2.44,0,7-.34,11.54-.75a30.51,30.51,0,0,1,3.4.8,43.33,43.33,0,0,0,7.89,1.7s6.84,3.68,10.48,2.76a2.44,2.44,0,0,0,.83-.43h.08a4.81,4.81,0,0,0,2.2-1.88c4.55.47,9.77,1.13,11.7,1.89,3.78,1.45,30.79-.56,30.79-.56s17.45.34,22.45,1.85,3.22-15.44-6-17.34a36.92,36.92,0,0,0-7.48-.74,16.17,16.17,0,0,0,1.74-2.13l5.52-.49s8.81-4.29,13.82-6.9a31.55,31.55,0,0,0,8.5-6.74s4.4-2.76,6.22-3.83,2.73-4.6,2.73-4.6C247.42,308.3,212.35,312.45,212.35,312.45Zm-39.54-39.24v-1.55c.49.35.42.9,0,1.54Zm.15,10.84c.36.48.72.93,1,1.27,1,1.28-.8,1.87-.67,4,0,.48.07,1.13.11,1.86h0c-.18-3-.34-5.55-.42-7.11Z" transform="translate(0.5)"/><path class="cls-9" d="M93.92,332.44s-8.49-2-12.45-3.8-26.11-5.31-31,5.17,6.68,24.44,9.57,26,31-19.29,31-19.29l22.15,9.34,4.25-14.5Z" transform="translate(0.5)"/><rect class="cls-10" x="103.8" y="335.32" width="96.45" height="33.55" rx="15.64"/><path class="cls-11" d="M199.75,352.1a16.69,16.69,0,0,1-2.8,9.27,17.08,17.08,0,0,1-2.12,2.6A16.7,16.7,0,0,1,183,368.88H120.08a16.78,16.78,0,1,1,0-33.56H183A16.78,16.78,0,0,1,199.75,352.1Z" transform="translate(0.5)"/><path class="cls-12" d="M147.24,353.08s-9.68,2.48-17.57,2.37-44.81,15.23-44.81,15.23-5.31,12.12,3.36,11.11,12.89-5.2,19-5.2,25.34-2.13,25.34-2.13l18.51-13.67Z" transform="translate(0.5)"/><path class="cls-12" d="M153.29,238.76l-17.35,3.42-1.12.23s-13.72-3.65-14.17-3.95-12.91-17.08-12.91-17.08,6.3.06,11.24-2.79l.53-.31a11,11,0,0,0,4.67-5.74c.09-.25.16-.5.24-.78a15.41,15.41,0,0,0-.15-7.46c-1.7-7.08,2.21-9,7.39-8.86,7.48.24,17.66,4.91,17.66,4.91a20.66,20.66,0,0,0,1.6,6.92,5.8,5.8,0,0,0,.27.62,19.73,19.73,0,0,0,9.21,9.67l.55.27c.55.26,1.13.51,1.73.74C175.91,223.58,153.29,238.76,153.29,238.76Z" transform="translate(0.5)"/><path class="cls-11" d="M151.2,207.89a21.86,21.86,0,0,1-27,4.65,14.8,14.8,0,0,0,.09-8.24c-4.1-17.31,25.06-4,25.06-4A20.89,20.89,0,0,0,151.2,207.89Z" transform="translate(0.5)"/><path class="cls-12" d="M156.68,192.52a21.59,21.59,0,0,1-3.32,11.56,20.29,20.29,0,0,1-2.42,3.19,21.69,21.69,0,0,1-14.81,7c-.42,0-.88.05-1.32.05a21.87,21.87,0,1,1,21.86-21.87h0Z" transform="translate(0.5)"/><path class="cls-11" d="M153.29,238.76l-17.35,3.42-1.12.23s-13.72-3.65-14.17-3.95-12.91-17.08-12.91-17.08,6.3.06,11.24-2.79l.53-.31a20.36,20.36,0,0,0,14.8,6.46,21.55,21.55,0,0,0,3.1-.22c2.43-.37,4.89-.62,7.35-.85,4.7-.49,11.89-1.92,15.67-6.07l.55.27c.55.26,1.13.51,1.73.74C175.91,223.58,153.29,238.76,153.29,238.76Z" transform="translate(0.5)"/><path class="cls-13" d="M172.87,283.09c.15,3.35,2.59,41,2.59,41H99.69l.52-23.71.42-19,.14-6.22.6-21.56-2.19-1.94L87.24,241.19h0c.09-.28,3.33-9.88,2.88-11.23s5.77-6.83,7.9-7.14a27.55,27.55,0,0,0,3.56-1.08c3.58-1.27,8.36-3.11,8.88-2.82.75.4,8.2-.29,8.5-.32h0a20.35,20.35,0,0,0,15.32,7.06,21.19,21.19,0,0,0,3.08-.24c2.44-.38,4.9-.62,7.36-.88,4.94-.51,12.62-2.06,16.21-6.71a23.56,23.56,0,0,1,5.08,1.09,29.89,29.89,0,0,0,7.44,1,38,38,0,0,1,5.77,2.12,41.28,41.28,0,0,0,5.47,2.13s3.49.91,4.4,9.71,1.84,13.82,1.84,13.82l-18.06,15.64S172.73,279.74,172.87,283.09Z" transform="translate(0.5)"/><polygon class="cls-12" points="87.75 309.36 90.4 313.61 100.35 317.12 107.18 304.65 100.88 300.4 90.78 296.46 85.02 299.8 87.75 309.36"/><path class="cls-9" d="M172.11,330.31s14.12-1.06,19.9-7.59,20.34-10,20.34-10,35.07-4.1,21.24,26.88c0,0-.91,3.49-2.74,4.55s-6.22,3.8-6.22,3.8l-53.87-4.71Z" transform="translate(0.5)"/><path class="cls-11" d="M199.75,352.1a16.69,16.69,0,0,1-2.8,9.27c-9.06.81-29.13,2.69-33.34,3.87-5.16,1.43-15.6-1.07-16.74-1.35l-.11,0s-2-6.11-3-10c-.43-1.77-.65-3.09-.37-3.19.91-.3,9.26-2.59,9.11-1.28s25.06-9.79,25.06-9.79l.77,9.72C180.92,352.24,199.75,347.88,199.75,352.1Z" transform="translate(0.5)"/><path class="cls-9" d="M225.71,344l-1.06,3.95a31.46,31.46,0,0,1-8.5,6.67c-5,2.59-13.81,6.84-13.81,6.84s-32.34,2.73-37.81,4.25-16.85-1.37-16.85-1.37-4.25-12.91-3.34-13.21,9.26-2.58,9.11-1.28S178.51,340,178.51,340Z" transform="translate(0.5)"/><path class="cls-12" d="M135.67,378s15.9,1.11,19.68,2.55,30.79-.56,30.79-.56,17.44.34,22.44,1.84,3.23-15.29-6-17.18-22.23.89-22.23.89l-16.45-2.12c-1.78-.23-13.5.1-13.5.1Z" transform="translate(0.5)"/><path class="cls-11" d="M73.21,336.11s21,1.89,26.79,5.34Z" transform="translate(0.5)"/><path class="cls-11" d="M204.25,322.33s-16.45,4-22.9,9.89Z" transform="translate(0.5)"/><path class="cls-11" d="M74.43,331.33c.34.12,9.68,1.34,9.45,2.23S74.43,331.33,74.43,331.33Z" transform="translate(0.5)"/><path class="cls-11" d="M59.76,354.76,61,359.31a19.92,19.92,0,0,1,3.34,3.19c.6,1.06,4.1,1.37,4.1,1.37A25.84,25.84,0,0,1,73,366.45c.92.9,10.78,3.79,20,5s26.42,3.49,30.06,4.7a43.55,43.55,0,0,0,7.9,1.67s6.83,3.65,10.48,2.74,9.86-17.46,9.86-17.46-24-5.62-24.74-7.44-23.84-10.32-23.84-10.32l-13.67.32Z" transform="translate(0.5)"/><path class="cls-9" d="M58.85,355.21l1.22,4.56A19.75,19.75,0,0,1,63.41,363c.61,1.07,4.1,1.37,4.1,1.37a25.84,25.84,0,0,1,4.55,2.58c.91.92,10.78,3.8,20,5s26.42,3.49,30.07,4.71a43.25,43.25,0,0,0,7.89,1.66s6.83,3.64,10.48,2.74,9.86-17.47,9.86-17.47-24-5.61-24.74-7.43S91,340.48,91,340.48l-10.62-2.43Z" transform="translate(0.5)"/><path class="cls-13" d="M89.9,239.67l-2.66,1.52-5.1,34.92s-2.7,2.58-1.86,4.25-.16,4.55-.16,4.55-4.57,2-3.56,3.19.56,3.49-.14,5-1.84,4.25,0,4.71.31,6.37.31,6.37,6.41-.73,6,3c-.19,1.52,7.25,6.37,7.25,6.37s-8.46-15.33,10.48-13.21l1.63-8.64s1.62-4.87,0-6.37.36-8.73.36-8.73l.36-31.35Z" transform="translate(0.5)"/><path class="cls-11" d="M85.77,284.77c.34.55,10.56,1.7,11.23,3.51S85.77,284.77,85.77,284.77Z" transform="translate(0.5)"/><path class="cls-11" d="M82.55,293.44s1.39-4.34,4.67-3.56S82.55,293.44,82.55,293.44Z" transform="translate(0.5)"/><path class="cls-11" d="M80.77,299.77s2.44-5.78,5.78-5.33S80.77,299.77,80.77,299.77Z" transform="translate(0.5)"/><path class="cls-12" d="M192,299.64,190.94,306S180,326.06,178,326.36,165.29,313,165.29,313l-2.88-13.36,11.35-2.15,5-5S191.55,293.72,192,299.64Z" transform="translate(0.5)"/><path class="cls-13" d="M186.84,244.84l4.1,2.88v15.33s3.19-.3,2.43,1.37-2.28,2.58-.91,4.1,1.06,4.4-.15,4.71-3.34,1.51-1.37,2.27,3.19,2.13,3.19,3a5.45,5.45,0,0,1-.61,3.34c-.76,1.06-1.51,3.49-.61,4.4s-.76,5.62-.76,5.62,2.89,7.44.16,9.57c0,0-1.22,4.24-1.37,4.55,0,0,1.92-14.78-17.19-8.53l-.48-7.72c-.13-2.08,1.65-2.7.67-3.94s-3.44-4.1-2.28-4.86.76-2.12.3-3.19-2.06-1.06-.61-2.35,2.32-2.5,1.46-3.11-2.33-2.59-1.15-3.5,1.21-14.12,1.21-14.12S177.73,235.27,186.84,244.84Z" transform="translate(0.5)"/><path class="cls-11" d="M184.91,271s5.84-1.59,6,0S184.91,271,184.91,271Z" transform="translate(0.5)"/><path class="cls-11" d="M178.35,275.32s8-2,9-.44S178.35,275.32,178.35,275.32Z" transform="translate(0.5)"/><path class="cls-11" d="M176.57,279.54s12-1.67,12.79.78S176.57,279.54,176.57,279.54Z" transform="translate(0.5)"/><path class="cls-11" d="M178.35,284.77c.45.11,11.56.89,11.78,3S178.35,284.77,178.35,284.77Z" transform="translate(0.5)"/><rect class="cls-14" x="89.57" y="291.61" width="95.18" height="54.06" rx="4.45"/><circle class="cls-15" cx="137.16" cy="318.64" r="3.51"/><path class="cls-11" d="M105,258.47s9.12,7,16.17,1.67C121.18,260.14,109.26,261.22,105,258.47Z" transform="translate(0.5)"/><path class="cls-11" d="M151.2,260.35s9.12,7,16.18,1.66C167.38,262,155.45,263.1,151.2,260.35Z" transform="translate(0.5)"/><path class="cls-11" d="M156.68,192.52a21.59,21.59,0,0,1-3.32,11.56,33.34,33.34,0,0,0-4.92-17.26c-3-4.67-12.26-12.82-18.59-10.55a4.47,4.47,0,0,0-2.77,3c-.63,2.39,1.21,3.4,2.39,5.28a16.24,16.24,0,0,1,2.21,10.91,15,15,0,0,1-.32,1.51c-1,3.75-3.29,8-.93,11.11,1.65,2.12,5.18,2.88,5.66,5.52a3.15,3.15,0,0,1,0,.75c-.11,1.79-1.63,3.37-2.3,5.12-.78,2.07-.34,4.13.47,6.2,1,2.71,2.74,5.45,3.14,8.32s-.47,5.52-1.5,8.21a36.53,36.53,0,0,0-2.51,7.73c-.73,5,1.12,10.88-2.06,14.87a2.21,2.21,0,0,1-1.39.93c-2,.22-1.7-3.44-3.32-4.67a14.34,14.34,0,0,1-.43,6.33c-.76,2-2.78,3.68-4.88,3.34l-.73-4.77a13.72,13.72,0,0,1-5.06,3.17,36.91,36.91,0,0,1,5.28-14.27c-5.35,2.57-8.47,8.14-11.25,13.38-1.73,3.28-3.53,6.86-2.92,10.51.25,1.49.89,2.91,1,4.41s-.41,3.26-1.8,3.83a3.26,3.26,0,0,1-3.52-1.1l-.16-.18-.24-.34a5.07,5.07,0,0,1-.4-.72,13.62,13.62,0,0,1-.85-2.79l-.1-.43C99.22,275.2,98,268.8,99,262.52c.38-2.31,1.08-4.61,1-6.95a13.15,13.15,0,0,0-.8-3.87c-1.24-3.47-3.63-6.66-5-10.16a.19.19,0,0,1,0-.08c-.72-1.85-1.07-4.16.25-5.65a11,11,0,0,1,2.55-1.7c2.64-1.72,3.82-5,4.31-8.1a27.56,27.56,0,0,0,.33-4.25c3.58-1.28,8.36-3.11,8.89-2.82.74.4,8.19-.3,8.49-.33a11.14,11.14,0,0,0,5.22-6,8.16,8.16,0,0,0,.24-.79,21.86,21.86,0,1,1,32.24-19.24Z" transform="translate(0.5)"/><path class="cls-14" d="M131.36,196c-1,3.75-3.29,8-.92,11.11,1.64,2.13,5.17,2.88,5.65,5.52.37,2.13-1.5,3.88-2.26,5.87-1.8,4.77,2.9,9.46,3.61,14.51.78,5.48-3.21,10.47-4,16-.73,5,1.12,10.88-2.06,14.87a2.23,2.23,0,0,1-1.38.94c-2,.21-1.7-3.45-3.33-4.68a14.49,14.49,0,0,1-.42,6.33c-.77,2-2.78,3.68-4.89,3.34l-.73-4.77a13.81,13.81,0,0,1-5.05,3.17,36.83,36.83,0,0,1,5.27-14.27c-5.35,2.57-8.46,8.14-11.24,13.38-1.74,3.28-3.53,6.86-2.93,10.51.25,1.5.89,2.91,1,4.41s-.41,3.25-1.8,3.83a3.33,3.33,0,0,1-3.68-1.28,9.69,9.69,0,0,1-1.5-3.85c-1.45-6.34-2.8-12.88-1.75-19.3.39-2.31,1.08-4.61,1-7-.19-5.12-4-9.34-5.81-14.11-.72-1.86-1.07-4.17.25-5.66A11.3,11.3,0,0,1,97,233.21c2.64-1.73,3.82-5,4.31-8.11A28.1,28.1,0,0,0,101,215c-1.06-5-3.51-9.87-2.9-14.94s4-9.1,6.31-13.56a32.11,32.11,0,0,0,3.25-18.75c-.4-3-1.09-6.46.94-8.7,2.44-2.69,7.16-1.68,9.94-4,1.36-1.14,2-2.88,3-4.34a10.61,10.61,0,0,1,11.34-4c1.91.55,3.63,1.64,5.52,2.25,2.67.85,5.53.76,8.33,1.09s5.74,1.28,7.34,3.58c.85,1.22,1.24,2.71,2,4,1.68,2.72,4.88,4,7.3,6.11a14.16,14.16,0,0,1,4,15.12c-1.44,4-4.79,7.59-4.5,11.85.11,1.76.85,3.48.62,5.21-.67,4.84-7.69,5.81-10.12,10,.2-6.94-1.14-14.1-4.93-19.93-3-4.67-12.25-12.82-18.59-10.55a4.51,4.51,0,0,0-2.77,3c-.63,2.39,1.21,3.4,2.39,5.28A16.09,16.09,0,0,1,131.36,196Z" transform="translate(0.5)"/><g class="cls-16"><path d="M101.58,220.11a27.87,27.87,0,0,0-.61-6.5c-.9-4.25-2.8-8.4-3-12.67-.25,4.75,2,9.35,3,14A27.86,27.86,0,0,1,101.58,220.11Z" transform="translate(0.5)"/><path d="M119.67,254.58c.37-.68.75-1.35,1.17-2-5.35,2.57-8.47,8.15-11.25,13.39-1.61,3-3.26,6.32-3,9.7.2-2.9,1.62-5.72,3-8.34C112.17,262.48,115,257.36,119.67,254.58Z" transform="translate(0.5)"/><path d="M107.67,282.05a3.22,3.22,0,0,1-1.77,2.66,3.3,3.3,0,0,1-3.67-1.27,9.55,9.55,0,0,1-1.51-3.86A69.63,69.63,0,0,1,98.6,265.8c-.1,5.07,1,10.17,2.12,15.15a9.61,9.61,0,0,0,1.51,3.86,3.32,3.32,0,0,0,3.67,1.27c1.39-.57,1.94-2.32,1.8-3.82A.51.51,0,0,1,107.67,282.05Z" transform="translate(0.5)"/><path d="M131.85,191.47a15.29,15.29,0,0,1-.49,3.23c-.74,2.77-2.19,5.85-1.93,8.5.21-2.31,1.31-4.83,1.93-7.14A15.44,15.44,0,0,0,131.85,191.47Z" transform="translate(0.5)"/><path d="M107.89,171.2a32.58,32.58,0,0,0-.26-4.84c-.16-1.18-.36-2.44-.43-3.67a25.83,25.83,0,0,0,.43,5A31.34,31.34,0,0,1,107.89,171.2Z" transform="translate(0.5)"/><path d="M136.09,212.71a.15.15,0,0,0,0-.11c-.32,1.58-1.62,3-2.22,4.61a6.44,6.44,0,0,0-.38,3,6.4,6.4,0,0,1,.38-1.61C134.59,216.58,136.46,214.81,136.09,212.71Z" transform="translate(0.5)"/><path d="M100,253.34c-.19-5.13-4-9.35-5.82-14.12a9.84,9.84,0,0,1-.59-2.33,8,8,0,0,0,.59,3.7c1.82,4.71,5.5,8.85,5.8,13.86C100,254.08,100,253.71,100,253.34Z" transform="translate(0.5)"/><path d="M148.45,184.59c-3-4.67-12.25-12.83-18.59-10.55a4.48,4.48,0,0,0-2.78,3,3.21,3.21,0,0,0,0,1.6.85.85,0,0,1,0-.23,4.52,4.52,0,0,1,2.78-3c6.34-2.27,15.55,5.9,18.59,10.56,3.43,5.27,4.85,11.64,4.94,18C153.48,197.14,152.12,190.23,148.45,184.59Z" transform="translate(0.5)"/><path d="M163.49,194.47c-.67,4.82-7.65,5.8-10.1,10v1.39c2.42-4.25,9.45-5.2,10.11-10a5.7,5.7,0,0,0,0-1.43S163.49,194.44,163.49,194.47Z" transform="translate(0.5)"/><path d="M167.37,177.4c-1.44,4-4.79,7.59-4.5,11.86v.18c.31-3.76,3.17-7,4.48-10.67a13.29,13.29,0,0,0,.74-5.2A13.11,13.11,0,0,1,167.37,177.4Z" transform="translate(0.5)"/><path d="M131.37,262.53a2.15,2.15,0,0,1-1.38.94c-2,.22-1.7-3.44-3.33-4.67,0,.49.08,1,.11,1.46,1.51,1.31,1.23,4.79,3.22,4.58a2.2,2.2,0,0,0,1.38-.94c1.82-2.28,2-5.15,1.95-8.14C133.27,258.25,132.91,260.62,131.37,262.53Z" transform="translate(0.5)"/><path d="M126.23,265.13c-.77,2-2.78,3.68-4.89,3.34-.24-1.58-.48-3.18-.72-4.77a13.83,13.83,0,0,1-4.8,3.07c-.1.48-.19,1-.26,1.46a13.78,13.78,0,0,0,5.06-3.16l.72,4.77c2.13.33,4.12-1.35,4.89-3.34a10.94,10.94,0,0,0,.56-4.32A9,9,0,0,1,126.23,265.13Z" transform="translate(0.5)"/><path d="M133.43,247.66a25.08,25.08,0,0,0-.18,3.87,21,21,0,0,1,.18-2.5c.77-5.22,4.42-10,4.09-15.17C137.23,238.54,134.13,242.91,133.43,247.66Z" transform="translate(0.5)"/></g><polygon class="cls-17" points="323.66 353.8 322.19 368.44 271.77 388.93 254.72 372.9 253.47 357.83 301.56 343.78 323.66 353.8"/><polygon class="cls-11" points="271.77 388.93 254.72 372.9 253.47 357.83 271.33 372.39 271.77 388.93"/><polygon class="cls-18" points="323.66 353.8 322.19 368.44 271.77 388.93 271.33 372.39 323.66 353.8"/><polygon class="cls-19" points="254.9 358.96 301.88 345.64 321.35 354.64 271.29 372.36 254.9 358.96"/><path class="cls-20" d="M309.73,337.78l-.58.06L294,339.36a3.16,3.16,0,0,0-1.91.92l-8.27,8.51L265.24,367.9l5.51,4.49L284,367.67l5.8-2.06,16.29-19.5,5.14-6.15A2.11,2.11,0,0,0,309.73,337.78Zm-15.49,9.45c-.7.4-1.46.39-1.71,0a.93.93,0,0,1,.27-1,2.06,2.06,0,0,1,.56-.46,1.55,1.55,0,0,1,1.54-.16.73.73,0,0,1,.17.18C295.31,346.15,294.94,346.82,294.24,347.23Z" transform="translate(0.5)"/><path class="cls-11" d="M309.73,337.78l-.58.06c.71.74.34,1,.34,1l-5.56,6.31L284,367.67l5.8-2.06,16.29-19.5,5.14-6.15A2.11,2.11,0,0,0,309.73,337.78Z" transform="translate(0.5)"/><path class="cls-21" d="M178.35,296.22l6.66-7.8a29.68,29.68,0,0,1,23.31-10.54c6.69.19,14.47,2.7,22.23,10.25l7.57-15.2,11.23,41.6-42.27-4.11,12.8-9.5S206,283.69,178.35,296.22Z" transform="translate(0.5)"/><path class="cls-22" d="M300.93,334.31l6.73-7.88a30,30,0,0,0,6.84-24.94c-1.24-6.64-5-14-13.75-20.56l14-10-43.3-4.64,10.78,41.55,7.47-14.28S309.06,304.69,300.93,334.31Z" transform="translate(0.5)"/><ellipse class="cls-6" cx="876.21" cy="375.58" rx="169.76" ry="29.65"/></g><g id="Layer_3" data-name="Layer 3"><path class="cls-23" d="M626.05,33.26c6-8.12,14.34-13.19,151.51-18,61.22-2.15,87-2.11,121,2.53,41,5.59,61.52,8.39,80.67,18.49,14.92,7.85,53.09,33.77,84,195.79,19.32,101.2,36.13,189.16,1.68,208.41-22.28,12.44-39.74-18.55-118.5-24.73-45.75-3.6-91.58-.48-91.58-.48-12.8.86-35.08,2.81-65.38-.14-7.52-.74-18.65-1.83-28.74-4.06-29.52-6.56-84.39-30.58-87.4-65.55-2.36-27.43,28.24-55.84,62-89.71l1.89-1.89c9.44-9.38,16.71-15.49,16.27-24.38-1.15-22.87-54.06-22.17-86.85-55.45C627.61,134.44,602.3,65.72,626.05,33.26Z" transform="translate(0.5)"/><line class="cls-24" x1="919.99" y1="386.18" x2="886.67" y2="335.9"/><line class="cls-24" x1="934.44" y1="386.18" x2="901.12" y2="335.9"/><line class="cls-24" x1="828.07" y1="386.18" x2="861.39" y2="335.9"/><path class="cls-25" d="M904.17,230h49.26L920.35,337.48H836.42v-3.83h62.24Z" transform="translate(0.5)"/><rect class="cls-26" x="725.08" y="270.49" width="217.02" height="6.28"/><line class="cls-27" x1="930.44" y1="370.45" x2="930.44" y2="275.02"/><line class="cls-27" x1="750.13" y1="370.45" x2="750.13" y2="275.02"/><line class="cls-27" x1="915.2" y1="389.57" x2="915.2" y2="275.02"/><line class="cls-27" x1="734.02" y1="389.57" x2="734.02" y2="275.02"/><line class="cls-24" x1="842.9" y1="386.18" x2="876.21" y2="335.9"/><rect class="cls-14" x="804.72" y="269.34" width="36.03" height="1.15"/><rect class="cls-14" x="764.75" y="194.12" width="78.67" height="51.23"/><polygon class="cls-14" points="793.03 235.72 782.18 270.5 801.2 270.5 811.74 235.72 793.03 235.72"/><path class="cls-28" d="M976,180.27l-2.7,18-30.83,20.86s-16.22,7.76-15.2,12.59c.91,4.3,13.43,3.79,17.36-2.86l36.87-16.76,12.33-24.41Z" transform="translate(0.5)"/><polygon class="cls-28" points="976.66 361.29 978.03 380.39 991.22 379.48 988.94 361.29 976.66 361.29"/><path class="cls-29" d="M979.8,374.48s-1.82-6.82-3.64-6.37l-2.73,5s-12.28,11.37-15.91,11.83c0,0-11.83,3.64,0,9.09h13.64s9.09-.45,10.91,0,12.28.46,12.74-2.27-1.37-8.19-1.37-8.19-1.67-13.41-3.56-10.8a36.5,36.5,0,0,1-3.26,4Z" transform="translate(0.5)"/><polygon class="cls-28" points="1010.77 361.52 1012.14 380.62 1025.32 379.71 1023.05 361.52 1010.77 361.52"/><path class="cls-29" d="M1013.91,374.71s-1.82-6.83-3.64-6.37l-2.73,5s-12.28,11.37-15.92,11.82c0,0-11.82,3.64,0,9.1h13.65s9.09-.91,10.91-.45,12.28.45,12.73-2.28-1.36-7.73-1.36-7.73-1.68-13.42-3.57-10.8a35.28,35.28,0,0,1-3.25,4Z" transform="translate(0.5)"/><path class="cls-30" d="M958.43,244.19l-2.28,3.18v6.37l14.55,54.11,2.73,11.83s0,45.48,2.73,45.48,15,1.36,15-1.37-.91-64.58-.91-64.58l12.28,23.2s5.46,40.93,7.27,41.38,14.56,0,15.47-2.73l-2.73-25.92s.45-29.1-7.28-35.47c0,0-1.36-7.73-2.73-10.92s-3.63-5-2.27-7.27-1.82-27.29-1.82-27.29.91-7.73-.91-10S958.43,244.19,958.43,244.19Z" transform="translate(0.5)"/><circle class="cls-28" cx="988.03" cy="126.86" r="14.1"/><path class="cls-28" d="M996.4,135.27l-.91,9.1,3.64,3.18-23.2,10.91c5.72-9.76,7.41-18.64,4.55-25Z" transform="translate(0.5)"/><path class="cls-13" d="M980.48,148.91s-3.64,7.28.91,5.46l14.1-10s15.46,5.91,20.92,12.73l-4.55,48.21-3.64,34.1s2.28,4.1,1.82,4.55-.91-.45-.45.91,1.82,0,.45,1.36-2.73,0-1.36,1.37,0,1.82,0,1.82-1.82-10.92-17.74-2.73-22.74,10.46-34.56.45L970,195.3l1.1-19.55a80.27,80.27,0,0,1,3.47-19.25c1-3.37,2.86-6.69,5.89-8.5Z" transform="translate(0.5)"/><path class="cls-28" d="M1004.81,188.71l6.82,16.82-15.91,33.66s-3.64,4.09-1.37,9.09a60.76,60.76,0,0,0,4.1,7.73s4.09-1.82,4.09-9.55l23.19-33.2L1023.91,186Z" transform="translate(0.5)"/><path class="cls-13" d="M1003.9,158.69a17.41,17.41,0,0,0-3.64,16.37c2.73,10,5,17.74,5,17.74s10.91-8.19,20-3.18c0,0-1.37-29.56-9.1-32.29S1003.9,158.69,1003.9,158.69Z" transform="translate(0.5)"/><path d="M999.12,114.76s-4.31-9.33-12.56-7.17-12.92,5.38-13.28,8.61a46,46,0,0,0,.18,8.08s.89-6.64,6.64-5.21,14.71.36,14.71.36l1.44,12.92s2.45-2.61,4.24-1.17S1004.86,117.64,999.12,114.76Z" transform="translate(0.5)"/><path class="cls-14" d="M927.8,216.18h0l8.4-1.94a1.84,1.84,0,0,1,2.06,1l8.6,17.83a1.48,1.48,0,0,1-.69,2l-.24.1-8.53,2.42a2,2,0,0,1-2.33-1.11l-5.49-12.74-.17.09-1-2.41.17-.09L927,217.73a1.13,1.13,0,0,1,.59-1.48Z" transform="translate(0.5)"/><path class="cls-31" d="M935.18,214.9l1-.23a1.27,1.27,0,0,1,1.43.7l8.4,17.71a.8.8,0,0,1-.38,1l-.11,0L937,236.72a1,1,0,0,1-1.22-.57l-7.94-18.48a.89.89,0,0,1,.46-1.17l.15-.05.93-.21a.42.42,0,0,1,.47.21h0a.38.38,0,0,0,.41.19l4.41-1a.63.63,0,0,0,.48-.71Z" transform="translate(0.5)"/><path class="cls-21" d="M824.62,235.57V224.78a31.27,31.27,0,0,1,11.44-24.37c5.48-4.41,13.42-7.72,24.8-7l-4.34-17.33,37.42,25.6-36.63,25.6L861.05,211S838.21,206.62,824.62,235.57Z" transform="translate(0.5)"/><path class="cls-22" d="M937.85,200.91V190a31.55,31.55,0,0,0-11.56-24.62c-5.54-4.47-13.56-7.81-25.06-7.06l4.38-17.52L867.8,166.68l37,25.87L901,176S924.12,171.65,937.85,200.91Z" transform="translate(0.5)"/><path class="cls-23" d="M1011.18-50.32" transform="translate(0.5)"/><path class="cls-23" d="M761.6,513.55" transform="translate(0.5)"/><path class="cls-6" d="M1055.93,382.45c0,13.4-83.84,28.2-156.52,29.56-2.62.05-7.21.12-13.25.09-77.2-.37-169.76-15.55-169.76-29.65,0-16.38,76-29.65,169.76-29.65S1055.93,366.07,1055.93,382.45Z" transform="translate(0.5)"/><path class="cls-23" d="M1248.15,148" transform="translate(0.5)"/><path class="cls-23" d="M935.55,516.91" transform="translate(0.5)"/></g><g id="Layer_2" data-name="Layer 2"><path class="cls-32" d="M532.55,25.6h-.81V24.25h.61a.4.4,0,0,0,.41-.39V16.93a.4.4,0,0,0-.41-.39h-.61V12.6a8.67,8.67,0,0,0-8.92-8.39h-.91v-1a.39.39,0,0,0-.41-.38h-7.37a.4.4,0,0,0-.41.38v1H380.59a8.67,8.67,0,0,0-8.92,8.39h0V191.17a8.67,8.67,0,0,0,8.92,8.39H522.82a8.67,8.67,0,0,0,8.92-8.39h0V33.3h.81a.39.39,0,0,0,.41-.38V26a.39.39,0,0,0-.41-.38Z" transform="translate(0.5)"/><rect class="cls-3" x="379.54" y="9.7" width="146.56" height="183.02"/><path class="cls-32" d="M716.06,63.75h-.91V40.39c0-7.47-6.43-13.53-14.37-13.53h-52.6c-7.93,0-14.37,6.06-14.37,13.53h0V168.58c0,7.47,6.44,13.52,14.37,13.52h52.6c7.94,0,14.37-6,14.37-13.52h0V80.39h.91Z" transform="translate(0.5)"/><path class="cls-3" d="M712.09,41.18v128c0,5.58-4.8,10.1-10.73,10.1H648.51c-5.93,0-10.73-4.52-10.73-10.1v-128c0-5.58,4.8-10.1,10.73-10.1h6.41a4.71,4.71,0,0,0,2.8,6.26,5.44,5.44,0,0,0,1.92.35h30.13a5,5,0,0,0,5.1-4.8,4.72,4.72,0,0,0-.37-1.81h6.86C707.29,31.08,712.09,35.6,712.09,41.18Z" transform="translate(0.5)"/><rect class="cls-33" x="660.19" y="48.1" width="44.65" height="1.56"/><rect class="cls-33" x="660.19" y="53.05" width="44.65" height="1.56"/><rect class="cls-33" x="660.19" y="57.99" width="44.65" height="1.56"/><rect class="cls-33" x="646.03" y="49.07" width="10.12" height="9.52"/><rect class="cls-33" x="660.19" y="159.19" width="44.65" height="1.56"/><rect class="cls-33" x="660.19" y="164.13" width="44.65" height="1.56"/><rect class="cls-33" x="660.19" y="169.08" width="44.65" height="1.56"/><rect class="cls-33" x="646.03" y="160.15" width="10.12" height="9.52"/><path class="cls-32" d="M699.57,220.78h-127v-2.46H515v2.46H387.5a8.35,8.35,0,0,0-8.59,8.09h0V392.52a8.35,8.35,0,0,0,8.59,8.09H699.57a8.35,8.35,0,0,0,8.59-8.09V228.87A8.35,8.35,0,0,0,699.57,220.78Z" transform="translate(0.5)"/><rect class="cls-3" x="390.93" y="235.07" width="306.22" height="162.58"/><ellipse class="cls-31" cx="543.78" cy="227.68" rx="3.14" ry="2.96"/><path class="cls-32" d="M716.76,394.7H686.88v-2a.41.41,0,0,0-.43-.4H676.2a.41.41,0,0,0-.42.4h0v2h-6.41v-2a.41.41,0,0,0-.42-.4H658.7a.41.41,0,0,0-.43.4h0v2h-6.4v-2a.41.41,0,0,0-.43-.4H641.19a.41.41,0,0,0-.42.4h0v2h-6.41v-2a.41.41,0,0,0-.42-.4H623.69a.41.41,0,0,0-.43.4h0v2h-6.4v-2a.41.41,0,0,0-.43-.4H606.19a.41.41,0,0,0-.43.4h0v2h-6.4v-2a.42.42,0,0,0-.43-.4H588.68a.41.41,0,0,0-.42.4h0v2h-6.41v-2a.41.41,0,0,0-.43-.4H501.16a.42.42,0,0,0-.43.4h0v2h-6.4v-2a.41.41,0,0,0-.43-.4H483.66a.41.41,0,0,0-.43.4h0v2h-6.4v-2a.41.41,0,0,0-.43-.4H466.15a.41.41,0,0,0-.42.4h0v2h-6.41v-2a.41.41,0,0,0-.42-.4H448.65a.41.41,0,0,0-.43.4h0v2h-6.4v-2a.41.41,0,0,0-.43-.4H431.14a.41.41,0,0,0-.42.4h0v2h-6.41v-2a.41.41,0,0,0-.42-.4H413.64a.41.41,0,0,0-.43.4h0v2h-6.4v-2a.41.41,0,0,0-.43-.4H396.14a.41.41,0,0,0-.43.4h0v2H376.07c-5.66,0-10.25,4.31-10.25,9.64v4.36c0,5.33,4.59,9.64,10.25,9.64H716.76c5.66,0,10.25-4.31,10.25-9.64v-4.36c0-5.33-4.59-9.64-10.25-9.64Z" transform="translate(0.5)"/><rect class="cls-34" x="514.44" y="247.81" width="85.93" height="3.01"/><rect class="cls-34" x="514.44" y="257.32" width="85.93" height="3.01"/><rect class="cls-34" x="514.44" y="266.84" width="85.93" height="3.01"/><rect class="cls-33" x="514.44" y="247.81" width="85.93" height="3.01"/><rect class="cls-33" x="514.44" y="257.32" width="85.93" height="3.01"/><rect class="cls-33" x="514.44" y="266.84" width="85.93" height="3.01"/><rect class="cls-33" x="487.19" y="249.66" width="19.47" height="18.32"/><rect class="cls-33" x="514.44" y="354.88" width="85.93" height="3.01"/><rect class="cls-33" x="514.44" y="364.4" width="85.93" height="3.01"/><rect class="cls-33" x="514.44" y="373.92" width="85.93" height="3.01"/><rect class="cls-33" x="487.19" y="356.74" width="19.47" height="18.32"/><path class="cls-13" d="M751.82,198.55a54.55,54.55,0,0,0-31.77-15.77l5.23-4.45-5.78-.27-7.15,6.08,6.46,6.73,5.78.28-4.33-4.51c27,4.11,45.44,28.08,41.07,53.54-3.88,22.63-24.63,39.25-49,39.25v3.79c29.62,0,53.63-22.61,53.63-50.49A48.88,48.88,0,0,0,751.82,198.55Z" transform="translate(0.5)"/><path class="cls-13" d="M310.28,190.47A61.4,61.4,0,0,1,346,172.73l-5.87-5,6.5-.3,8,6.84-7.27,7.57-6.5.31,4.87-5.07c-30.42,4.62-51.1,31.58-46.19,60.21,4.37,25.44,27.71,44.15,55.09,44.14v4.26c-33.32,0-60.32-25.42-60.32-56.78A55,55,0,0,1,310.28,190.47Z" transform="translate(0.5)"/><rect class="cls-33" x="423.48" y="18.76" width="85.93" height="3.01"/><rect class="cls-33" x="423.48" y="28.28" width="85.93" height="3.01"/><rect class="cls-33" x="423.48" y="37.79" width="85.93" height="3.01"/><rect class="cls-33" x="396.23" y="20.62" width="19.47" height="18.32"/><rect class="cls-33" x="423.18" y="161.34" width="85.93" height="3.01"/><rect class="cls-33" x="423.18" y="170.86" width="85.93" height="3.01"/><rect class="cls-33" x="423.18" y="180.37" width="85.93" height="3.01"/><rect class="cls-33" x="395.93" y="163.2" width="19.47" height="18.32"/><ellipse class="cls-13" cx="417.75" cy="102.52" rx="14.52" ry="13.66"/><ellipse class="cls-13" cx="456.47" cy="102.52" rx="11.86" ry="11.17"/><ellipse class="cls-13" cx="495.19" cy="102.52" rx="7.22" ry="6.79"/><ellipse class="cls-13" cx="656.92" cy="104.23" rx="7.63" ry="7.18"/><ellipse class="cls-13" cx="677.26" cy="104.23" rx="6.06" ry="5.71"/><ellipse class="cls-13" cx="697.6" cy="104.23" rx="3.98" ry="3.74"/><ellipse class="cls-13" cx="544.48" cy="310.95" rx="34.07" ry="32.07"/><polygon class="cls-35" points="556.45 318 543.74 293.85 531.1 318.03 538.24 318.02 538.24 328.06 549.3 328.06 549.3 318.01 556.45 318"/></g></svg>