<svg xmlns="http://www.w3.org/2000/svg" viewBox="0 0 358.91 244.33"><defs><style>.cls-1{fill:#4d4d4d;}.cls-2{fill:#3daee9;}.cls-3{fill:#3dae99;}.cls-13,.cls-4,.cls-5{opacity:0.1;}.cls-13,.cls-15,.cls-16,.cls-4,.cls-5{isolation:isolate;}.cls-16,.cls-5{fill:#fff;}.cls-6{fill:#192534;}.cls-7{fill:#3f3d56;}.cls-8{fill:#31363b;}.cls-9{fill:#fbbebe;}.cls-10{fill:#2ecc71;}.cls-11{fill:#da4453;}.cls-12{fill:none;stroke:#000;stroke-miterlimit:10;}.cls-13{fill:#6c63ff;}.cls-14{fill:#535461;}.cls-15{opacity:0.2;}.cls-16{opacity:0.3;}</style></defs><title>junior_jobs</title><g id="Layer_3" data-name="Layer 3"><rect class="cls-1" x="64.54" y="11.76" width="33.42" height="2.78"/><rect class="cls-1" x="109.1" y="11.76" width="33.42" height="2.78"/><rect class="cls-1" x="173.85" y="37.52" width="33.42" height="2.78"/><rect class="cls-1" x="219.1" y="37.52" width="33.42" height="2.78"/><rect class="cls-1" x="154.35" y="11.76" width="98.16" height="2.78"/><rect class="cls-1" x="64.54" y="37.52" width="98.16" height="2.78"/><rect class="cls-1" x="64.54" y="63.28" width="98.16" height="2.78"/><rect class="cls-1" x="184.29" y="63.28" width="68.23" height="2.78"/><polygon class="cls-2" points="55.15 23.51 43.4 11.76 55.15 0 57.51 2.35 48.1 11.76 57.51 21.16 55.15 23.51"/><polygon class="cls-2" points="284.19 77.82 281.84 75.47 291.24 66.06 281.84 56.66 284.19 54.3 295.95 66.06 284.19 77.82"/><rect class="cls-3" x="275.63" y="100.65" width="24.01" height="3.33" transform="translate(88.59 311.31) rotate(-73.14)"/></g><g id="Layer_1" data-name="Layer 1"><ellipse class="cls-4" cx="179.45" cy="207.66" rx="179.45" ry="32.64"/><path class="cls-5" d="M305.63,242.89v.69l-.85.33-1.75-.33s-.38-2.81,1.06-3.61A6.28,6.28,0,0,1,305.63,242.89Z" transform="translate(-17.71 -36.6)"/><rect class="cls-6" x="170.21" y="158.37" width="18.35" height="18.35" rx="9.17"/><path class="cls-7" d="M192.29,227.75a17.64,17.64,0,0,0,3.36-3.55,16.16,16.16,0,0,0,1.74-4.13q1.94-6.13,3.32-12.42c-5.05-.77-8.82-5.23-13.75-6.54-.12,0-3.9,22.66-4.17,24.73-.23,1.71-2.19,9.89,0,9.94,1.19,0,3.68-2.95,4.56-3.74Z" transform="translate(-17.71 -36.6)"/><path class="cls-4" d="M192.29,227.75a17.64,17.64,0,0,0,3.36-3.55,16.16,16.16,0,0,0,1.74-4.13q1.94-6.13,3.32-12.42c-5.05-.77-8.82-5.23-13.75-6.54-.12,0-3.9,22.66-4.17,24.73-.23,1.71-2.19,9.89,0,9.94,1.19,0,3.68-2.95,4.56-3.74Z" transform="translate(-17.71 -36.6)"/><path class="cls-8" d="M129.89,170.5a3.8,3.8,0,0,0-1.61.45c-.65.46-.82,1.32-1.13,2.06a5,5,0,0,1-2,2.29c-.75.46-1.66.77-2.11,1.53a3.22,3.22,0,0,0-.35,1.64,31.33,31.33,0,0,0,.22,5A7.32,7.32,0,0,1,123,186a7,7,0,0,1-1.38,2.58c-1.37,1.9-2.72,4-2.83,6.35a17.29,17.29,0,0,1-.1,3.53c-.52,2-2.68,3.36-3.1,5.41a9.9,9.9,0,0,1-.32,1.82c-.42,1-1.56,1.52-1.85,2.54a7.49,7.49,0,0,0,.13,2.35,6.37,6.37,0,0,1-1.16,3.23l-3.42,5.8a14.88,14.88,0,0,0-2.43,6,13.58,13.58,0,0,0,1.09,5.67c1.47,4.05,3.65,8.35,7.67,9.9,2.36.92,5,.73,7.53.52a53.93,53.93,0,0,0,10.29-1.53c1.66-.47,3.28-1.1,5-1.43a26.58,26.58,0,0,0,3.33-.69,6.88,6.88,0,0,0,4.48-5.41c1.43.57,2.75-1.31,2.55-2.83s-1.23-2.82-1.64-4.29a8.45,8.45,0,0,1,1-6.13c1-1.87,2.35-3.53,3.42-5.36a20.6,20.6,0,0,0,2.45-6.61,40.83,40.83,0,0,0,.23-9.57l-.68-12.21a17,17,0,0,0-1.25-6.56,15.69,15.69,0,0,0-5-5.28,84,84,0,0,0-9.11-6c-2-1.14-1.89-.7-3.52.66A9,9,0,0,1,129.89,170.5Z" transform="translate(-17.71 -36.6)"/><path class="cls-8" d="M157.47,204.45a34.57,34.57,0,0,0-6.45,6,17.48,17.48,0,0,0-3.51,9.9,31,31,0,0,0,.35,5c.35,2.71,1,5.73,3.27,7.22,1.43.94,3.41,1.18,4.39,2.59a12.6,12.6,0,0,0,.85,1.37,3.73,3.73,0,0,0,2.62.92,24,24,0,0,0,4.24-.13,15.65,15.65,0,0,1,4.82-.24c3.09.58,5.4,3.49,8.53,3.88,2.6.33,5-1.18,7.22-2.62s4.59-3.08,5.81-5.48,1.11-5.09,1-7.71a36.93,36.93,0,0,0-1-8.66,16.08,16.08,0,0,1-.56-2.25c-.23-2,.66-3.91,1.32-5.79,1-2.87,1.46-6.4-.56-8.66a7.64,7.64,0,0,0-3.26-2c-5.33-1.91-11.22-1.19-16.68-.33C164.69,198.34,161.56,201.22,157.47,204.45Z" transform="translate(-17.71 -36.6)"/><path class="cls-9" d="M202.68,193.11a64.86,64.86,0,0,0-5.76,9.84,64.1,64.1,0,0,0-2.63,7.74c-2.1,7.28-4.19,14.72-8.4,21a6.24,6.24,0,0,0-1.33,2.94,5.72,5.72,0,0,0,.89,2.87,21.55,21.55,0,0,0,8.2,9.66c3.51,2.63,7.42,5.41,11.81,5.21a3.47,3.47,0,0,0,2.49-.93,3.09,3.09,0,0,0,.58-2.49c-.33-2.7-2.36-4.82-4.21-6.82s-3.69-4.34-3.55-7.07c.12-2.25,1.59-4.18,3-5.94,1.62-2,3.24-4,4.76-6.1,6.6-9,11.36-19.25,15.14-29.76,1.59-4.43,3-9.09,2.54-13.78-3.61-.88-10.82-3.84-13.87-.79-1.85,1.85-3.15,4.6-4.59,6.78Z" transform="translate(-17.71 -36.6)"/><path class="cls-10" d="M233.15,162.31A55.91,55.91,0,0,0,227.82,175a6.72,6.72,0,0,0-.34,3.28,11.22,11.22,0,0,0,1.64,3.14,3.66,3.66,0,0,1,.47,3.38,22.12,22.12,0,0,1-7.57-1.19l-7.75-2.17a4,4,0,0,1-1.76-.81c-.9-.85-.83-2.28-.65-3.5,1.51-10,6.39-19.21,8.22-29.14.27-1.44.55-3,1.69-3.94,3.28-2.59,10.71-.4,12.4,3.36C236.07,151.54,235.3,158.56,233.15,162.31Z" transform="translate(-17.71 -36.6)"/><path class="cls-9" d="M191.63,128.15c-.29.16-.62.33-.71.64a1.14,1.14,0,0,0,.31.93l3.31,4.66a147.14,147.14,0,0,0,10.31,13.4,72.31,72.31,0,0,0,9.33,8.68,7.11,7.11,0,0,1,2.42,2.61,25.09,25.09,0,0,1,1-18.63c1.08-2.29,2.51-4.42,3.64-6.71a1,1,0,0,0-.11-1.34.93.93,0,0,0-.41-.2c-2.87-1.48-6-2.37-8.86-3.87a48.59,48.59,0,0,1-6.28-4.23c-1.79-1.35-4.18-3.73-6.39-4.3-2.4-.62-2.3,1.56-3.07,3.38A10,10,0,0,1,191.63,128.15Z" transform="translate(-17.71 -36.6)"/><path class="cls-4" d="M191.63,128.15c-.29.16-.62.33-.71.64a1.14,1.14,0,0,0,.31.93l3.31,4.66a147.14,147.14,0,0,0,10.31,13.4,72.31,72.31,0,0,0,9.33,8.68,7.11,7.11,0,0,1,2.42,2.61,25.09,25.09,0,0,1,1-18.63c1.08-2.29,2.51-4.42,3.64-6.71a1,1,0,0,0-.11-1.34.93.93,0,0,0-.41-.2c-2.87-1.48-6-2.37-8.86-3.87a48.59,48.59,0,0,1-6.28-4.23c-1.79-1.35-4.18-3.73-6.39-4.3-2.4-.62-2.3,1.56-3.07,3.38A10,10,0,0,1,191.63,128.15Z" transform="translate(-17.71 -36.6)"/><path class="cls-10" d="M211.93,146.72c-1.5-1.69-3.53-2.81-5.3-4.22a37.74,37.74,0,0,1-6.52-7.23c-3.57-4.8-7.18-10.68-5.4-16.4-1.89-.19-3.53,1.37-4.42,3s-1.35,3.59-2.46,5.13c-1.69,2.34-4.57,3.43-7.24,4.5a118,118,0,0,0-17,8.44,24.24,24.24,0,0,0-6,4.65c-1.79,2.05-2.91,4.59-4.42,6.84a25.89,25.89,0,0,1-12.42,9.61,23.11,23.11,0,0,0-4.87,2.1c-3.14,2.12-4.45,6.35-3.71,10.07a15.66,15.66,0,0,0,6.33,9.14,40.13,40.13,0,0,0,10,4.9q4.42,1.62,8.9,3.09a52.14,52.14,0,0,0,6.72,1.83c4.2.77,8.51.58,12.75,1,3.88.42,7.69,1.4,11.58,1.68s8-.25,11.19-2.52c2.53-1.8,4.21-4.52,5.76-7.21a195.05,195.05,0,0,0,10.77-21.55c.93-2.18,9.55-14.58,7.4-16.18-10.8-8.06-7.22,4.75-8.25,3.76C214,149.93,213.17,148.13,211.93,146.72Z" transform="translate(-17.71 -36.6)"/><path class="cls-11" d="M198.55,139.31a99.61,99.61,0,0,1-5.45-14.63,7,7,0,0,1-.4-4.23c.56-1.64,2.34-3,1.82-4.69-4.18,1.32-9,3.37-9.84,7.67a10.35,10.35,0,0,1-.59,2.79c-.85,1.66-3,2-4.85,2.3-5.36.85-10.68,3-14.35,7a10.75,10.75,0,0,1-2,1.9,8.66,8.66,0,0,1-1.76.78c-3.59,1.29-7.28,2.9-9.59,5.93-1.19,1.57-2,3.44-3.28,4.89-1.8,2-4.45,2.95-6.4,4.79a17,17,0,0,0-3.11,4.33c-3.33,6-5.78,13.09-4,19.74.92,3.48,3,6.58,4,10,1.5,4.67,1.36,10,4.18,14a17.38,17.38,0,0,0,7.36,5.46,39.61,39.61,0,0,0,20,3.22q3.81-.45,7.55-1.27c5.94-1.23,12-2.57,17.36-5.34,9.21-4.74,15.84-13.2,22.18-21.4a29.46,29.46,0,0,0,3.28-4.92,37.15,37.15,0,0,0,1.92-5.36c1.92-6.1,4.62-12.18,4.36-18.57a5.48,5.48,0,0,0-.44-2.23c-.26-.53-.66-1-.88-1.51-.4-.95-.22-2-.5-3-.79-2.75-4.41-3.28-7.28-3.26L217,159.89c-.14,2.42-.4,5.12-2.2,6.74a4.8,4.8,0,0,1-5.66.45c-1.93-1.25-2.2-3.44-2.19-5.52a22.49,22.49,0,0,0-1-7.55C204.19,148.79,201,144.21,198.55,139.31Z" transform="translate(-17.71 -36.6)"/><path class="cls-9" d="M199.69,185.39c11.42,5.79,22.91,11.62,33.13,19.33,2.37,1.78,4.66,3.66,7.16,5.25,7.15,4.55,16,6.76,21.55,13.19a37.36,37.36,0,0,0,3.49,4,14.89,14.89,0,0,0,3.85,2.3A34,34,0,0,0,283,232.38a8.79,8.79,0,0,0,3.71-.66c3.08-1.49,3.78-5.48,4.09-8.88.1-1.15.12-2.51-.78-3.22a3.57,3.57,0,0,0-1.75-.58c-10-1.58-19.18-6.38-27.52-12.08s-16-12.37-24.2-18.24c-2.89-2.06-5.85-4-8.8-6l-9.58-6.36c-5.07-3.36-10.4-6.83-16.45-7.46a2.12,2.12,0,0,0-1,.07,2.42,2.42,0,0,0-1.09,1.26,91.67,91.67,0,0,1-6.11,9.8c-1.16,1.71-1.29,2.16.71,3.07C196,183.94,197.89,184.47,199.69,185.39Z" transform="translate(-17.71 -36.6)"/><path d="M222.13,280.93a.49.49,0,1,0-.49-.49A.49.49,0,0,0,222.13,280.93Z" transform="translate(-17.71 -36.6)"/><circle class="cls-9" cx="208.01" cy="82.32" r="31.38"/><path class="cls-6" d="M201.06,131.16c.56-2.82,3.79-4.25,6.66-4.44a16.52,16.52,0,0,1,14.73,7.5,22.93,22.93,0,0,0,1.33-5.46l5.25.39a3.71,3.71,0,0,0,1.75-.16,3.41,3.41,0,0,0,1.44-1.64c2.3-4.29,3.83-9.55,8.15-11.81v5.91a7.87,7.87,0,0,0,5.52-4.2,22.88,22.88,0,0,0,1.4,4.77c.11.25.25.53.52.6a.94.94,0,0,0,.71-.26,30.91,30.91,0,0,0,5.41-5.25l6.24,10.81a40.62,40.62,0,0,0-17.66-50.23,32,32,0,0,0-4.5-2.14,44.43,44.43,0,0,0-12.76-2.31c-6.15-.42-12.64-.41-18,2.54a34.48,34.48,0,0,0-7.64,6.27c-3.15,3.17-6.3,6.52-8,10.67a34.54,34.54,0,0,0-1.91,9,14,14,0,0,0,.12,5.56c.37,1.24,1.06,2.35,1.53,3.55a28.48,28.48,0,0,1,1.19,6.31,38.24,38.24,0,0,0,4.53,13.37,3.64,3.64,0,0,0,2.1,2c1,.22,2.16-.86,1.64-1.71" transform="translate(-17.71 -36.6)"/><path class="cls-12" d="M201.06,131.16c.56-2.82,3.79-4.25,6.66-4.44a16.52,16.52,0,0,1,14.73,7.5,22.93,22.93,0,0,0,1.33-5.46l5.25.39a3.71,3.71,0,0,0,1.75-.16,3.41,3.41,0,0,0,1.44-1.64c2.3-4.29,3.83-9.55,8.15-11.81v5.91a7.87,7.87,0,0,0,5.52-4.2,22.88,22.88,0,0,0,1.4,4.77c.11.25.25.53.52.6a.94.94,0,0,0,.71-.26,30.91,30.91,0,0,0,5.41-5.25l6.24,10.81a40.62,40.62,0,0,0-17.66-50.23,32,32,0,0,0-4.5-2.14,44.43,44.43,0,0,0-12.76-2.31c-6.15-.42-12.64-.41-18,2.54a34.48,34.48,0,0,0-7.64,6.27c-3.15,3.17-6.3,6.52-8,10.67a34.54,34.54,0,0,0-1.91,9,14,14,0,0,0,.12,5.56c.37,1.24,1.06,2.35,1.53,3.55a28.48,28.48,0,0,1,1.19,6.31,38.24,38.24,0,0,0,4.53,13.37,3.64,3.64,0,0,0,2.1,2c1,.22,2.16-.86,1.64-1.71" transform="translate(-17.71 -36.6)"/><path class="cls-10" d="M165,161.27c1.27,3.48,4.45,5.85,7.47,8l7.87,5.61c2.1,1.5,4.25,3.05,5.61,5.22a4.39,4.39,0,0,0-2.25,5.35,6.86,6.86,0,0,0,4.57,4.13,17.07,17.07,0,0,0,6.33.51c2.45-.13,5-.43,7-1.81l-4.43-2.73c-1.17-.73-2.51-1.88-2.08-3.19l4.67,0a2.24,2.24,0,0,0,1.42-.33,2.52,2.52,0,0,0,.69-1.22,10.36,10.36,0,0,1,8.73-6.59c1.16-.08,2.49,0,3.28-.89a3.75,3.75,0,0,0,.72-2.16,13.71,13.71,0,0,0,.06-4.38,4.71,4.71,0,0,0-2.46-3.44,11,11,0,0,0-3.2-.55c-4.95-.66-8.38-5.15-11-9.37s-5.51-8.91-10.24-10.49a16.79,16.79,0,0,0-4.56-.69,21.81,21.81,0,0,0-10,1.55C167.38,146.4,162.79,155.08,165,161.27Z" transform="translate(-17.71 -36.6)"/><path class="cls-4" d="M260.2,122.08,254,111.27a30.91,30.91,0,0,1-5.41,5.25.9.9,0,0,1-.71.26c-.27-.06-.41-.34-.52-.6a22.7,22.7,0,0,1-1.4-4.77,7.87,7.87,0,0,1-5.53,4.2V109.7c-4.31,2.27-5.83,7.53-8.14,11.81a3.46,3.46,0,0,1-1.44,1.64,3.59,3.59,0,0,1-1.75.16l-5.25-.39a22.81,22.81,0,0,1-1.33,5.46,16.52,16.52,0,0,0-14.73-7.49c-2.87.19-6.1,1.61-6.66,4.43l-.28-.31c.53.86-.66,1.94-1.64,1.72a3.7,3.7,0,0,1-2.1-2,38.26,38.26,0,0,1-4.51-13.38,28.48,28.48,0,0,0-1.19-6.31c-.47-1.21-1.16-2.32-1.53-3.55a.5.5,0,0,0,0-.13l-.09.74a14.15,14.15,0,0,0,.12,5.58c.37,1.23,1.06,2.35,1.53,3.55a28.37,28.37,0,0,1,1.19,6.31,37.94,37.94,0,0,0,4.51,13.37,3.69,3.69,0,0,0,2.1,2c1,.22,2.16-.86,1.64-1.72l.28.31c.56-2.82,3.79-4.24,6.66-4.43a16.49,16.49,0,0,1,14.73,7.49,22.81,22.81,0,0,0,1.33-5.46l5.25.39a3.59,3.59,0,0,0,1.75-.16,3.41,3.41,0,0,0,1.44-1.64c2.3-4.29,3.83-9.55,8.14-11.81v5.91a7.87,7.87,0,0,0,5.53-4.2,22.88,22.88,0,0,0,1.4,4.77c.11.25.25.54.52.6a.94.94,0,0,0,.71-.26,31.27,31.27,0,0,0,5.41-5.25l6.24,10.81a40.9,40.9,0,0,0,2.7-18.05A40.64,40.64,0,0,1,260.2,122.08Z" transform="translate(-17.71 -36.6)"/></g><g id="Layer_2" data-name="Layer 2"><polygon class="cls-13" points="332.05 139.7 336.61 137.44 337.06 138.34 332.51 140.6 332.05 139.7"/><rect class="cls-13" x="276.36" y="135.25" width="5.1" height="1.01"/><rect class="cls-13" x="284" y="135.25" width="5.1" height="1.01"/><rect class="cls-13" x="291.65" y="135.25" width="5.1" height="1.01"/><rect class="cls-13" x="299.3" y="135.25" width="5.1" height="1.01"/><rect class="cls-13" x="306.94" y="135.25" width="5.1" height="1.01"/><rect class="cls-13" x="314.59" y="135.25" width="5.1" height="1.01"/><path class="cls-14" d="M242,235.91l57.53-5.85.71,11.21L274,243.85a17.19,17.19,0,0,1-5.4-.41L242,236.64a.36.36,0,0,1-.27-.45A.37.37,0,0,1,242,235.91Z" transform="translate(-17.71 -36.6)"/><path class="cls-15" d="M242,235.91l57.53-5.85.71,11.21L274,243.85a17.19,17.19,0,0,1-5.4-.41L242,236.64a.36.36,0,0,1-.27-.45A.37.37,0,0,1,242,235.91Z" transform="translate(-17.71 -36.6)"/><path class="cls-14" d="M242,235.68l58-5.85.71,11.21-26.29,2.11a17.56,17.56,0,0,1-5.41-.41L242,236.41a.37.37,0,0,1-.28-.45A.37.37,0,0,1,242,235.68Z" transform="translate(-17.71 -36.6)"/><path class="cls-16" d="M255.8,236.09l30.66-3.1.38,5.93L272.93,240a9.49,9.49,0,0,1-2.86-.22l-14.3-3.35a.19.19,0,0,1-.14-.24A.18.18,0,0,1,255.8,236.09Z" transform="translate(-17.71 -36.6)"/><path class="cls-14" d="M288.32,172.7l59.42-.89a5.75,5.75,0,0,1,5.18,6.28.41.41,0,0,0,0,.11l-6.75,55.52a5.76,5.76,0,0,1-5.4,5L280,242.48a5.77,5.77,0,0,1-6.13-5.38,5.83,5.83,0,0,1,.05-1.18L282,177.58A5.79,5.79,0,0,1,288.32,172.7Z" transform="translate(-17.71 -36.6)"/><path class="cls-15" d="M288.32,172.7l59.42-.89a5.75,5.75,0,0,1,5.18,6.28.41.41,0,0,0,0,.11l-6.75,55.52a5.76,5.76,0,0,1-5.4,5L280,242.48a5.77,5.77,0,0,1-6.13-5.38,5.83,5.83,0,0,1,.05-1.18L282,177.58A5.79,5.79,0,0,1,288.32,172.7Z" transform="translate(-17.71 -36.6)"/><path class="cls-14" d="M288.79,172.7l59.42-.89a5.74,5.74,0,0,1,5.19,6.28s0,.07,0,.11l-6.74,55.52a5.78,5.78,0,0,1-5.41,5l-60.74,3.72a5.78,5.78,0,0,1-6.14-5.38,6.66,6.66,0,0,1,.05-1.18l8.07-58.34A5.79,5.79,0,0,1,288.79,172.7Z" transform="translate(-17.71 -36.6)"/><ellipse class="cls-16" cx="300.15" cy="167.66" rx="2.83" ry="2.8"/><ellipse class="cls-4" cx="220.54" cy="189.99" rx="0.71" ry="0.7"/><path class="cls-4" d="M238.89,228.61c-.27.34-.56.66-.86,1a.69.69,0,0,1-.45-.89.71.71,0,0,1,.89-.44A.69.69,0,0,1,238.89,228.61Z" transform="translate(-17.71 -36.6)"/><circle class="cls-15" cx="248.81" cy="206.08" r="0.35"/></g></svg>