<?xml version="1.0" encoding="utf-8"?>
<!-- Generator: Adobe Illustrator 24.0.1, SVG Export Plug-In . SVG Version: 6.00 Build 0)  -->
<svg version="1.1" id="Layer_1" xmlns="http://www.w3.org/2000/svg" xmlns:xlink="http://www.w3.org/1999/xlink" x="0px" y="0px"
	 viewBox="0 0 227 153.3" style="enable-background:new 0 0 227 153.3;" xml:space="preserve">
<style type="text/css">
	.st0{fill:#D4D4D4;}
	.st1{fill:#F5F5F5;}
	.st2{fill:#CFCFCF;}
	.st3{fill:#CBCBCB;}
	.st4{fill:#FFFFFF;}
	.st5{fill:#E6F4FF;}
	.st6{fill:#B3C9E8;}
	.st7{fill:none;stroke:#000000;stroke-width:4;stroke-linecap:round;stroke-miterlimit:10;}
</style>
<title>Asset 80</title>
<g>
	<path class="st0" d="M189.6,99.5h-9c0,0.5,0,1,0,1.5c0,19.1-15.5,34.7-34.7,34.7H92.5l60.7,16.9c1.9,0.5,3.8,0.8,5.6,0.8
		c9.1,0,17.5-6.1,20.1-15.3L189.6,99.5 M64.4,11.4c-9.1,0-17.5,6.1-20.1,15.3l-11,39.7c0.5,0,0.9,0,1.4,0h6.2c0-0.5,0-1,0-1.6
		c0-19.1,15.5-34.6,34.6-34.6h59.3L70,12.2C68.2,11.7,66.3,11.4,64.4,11.4"/>
	<path class="st1" d="M192.3,30.2h-57.6l48.7,13.6c11.1,3.1,17.6,14.6,14.5,25.7l-8.4,30h2.7c19.1,0,34.7-15.5,34.7-34.6
		C227,45.7,211.5,30.2,192.3,30.2"/>
	<path class="st2" d="M134.7,30.2H75.4c-19.1,0-34.6,15.5-34.6,34.6c0,0.5,0,1,0,1.6H146c18.6,0,33.8,14.7,34.6,33.1h9l8.4-30
		c3.1-11.1-3.4-22.6-14.5-25.7L134.7,30.2"/>
	<path class="st1" d="M33.3,66.4C14.8,67.1,0,82.3,0,101c0,19.1,15.5,34.7,34.6,34.7h57.8L39.8,121c-11.1-3.1-17.6-14.6-14.5-25.7
		L33.3,66.4"/>
	<path class="st2" d="M40.8,66.4h-6.2c-0.5,0-0.9,0-1.4,0l-8,28.9c-3.1,11.1,3.4,22.6,14.5,25.7l52.7,14.7H146
		c19.1,0,34.7-15.5,34.7-34.7c0-0.5,0-1,0-1.5H75.4C56.8,99.5,41.6,84.8,40.8,66.4"/>
	<path class="st3" d="M146,66.4H40.8c0.8,18.4,16,33.1,34.6,33.1h105.2C179.8,81.1,164.6,66.4,146,66.4"/>
	<path class="st4" d="M186.4,38.7l0.1,5.7c0,0.3,0.4,0.6,0.7,0.5c0.3,0,0.5-0.3,0.5-0.5l-0.1-5.7c0-0.3-0.4-0.6-0.7-0.5
		C186.7,38.2,186.5,38.4,186.4,38.7z"/>
	<path class="st4" d="M182.4,28.6h4.7l-0.6-0.6v4.3c0,0.3,0.4,0.6,0.7,0.5c0.3,0,0.5-0.3,0.5-0.5V28c0-0.3-0.3-0.6-0.6-0.6h-4.7
		c-0.3,0-0.6,0.4-0.5,0.7C181.9,28.4,182.2,28.6,182.4,28.6L182.4,28.6z"/>
	<path class="st5" d="M20.2,86.3l19.1-68.6C42.4,6.6,53.9,0.1,65,3.2l113.4,31.6c11.1,3.1,17.6,14.6,14.5,25.7L173.9,129
		c-3.1,11.1-14.6,17.6-25.7,14.5L34.8,112C23.6,108.9,17.1,97.4,20.2,86.3z"/>
	<path class="st6" d="M20.8,98.2l-1.2-2.7L80,68l0.5,1.5c0.1,0.2,7.4,20.7,21.9,24.2c8.2,2,17.3-1.8,27-11.1l2.1,2.2
		c-10.5,10.1-20.5,14-29.8,11.8c-13.8-3.3-21.4-19.5-23.5-24.6L20.8,98.2z"/>
	
		<rect x="148.8" y="78.5" transform="matrix(0.8013 -0.5982 0.5982 0.8013 -35.8945 111.7582)" class="st6" width="3" height="62.9"/>
	<path class="st4" d="M176.7,34.9L66.8,4.3C56.1,1.3,47.4,3.9,44.5,9l-1.6,4.1c1.6-5.6,11.6-6.2,22.4-3.2l109.9,30.6
		c10.8,3,18.2,10,16.7,15.5l1.6-5.6C195,44.9,187.5,37.9,176.7,34.9z"/>
	<path class="st7" d="M20.4,85.9l19.1-68.6C42.5,6.2,54-0.3,65.2,2.8l113.4,31.6c11.1,3.1,17.6,14.6,14.5,25.7L174,128.6
		c-3.1,11.1-14.6,17.6-25.7,14.5L34.9,111.6C23.8,108.5,17.3,97,20.4,85.9z"/>
	<line class="st7" x1="20.7" y1="94.1" x2="79.3" y2="67.2"/>
	<line class="st7" x1="132.9" y1="82.5" x2="170.7" y2="134.7"/>
	<path class="st7" d="M42.9,11.9L90,83.5c5.2,8.8,16.5,12,25.5,7.1l78.1-37.3"/>
</g>
</svg>
