<svg xmlns="http://www.w3.org/2000/svg" viewBox="0 0 1068 422"><defs><style>.cls-1{fill:#31363b;}.cls-2{fill:#3daee9;}.cls-3{fill:#eff0f1;}.cls-4{fill:#4d4d4d;}.cls-5{opacity:0.1;}.cls-5,.cls-6{isolation:isolate;}.cls-6{fill:#6c63ff;opacity:0.3;}.cls-7{fill:#f47750;}.cls-8{fill:#1cdc9a;}.cls-9{fill:#c9ce3b;}.cls-10{fill:#11d116;}.cls-11{fill:#da4453;}.cls-12{fill:#e6e6e6;}.cls-13{fill:#3f3d56;}.cls-14{fill:#ffb8b8;}.cls-15{fill:#2f2e41;}.cls-16{fill:#fff;}</style></defs><title>more</title><g id="Layer_3" data-name="Layer 3"><rect class="cls-1" width="1068" height="422"/></g><g id="Layer_2" data-name="Layer 2"><path class="cls-2" d="M917.51,256.44C892.14,373.86,658.91,403,557.39,405.14c-277.6,6-507.31-168.81-494.95-202.52,9.2-25.09,142.31,56,306.57,1.68C538.62,148.21,555.91,9.11,673.36,6,797.31,2.69,939.8,153.32,917.51,256.44Z"/><rect class="cls-3" x="233.92" y="40.85" width="584.82" height="315.89"/><rect class="cls-4" x="233.92" y="15.24" width="584.82" height="29.17"/><circle class="cls-2" cx="248.15" cy="28.05" r="4.98"/><circle class="cls-2" cx="262.38" cy="28.05" r="4.98"/><circle class="cls-2" cx="276.61" cy="28.05" r="4.98"/><rect class="cls-5" x="233.92" y="40.85" width="584.82" height="3.56"/><rect class="cls-6" x="267.72" y="91.01" width="115.26" height="123.08"/><rect class="cls-7" x="275.54" y="82.47" width="115.26" height="123.08"/><rect class="cls-6" x="690.33" y="89.04" width="88.61" height="94.62"/><rect class="cls-7" x="696.35" y="82.47" width="88.61" height="94.62"/><rect class="cls-6" x="690.33" y="220.5" width="88.61" height="94.62"/><rect class="cls-7" x="696.35" y="213.93" width="88.61" height="94.62"/><rect class="cls-8" x="431.36" y="82.47" width="78.87" height="13.15"/><rect class="cls-8" x="657.77" y="191.35" width="147.94" height="11.72"/><rect class="cls-8" x="255.94" y="221.63" width="145.54" height="6.98"/><rect class="cls-8" x="431.03" y="131.53" width="225.09" height="14.64"/><rect class="cls-9" x="415.39" y="82.63" width="9.12" height="13.87"/><rect class="cls-9" x="237.9" y="219.69" width="10.54" height="10.86"/><rect class="cls-9" x="631.34" y="192.43" width="13.24" height="11.76"/><rect class="cls-10" x="485.22" y="221.63" width="82.23" height="8.56"/><rect class="cls-10" x="485.5" y="242.27" width="145.17" height="8.54"/><rect class="cls-10" x="573.25" y="306.58" width="77.95" height="8.54"/><path class="cls-1" d="M-41.76-68"/><rect class="cls-9" x="415.39" y="131.92" width="9.12" height="13.87"/></g><g id="Layer_1" data-name="Layer 1"><path class="cls-11" d="M745.72,378.19s1.58,17.59-3.52,19.23-28-.2-22.3,10.37,50.11,5.28,48.19-.42S757.41,375,757.41,375Z"/><path class="cls-11" d="M688.55,379.51s1.59,17.6-3.51,19.24-27.95-.2-22.3,10.37,50.11,5.28,48.18-.43-10.68-32.41-10.68-32.41Z"/><path class="cls-12" d="M685.09,110.2l1.26-.41c.42,1.27.83,2.56,1.2,3.82l-1.28.38C685.9,112.74,685.51,111.46,685.09,110.2Z"/><path class="cls-13" d="M670.86,183.29h0l12.27-2.84a2.67,2.67,0,0,1,3,1.45L698.71,208a2.16,2.16,0,0,1-1,2.89l-.35.13-12.46,3.54a2.86,2.86,0,0,1-3.41-1.62l-8-18.62-.24.13-1.53-3.53.25-.13-2.23-5.2a1.64,1.64,0,0,1,.86-2.16Z"/><path d="M681.65,181.42l1.43-.33a1.84,1.84,0,0,1,2.09,1L697.44,208a1.15,1.15,0,0,1-.55,1.53l-.16.06-12.38,3.73a1.48,1.48,0,0,1-1.79-.83l-11.6-27a1.3,1.3,0,0,1,.68-1.71.81.81,0,0,1,.22-.07l1.36-.32a.61.61,0,0,1,.67.31h0a.54.54,0,0,0,.61.27l6.44-1.49A.92.92,0,0,0,681.65,181.42Z"/><path class="cls-14" d="M759,146.66a6.66,6.66,0,0,0-6.53-5.11c-4.42,0-9.77,1.15-8.57,6.37,2,8.64,16.29,46.2,16.29,46.2l-34.9,4.32s-27.25-4-18.61,5.31,19.94,4,19.94,4,44.87,1.21,44.87-6.31c0-2-.37-4.66-1.8-10.57Z"/><circle class="cls-14" cx="732.57" cy="118.01" r="17.28"/><path class="cls-14" d="M744.21,127.65s-1.33,13.29,3.32,18.61H722.27s6-5.32,1.33-16S744.21,127.65,744.21,127.65Z"/><path class="cls-14" d="M760.82,178.16q-.71,3.12-1.41,5.5h0c-1.76,6.08-3.38,8.91-4.34,10.17a3.79,3.79,0,0,1-.89.94l-40.55-11.3s1.33-14,4.65-17.28,2-21.27,2-21.27l10.63-3.33s9.87-.33,16.65-.28c2.13,0,4,.05,5.07.16a6.64,6.64,0,0,1,.88.12C756.17,142.27,764.15,163.54,760.82,178.16Z"/><path class="cls-15" d="M742.54,184.48s-9-40.88-12.29-42.21c-3.15-1.26-9.31,2-9.31,2S732,138,737.62,184.48Z"/><path d="M759.41,183.66h0c-1.76,6.08-3.38,8.91-4.34,10.17-2.32-13.26-7.12-41.65-7.51-52.52,2.13,0,4,.05,5.07.16C753.07,149.72,756.52,164,759.41,183.66Z"/><path d="M715,175.5s5.65,8.31,10.3,7.65,30.72,2.18,32,6.74l-7.38,25.83V225s9.44,7.29,10.39,27.4a68.47,68.47,0,0,1-3.29,24l-3.12,9.72s-3.32,17.28.67,24.59,2,23.27,2,23.27,35.56,49.52,15.62,54.17-40.21,13-40.88.33-4.65-98.37-4.65-98.37,4,96.38-11.3,98.37-44.53,16-45.86-.66,33.9-153.55,33.9-153.55-.67-20.6,10.63-28.58l2.66-10.64S709,179.49,715,175.5Z"/><polygon class="cls-15" points="717.62 159.55 713.96 178.5 713.96 180.7 719.66 162.87 717.62 159.55"/><path class="cls-14" d="M729.06,148.65a6.65,6.65,0,0,0-6.53-5.1c-4.42,0-9.77,1.14-8.57,6.36,2,8.64,11.3,49.19,11.3,49.19l-29.91,1.33s-27.25-4-18.61,5.32,19.94,4,19.94,4,32.9,5,38.22-.34l.16-.15a17.34,17.34,0,0,0,4.69-16.4Z"/><path class="cls-15" d="M738.89,90.52h0c-11,0-20,12.41-20,27.71v19.44h4.79l2.77-7.2-.69,7.2h30.77l2.52-6.55-.63,6.55h3.46V122.41C761.89,104.8,751.6,90.52,738.89,90.52Z"/><path class="cls-15" d="M741,94.83a13.07,13.07,0,0,0-10.33-5.27h-.49c-9.45,0-17.11,8.55-17.11,19.1h3.17l.51-3.89.75,3.89h18.78l1.57-3.29-.39,3.29h3.69q2.6,12.84-7.43,25.69H740l3.14-6.59-.78,6.59h12l2.36-15.15C756.72,107.85,750.13,98.23,741,94.83Z"/><rect class="cls-16" x="558.09" y="413.47" width="384.2" height="1.33"/></g></svg>