<svg xmlns="http://www.w3.org/2000/svg" xmlns:xlink="http://www.w3.org/1999/xlink" viewBox="0 0 1627.87 994.2"><defs><style>.cls-1,.cls-25{fill:#fff;}.cls-1{stroke:#000;}.cls-1,.cls-41,.cls-42{stroke-miterlimit:10;}.cls-2,.cls-51{fill:#1d99f3;}.cls-10,.cls-13,.cls-17,.cls-18,.cls-2,.cls-3,.cls-33,.cls-39,.cls-4,.cls-8{opacity:0.1;}.cls-10,.cls-13,.cls-17,.cls-18,.cls-2,.cls-3,.cls-30,.cls-33,.cls-4,.cls-55,.cls-8{isolation:isolate;}.cls-12,.cls-4{fill:#6c63ff;}.cls-5,.cls-8{fill:#4d4d4d;}.cls-6{fill:#31363b;}.cls-7{fill:#232629;}.cls-9{fill:#adadad;}.cls-10{fill:#eff0f1;}.cls-11{fill:#cecece;}.cls-13{fill:#0199f3;}.cls-14{fill:#ffd037;}.cls-15{fill:#da4453;}.cls-16{fill:#2ecc71;}.cls-17,.cls-49{fill:#f67400;}.cls-18,.cls-43{fill:#535461;}.cls-19{opacity:0.5;}.cls-20{fill:url(#linear-gradient);}.cls-21{fill:#f5f5f5;}.cls-22,.cls-33{fill:#3daee9;}.cls-23{fill:#e0e0e0;}.cls-24{fill:url(#linear-gradient-2);}.cls-26{fill:url(#linear-gradient-3);}.cls-27,.cls-30{opacity:0.6;}.cls-28{fill:#bdbdbd;}.cls-29{fill:url(#linear-gradient-4);}.cls-30{fill:#3ad29f;}.cls-31{fill:url(#linear-gradient-5);}.cls-32{fill:#f2f2f2;}.cls-34{fill:url(#linear-gradient-6);}.cls-35{fill:#69f0ae;}.cls-36{fill:#c4c4c4;}.cls-37{opacity:0.7;}.cls-38{fill:url(#linear-gradient-7);}.cls-40{fill:url(#linear-gradient-8);}.cls-41,.cls-42,.cls-54{fill:none;}.cls-41{stroke:#6c63ff;stroke-width:2px;}.cls-42{stroke:#fff;}.cls-44{fill:#3f3d56;}.cls-45{fill:#5e5d70;}.cls-46{fill:url(#linear-gradient-9);}.cls-47{fill:#2f2e41;}.cls-48{fill:#ffb9b9;}.cls-50{fill:#d0cde1;}.cls-52{fill:url(#linear-gradient-10);}.cls-53{fill:#4c4c78;}.cls-55{opacity:0.05;}.cls-56{fill:#f47750;}.cls-57{fill:#b96b6b;}.cls-58{fill:#3395c1;}.cls-59{fill:#cbcdda;}.cls-60{fill:#fdbc4b;}</style><linearGradient id="linear-gradient" x1="173.99" y1="598.56" x2="173.99" y2="618.44" gradientTransform="matrix(1, 0, 0, -1, 113.06, 757.36)" gradientUnits="userSpaceOnUse"><stop offset="0" stop-color="gray" stop-opacity="0.25"/><stop offset="0.54" stop-color="gray" stop-opacity="0.12"/><stop offset="1" stop-color="gray" stop-opacity="0.1"/></linearGradient><linearGradient id="linear-gradient-2" x1="177.49" y1="593.96" x2="177.49" y2="613.85" xlink:href="#linear-gradient"/><linearGradient id="linear-gradient-3" x1="205.05" y1="599.43" x2="205.05" y2="610.84" gradientTransform="matrix(1, 0, 0, -1, 360.2, 810.49)" xlink:href="#linear-gradient"/><linearGradient id="linear-gradient-4" x1="231.22" y1="590.4" x2="231.22" y2="620.82" gradientTransform="matrix(1, 0, 0, -1, 360.2, 810.49)" xlink:href="#linear-gradient"/><linearGradient id="linear-gradient-5" x1="209.32" y1="569.22" x2="209.32" y2="581.85" gradientTransform="matrix(1, 0, 0, -1, 360.2, 810.49)" xlink:href="#linear-gradient"/><linearGradient id="linear-gradient-6" x1="200.93" y1="570.83" x2="200.93" y2="586.48" gradientTransform="matrix(1, 0, 0, -1, 360.2, 810.49)" xlink:href="#linear-gradient"/><linearGradient id="linear-gradient-7" x1="212.38" y1="321.28" x2="212.38" y2="414.83" gradientTransform="matrix(1, 0, 0, -1, -1.22, 558.36)" gradientUnits="userSpaceOnUse"><stop offset="0" stop-color="gray" stop-opacity="0.25"/><stop offset="0.54" stop-color="gray" stop-opacity="0.12"/><stop offset="1" stop-color="gray" stop-opacity="0.1"/></linearGradient><linearGradient id="linear-gradient-8" x1="98.19" y1="562.2" x2="98.19" y2="599.64" gradientTransform="matrix(1, 0, 0, -1, 113.06, 757.36)" xlink:href="#linear-gradient-7"/><linearGradient id="linear-gradient-9" x1="393.41" y1="359.98" x2="393.41" y2="386.03" gradientTransform="matrix(1, 0, 0, -1, -55.52, 594.36)" xlink:href="#linear-gradient"/><linearGradient id="linear-gradient-10" x1="498.49" y1="309.11" x2="498.49" y2="660.56" gradientTransform="matrix(1, 0, 0, -1, 65.84, 713.89)" xlink:href="#linear-gradient-7"/></defs><title>music</title><g id="Layer_5" data-name="Layer 5"><rect class="cls-1" x="247.15" y="53.13" width="1068" height="422"/></g><g id="Layer_2" data-name="Layer 2"><path class="cls-2" d="M936,282.81c-3.25,7.82-7.51,15.33-13.47,21.08-7.26,7-16.28,10.83-25.94,12.66a78,78,0,0,1-8.61,1.11,125.36,125.36,0,0,1-22.94-.61,271.19,271.19,0,0,1-54-11.57q-4.34-1.39-8.61-2.94-6.45-2.31-12.8-5c-17.21-7.19-35-16.37-53.33-13.52-8.88,1.38-17.22,5.57-26.12,6.81a46.65,46.65,0,0,1-18.66-1.33,64.44,64.44,0,0,1-8.61-3A97.88,97.88,0,0,1,665,276.45c-13.42-9.38-25.46-21-39.59-29.13-15.58-9-32.82-13.22-50.39-16.39q-4.29-.78-8.61-1.48c-8.13-1.34-16.28-2.59-24.31-4-7.74-1.43-15.61-3.18-22.35-7.47-4.8-3.07-8.84-7.31-12.55-11.78a140,140,0,0,1-17.48-27c-.26-.5-.51-1-.75-1.52a186.79,186.79,0,0,1-15.51-49.12c-.09-.51-.18-1-.26-1.52a277.06,277.06,0,0,1-3.62-51.66l0-1.52c.19-8.55.72-17.07,1.52-25.46.56-5.91,1.32-12,4.38-17s8-8.15,13-10.81C510.48,8.9,531.5,5.65,555.09,11.31c3.79.91,7.56,1.88,11.34,2.9q4.3,1.15,8.61,2.36c19.82,5.52,39.57,11.4,60.07,13.15q3,.27,5.94.4,5.88.27,11.76.12a202.61,202.61,0,0,0,30.1-3.1q4.32-.75,8.61-1.65c12.36-2.58,24.6-6,36.65-9.82q3.69-1.17,7.38-2.37c5.53-1.81,11.06-3.65,16.6-5.45C768.69,2.5,785.33-2.4,802.43-4.38c1.46-.16,2.93-.31,4.4-.44S809.64-5,811-5.1A143.22,143.22,0,0,1,888,13q4.38,2.43,8.61,5.18Q902.49,22,908,26.39c7.51,6,14.55,12.83,19.91,21a76.11,76.11,0,0,1,10.56,26.41c.1.51.2,1,.29,1.52,2.87,15.24,2,31.58-1.24,46.85-.34,1.6-.69,3.21-1.07,4.81l-.36,1.52c-3.46,14.44-7.89,28.84-6.73,43.6q.21,2.79.68,5.52c.08.51.17,1,.27,1.52,2.26,12,7.39,23.47,10.47,35.4A109.07,109.07,0,0,1,936,282.81Z" transform="translate(247.15 53.13)"/><path class="cls-3" d="M896.63,75.36h42.12c-.09-.5-.19-1-.29-1.52H896.63V18.18Q892.4,15.44,888,13V73.84H811V-5.1c-1.4.07-2.81.16-4.21.28s-2.93.28-4.4.44V73.84H692.53l-.26-.28L752.15,7.85c-5.54,1.8-11.07,3.64-16.6,5.45l-44,48.33V25.49q-4.29.9-8.61,1.65V63.27l-30.1-33q-5.88.14-11.76-.12l39.58,43.44-.26.28H575V16.56c-2.87-.8-5.74-1.6-8.61-2.37V73.84h-96.8l0,1.52h96.84V127H473.21c.08.51.17,1,.26,1.52h93v49.12H489c.24.51.49,1,.75,1.52h76.7v50.27q4.32.7,8.61,1.48V179.18H682.91V286.55a64.39,64.39,0,0,0,8.61,3V179.18H802.43V302.54q4.29,1.54,8.61,2.94V179.18h77V317.66a75.66,75.66,0,0,0,8.61-1.12V179.18H930.3c-.1-.5-.19-1-.27-1.52H896.6V128.54h39.46c.12-.51.24-1,.35-1.52H896.63Zm-8.61,0V127H811V75.36ZM802.43,127H691.52V75.36H802.43ZM575,75.36H681.39l1.52,1.39V127H575Zm0,102.3V128.54H682.91v49.12Zm116.48,0V128.54H802.43v49.12Zm196.5,0H811V128.54h77Z" transform="translate(247.15 53.13)"/><path class="cls-4" d="M851,39.79h-.67a1.66,1.66,0,0,0,.82-1.33h0c0-1-1.29-1.9-2.85-1.9h-20c-1.57,0-2.86.86-2.86,1.9h0c0,1,1.29,1.91,2.86,1.91H829a1.63,1.63,0,0,0-.81,1.33c0,.89.93,1.64,2.18,1.84h-5.73c-1.57,0-2.85.85-2.85,1.9s1.28,1.91,2.85,1.91h20c1.57,0,2.85-.86,2.85-1.91,0-.89-.93-1.64-2.18-1.85H851c1.56,0,2.85-.85,2.85-1.89S852.57,39.79,851,39.79Z" transform="translate(247.15 53.13)"/><path class="cls-4" d="M634.68,57.9H634a1.67,1.67,0,0,0,.82-1.33h0c0-1-1.29-1.89-2.86-1.89H612c-1.57,0-2.86.85-2.86,1.89h0c0,1,1.29,1.91,2.86,1.91h.66a1.64,1.64,0,0,0-.81,1.33c0,.89.93,1.64,2.18,1.84H608.3c-1.57,0-2.85.86-2.85,1.9s1.28,1.91,2.85,1.91h20c1.57,0,2.85-.86,2.85-1.91,0-.89-.93-1.64-2.18-1.84h5.75c1.56,0,2.85-.86,2.85-1.9S636.24,57.9,634.68,57.9Z" transform="translate(247.15 53.13)"/><path class="cls-4" d="M881.63,135.42H881a1.67,1.67,0,0,0,.82-1.33h0c0-1.05-1.29-1.9-2.86-1.9H859c-1.57,0-2.86.85-2.86,1.9h0c0,1,1.29,1.9,2.86,1.9h.66a1.64,1.64,0,0,0-.81,1.33c0,.89.93,1.64,2.18,1.84h-5.75c-1.57,0-2.85.86-2.85,1.91s1.28,1.9,2.85,1.9h20c1.57,0,2.85-.85,2.85-1.9,0-.89-.93-1.65-2.18-1.85h5.75c1.56,0,2.84-.86,2.84-1.9S883.19,135.42,881.63,135.42Z" transform="translate(247.15 53.13)"/><ellipse class="cls-3" cx="954.44" cy="416.7" rx="214" ry="23.63"/><path class="cls-5" d="M751.78,195.48v74.29a13.49,13.49,0,0,1-.5,3.74,14,14,0,0,1-13.51,10.28H675a14,14,0,0,1-14-14h0V195.48a14,14,0,0,1,14-14h62.8a14,14,0,0,1,13.51,10.28A13.42,13.42,0,0,1,751.78,195.48Z" transform="translate(247.15 53.13)"/><path class="cls-3" d="M662,195.48v74.29a13.83,13.83,0,0,1-.51,3.74,13.83,13.83,0,0,1-.51-3.74V195.48a13.94,13.94,0,0,1,.51-3.74A13.94,13.94,0,0,1,662,195.48Z" transform="translate(247.15 53.13)"/><rect class="cls-5" x="798.05" y="234.59" width="110.06" height="102.3" rx="14.01"/><path class="cls-3" d="M751.78,195.48v74.29a13.49,13.49,0,0,1-.5,3.74,13.88,13.88,0,0,1-.51-3.74V195.48a13.81,13.81,0,0,1,.51-3.73A13.42,13.42,0,0,1,751.78,195.48Z" transform="translate(247.15 53.13)"/><rect class="cls-5" x="998.93" y="234.59" width="110.07" height="102.3" rx="14.01"/><path class="cls-3" d="M655.39,291.36H554.85l-.51-8.78c-.55-9.87,12.2-18.06,28.13-18.06H650.9c5.34,0,9.46,2.91,8.78,6.19Z" transform="translate(247.15 53.13)"/><path class="cls-6" d="M655.39,292.38H554.85l-.51-8.79c-.55-9.86,12.2-18,28.13-18H650.9c5.34,0,9.46,2.9,8.78,6.18Z" transform="translate(247.15 53.13)"/><path class="cls-3" d="M756.14,292H856.69l.5-8.79c.56-9.87-12.19-18.05-28.12-18.05H760.64c-5.34,0-9.46,2.9-8.78,6.18Z" transform="translate(247.15 53.13)"/><path class="cls-6" d="M756.14,293H856.69l.5-8.79c.56-9.86-12.19-18.05-28.12-18.05H760.64c-5.34,0-9.46,2.91-8.78,6.19Z" transform="translate(247.15 53.13)"/><path class="cls-3" d="M672.8,265.11h68.13a14.47,14.47,0,0,1,14.48,14.47h0v9h-98.5V281A15.88,15.88,0,0,1,672.8,265.11Z" transform="translate(247.15 53.13)"/><path class="cls-6" d="M672.8,266.12h68.13a14.48,14.48,0,0,1,14.48,14.48h0v9h-98.5V282A15.89,15.89,0,0,1,672.8,266.12Z" transform="translate(247.15 53.13)"/><path class="cls-5" d="M561.72,275.16h81.53a13.68,13.68,0,0,1,13.68,13.67v18.49H555.65v-26.1A6.08,6.08,0,0,1,561.72,275.16Z" transform="translate(247.15 53.13)"/><path class="cls-3" d="M667,275.16h77.49a13.67,13.67,0,0,1,13.67,13.67v18.49H654.13V288.07A12.91,12.91,0,0,1,667,275.16Z" transform="translate(247.15 53.13)"/><path class="cls-3" d="M669.07,275.16h77.48a13.68,13.68,0,0,1,13.68,13.67v18.49H656.16V288.07A12.91,12.91,0,0,1,669.07,275.16Z" transform="translate(247.15 53.13)"/><path class="cls-5" d="M668.05,275.16h77.49a13.67,13.67,0,0,1,13.67,13.67v18.49H655.14V288.07A12.91,12.91,0,0,1,668.05,275.16Z" transform="translate(247.15 53.13)"/><path class="cls-3" d="M762.39,275.16h82.79a13,13,0,0,1,13,13v19.12H757V280.59a5.43,5.43,0,0,1,5.43-5.43Z" transform="translate(247.15 53.13)"/><path class="cls-5" d="M763.41,275.16h82.78a13,13,0,0,1,13,13v19.12H758V280.59a5.43,5.43,0,0,1,5.43-5.43Z" transform="translate(247.15 53.13)"/><path class="cls-7" d="M557.14,350.11v13.8a7,7,0,0,1-7,7h-4.81a7,7,0,0,1-7-7v-13.8Z" transform="translate(247.15 53.13)"/><path class="cls-7" d="M875.93,350.11v13.8a7,7,0,0,1-7,7h-4.81a7,7,0,0,1-7-7v-13.8Z" transform="translate(247.15 53.13)"/><path class="cls-6" d="M562.25,259.53a18.49,18.49,0,1,0-22.06,18.14v74.72H561v-86A18.37,18.37,0,0,0,562.25,259.53Z" transform="translate(247.15 53.13)"/><path class="cls-6" d="M851.34,259.53a18.49,18.49,0,1,1,22.06,18.14v74.72H852.63v-86A18.78,18.78,0,0,1,851.34,259.53Z" transform="translate(247.15 53.13)"/><path class="cls-8" d="M558.19,261.06a18.49,18.49,0,1,0-22.06,18.13v74.72h20.76v-86A18.53,18.53,0,0,0,558.19,261.06Z" transform="translate(247.15 53.13)"/><path class="cls-8" d="M855.91,261.06A18.49,18.49,0,1,1,878,279.19v74.72H857.21v-86A18.53,18.53,0,0,1,855.91,261.06Z" transform="translate(247.15 53.13)"/><rect class="cls-7" x="798.05" y="392.6" width="312.89" height="14.43"/><rect class="cls-3" x="801.5" y="360.44" width="307.5" height="33.17"/><rect class="cls-6" x="801.5" y="359.43" width="307.5" height="33.17"/><rect class="cls-3" x="1104.37" y="403.24" width="18.71" height="4.81"/><path class="cls-5" d="M855.91,261.05A18.49,18.49,0,1,1,878,279.19v74.72H857.19v-86A18.56,18.56,0,0,1,855.91,261.05Z" transform="translate(247.15 53.13)"/><rect class="cls-3" x="785.55" y="403.24" width="18.47" height="4.81"/><path class="cls-5" d="M558.19,261.05a18.49,18.49,0,1,0-22.08,18.14v74.72h20.76v-86A18.36,18.36,0,0,0,558.19,261.05Z" transform="translate(247.15 53.13)"/><rect class="cls-3" x="808.1" y="359.43" width="291.78" height="0.93"/><circle class="cls-6" cx="785.55" cy="313.6" r="8.36"/><circle class="cls-6" cx="1123.07" cy="313.6" r="8.36"/><path class="cls-3" d="M626.79,246.35c-8-2-24.77-23-24.77-23-6.32-4.42-19.21-31.17-19.21-31.17s-4.89-2.3-9.2,8.06-29.38,18.65-36.88,19.81c-4.23.65-3.82,2.53-2.65,4.05a6.76,6.76,0,0,0,3,2.13c3.19,1.21,13.09,13.09,13.09,13.09,9.24,6.24,19.48,35.06,22.88,42.59,1.89,4.19,4,2.19,5.49-.42a39.57,39.57,0,0,1,11.61-12.71C603,259.74,616.85,256,617.79,256,619,255.93,634.75,248.34,626.79,246.35Z" transform="translate(247.15 53.13)"/><path class="cls-9" d="M521,221.66a7.71,7.71,0,0,1-3.31-2.41c-1.34-1.7-1.9-3.82,2.53-4.56,7.82-1.28,33.66-10.53,37.47-22.21s9.12-9.06,9.12-9.06,15.44,30.2,22.41,35.2c0,0,19.17,23.72,27.69,26s-7.55,10.79-8.8,10.81c-1,0-15.28,4.21-28.22,14.38a39.82,39.82,0,0,0-11.35,14.29c-1.4,2.94-3.48,5.19-5.76.47-4.11-8.51-16.91-41-27.07-48.11C535.66,236.45,524.4,223,521,221.66Z" transform="translate(247.15 53.13)"/><path class="cls-10" d="M522.28,222.53a7.74,7.74,0,0,1-3.32-2.41c-1.33-1.71-1.9-3.82,2.53-4.56,7.82-1.28,33.66-10.54,37.48-22.21s9.12-9.06,9.12-9.06,15.43,30.19,22.4,35.2c0,0,19.18,23.72,27.7,26s-7.56,10.79-8.81,10.81c-1,0-15.28,4.2-28.22,14.37A40,40,0,0,0,569.81,285c-1.39,2.94-3.47,5.19-5.75.47-4.11-8.51-16.91-41-27.07-48.12C537,237.31,525.72,223.88,522.28,222.53Z" transform="translate(247.15 53.13)"/><path class="cls-11" d="M526.45,221a7,7,0,0,1-3.09-2.16c-1.23-1.52-1.73-3.46,2.43-4.19,7.39-1.3,31.91-10.13,35.68-20.87s8.75-8.42,8.75-8.42,14.1,27.35,20.59,31.84c0,0,17.73,21.38,25.72,23.33s-7.28,10-8.46,10c-.94,0-14.47,4-26.85,13.56a38.47,38.47,0,0,0-10.9,13.23c-1.36,2.71-3.36,4.8-5.44.51-3.74-7.72-15.32-37.26-24.79-43.56C540.09,234.32,529.67,222.24,526.45,221Z" transform="translate(247.15 53.13)"/><path class="cls-3" d="M554.85,230.7s-2.65,2.5,10-2.29S554.85,230.7,554.85,230.7Z" transform="translate(247.15 53.13)"/><path class="cls-3" d="M565.27,242.88s1.93.28,9.21-2.69S565.27,242.88,565.27,242.88Z" transform="translate(247.15 53.13)"/><path class="cls-3" d="M564.63,265.25s1.81,0,9.07-3S564.63,265.25,564.63,265.25Z" transform="translate(247.15 53.13)"/><path class="cls-3" d="M860.84,215.18v9.66c-2.09,4.32-4.13,9.83-4.13,9.83-6.08,7.91-5.11,34.26-5.51,41.38-.23,3.95-2.81,3-5.07,1.39a39.84,39.84,0,0,0-14.86-6.55c-14.68-3.22-28.36-1.88-29.23-1.6-1.07.36-17.85-.77-11.42-4.88s14.1-26.23,14.1-26.23c4.1-5.53,6.25-31.06,6.25-31.06s3.54-3.38,11.06,3.55C829.17,217.32,852.48,216.51,860.84,215.18Z" transform="translate(247.15 53.13)"/><path class="cls-9" d="M866.36,218.52a5.72,5.72,0,0,0,1.95-2.65c.51-1.58.22-3.22-3.79-2.41-7.12,1.43-32.46,2.68-40-4.28s-11.06-3.57-11.06-3.57-2.14,25.52-6.25,31c0,0-7.67,22.13-14.1,26.24s10.35,5.23,11.42,4.87c.85-.28,14.53-1.61,29.24,1.6a40.19,40.19,0,0,1,14.85,6.55c2.26,1.62,4.85,2.57,5.07-1.39.4-7.09-.55-33.47,5.51-41.38C859.24,233.15,863.93,220.5,866.36,218.52Z" transform="translate(247.15 53.13)"/><path class="cls-10" d="M867.69,219.39a5.85,5.85,0,0,0,1.95-2.65c.5-1.58.22-3.22-3.8-2.41-7.11,1.43-32.46,2.68-40-4.28s-11.07-3.57-11.07-3.57-2.14,25.52-6.25,31.05c0,0-7.67,22.13-14.1,26.24s10.36,5.23,11.43,4.87c.85-.28,14.52-1.61,29.23,1.6A40.24,40.24,0,0,1,850,276.79c2.25,1.62,4.84,2.56,5.06-1.39.4-7.09-.55-33.47,5.52-41.38C860.57,234,865.26,221.37,867.69,219.39Z" transform="translate(247.15 53.13)"/><path class="cls-11" d="M864.53,219.66a5.36,5.36,0,0,0,1.84-2.53c.51-1.52.22-3-3.59-2.28-6.76,1.35-30.82,2.53-37.94-4.06s-10.51-3.38-10.51-3.38-2,24.22-5.93,29.48c0,0-7.28,21-13.38,24.91s9.83,5,10.84,4.63c.81-.27,13.8-1.52,27.76,1.52a37.84,37.84,0,0,1,14.1,6.21c2.14,1.52,4.6,2.44,4.81-1.32.38-6.75-.5-31.77,5.24-39.29C857.77,233.55,862.22,221.54,864.53,219.66Z" transform="translate(247.15 53.13)"/><path class="cls-3" d="M846.7,233.63s-1.77,1-10.26,3.93S845.31,236.42,846.7,233.63Z" transform="translate(247.15 53.13)"/><path class="cls-3" d="M845.81,242.57s-5.31,4.35-8,4.73S844.29,246.82,845.81,242.57Z" transform="translate(247.15 53.13)"/><path class="cls-3" d="M850,262.68s-5.32,4.36-8,4.74S848.52,267,850,262.68Z" transform="translate(247.15 53.13)"/><path class="cls-3" d="M676.77,252.45c-.4.18-.8.38-1.19.59l-2.53,1.35a24.51,24.51,0,0,0,6.68.2c1.23-.13,3-1.18,1.56-2.42C680.17,251.2,677.91,252,676.77,252.45Z" transform="translate(247.15 53.13)"/><path class="cls-3" d="M678.62,226.09c1-.32,6.16-1.29,4.61-3.24C681.81,221.06,679.72,225.71,678.62,226.09Z" transform="translate(247.15 53.13)"/><ellipse class="cls-3" cx="993.03" cy="458.76" rx="54.36" ry="12.12"/><ellipse class="cls-3" cx="815.89" cy="452.48" rx="41.47" ry="8.34"/><path class="cls-12" d="M52.94,317.17s2.55,4.07-1.18,10.21-6.82,11.35-5.58,15.17c0,0,5.64-11.42,10.23-11.57S58,324,52.94,317.17Z" transform="translate(247.15 53.13)"/><path class="cls-13" d="M52.94,317.17a5.94,5.94,0,0,1,.52,1.27c4.48,6.41,6.87,12.38,2.56,12.54-4,.14-8.83,8.86-10,11.07,0,.17.09.34.14.5,0,0,5.64-11.42,10.23-11.57S58,324,52.94,317.17Z" transform="translate(247.15 53.13)"/><path class="cls-14" d="M57.69,322.36A6,6,0,0,1,57.4,325a5.78,5.78,0,0,1-.3-2.59c0-1.44.17-.76.33-.76S57.69,320.92,57.69,322.36Z" transform="translate(247.15 53.13)"/><path class="cls-14" d="M59.32,324.07c-1,.68-1.93,1.1-2,.92s.7-.87,1.73-1.56.63-.18.72,0S60.36,323.38,59.32,324.07Z" transform="translate(247.15 53.13)"/><path class="cls-12" d="M39.42,317.17s-2.56,4.07,1.18,10.21,6.81,11.35,5.58,15.17c0,0-5.64-11.42-10.24-11.57S34.37,324,39.42,317.17Z" transform="translate(247.15 53.13)"/><path class="cls-13" d="M39.42,317.17a5.47,5.47,0,0,0-.52,1.27C34.42,324.85,32,330.82,36.34,331c4,.14,8.82,8.86,10,11.07a4.07,4.07,0,0,1-.13.5S40.54,331.13,35.94,331,34.37,324,39.42,317.17Z" transform="translate(247.15 53.13)"/><path class="cls-14" d="M34.67,322.36A6,6,0,0,0,35,325a6,6,0,0,0,.29-2.59c0-1.44-.16-.76-.32-.76S34.67,320.92,34.67,322.36Z" transform="translate(247.15 53.13)"/><path class="cls-14" d="M33,324.07c1,.68,1.94,1.1,2,.92s-.7-.87-1.74-1.56-.62-.18-.71,0S32,323.38,33,324.07Z" transform="translate(247.15 53.13)"/><ellipse class="cls-4" cx="293.33" cy="421.83" rx="26.75" ry="5"/><path class="cls-15" d="M60,337.06l-.13,1.27-.18,1.8-.08.75-.18,1.8-.07.75-.18,1.79-2.05,20.43c-.18,1.82-2.63,3.24-5.58,3.24H40.86c-3,0-5.38-1.42-5.58-3.24l-2.05-20.43-.18-1.79-.08-.75-.18-1.8-.07-.74-.18-1.8-.13-1.27c-.1-1,1.22-1.9,2.89-1.9H57.06C58.72,335.16,60.05,336,60,337.06Z" transform="translate(247.15 53.13)"/><polygon class="cls-16" points="306.97 391.46 306.79 393.25 279.87 393.25 279.69 391.46 306.97 391.46"/><polygon class="cls-16" points="306.71 394 306.53 395.8 280.13 395.8 279.94 394 306.71 394"/><polygon class="cls-16" points="306.45 396.55 306.28 398.35 280.38 398.35 280.2 396.55 306.45 396.55"/><ellipse class="cls-3" cx="513.62" cy="435.36" rx="214" ry="23.63"/><path class="cls-17" d="M256.83,109.13c3.23,7.83,5.53,16.15,5.38,24.43-.18,10.09-3.85,19.17-9.39,27.29a78.6,78.6,0,0,1-5.3,6.88,124.72,124.72,0,0,1-16.66,15.78,271,271,0,0,1-46.39,30q-4,2.07-8.16,4-6.21,2.92-12.57,5.53c-17.26,7.09-36.34,13.19-47.28,28.15-5.3,7.26-8.23,16.12-13.64,23.29a46.83,46.83,0,0,1-14.14,12.25,63.79,63.79,0,0,1-8.19,4,97.89,97.89,0,0,1-19.79,5.51c-16.13,2.86-32.86,3.15-48.6,7.4-17.35,4.68-32.56,13.86-47.22,24q-3.59,2.48-7.14,5c-6.69,4.8-13.33,9.68-20.05,14.32-6.48,4.46-13.29,8.8-21.09,10.52-5.56,1.24-11.42,1.09-17.2.55a140,140,0,0,1-31.42-6.7c-.54-.17-1.07-.36-1.6-.54a187.31,187.31,0,0,1-45.71-23.77l-1.26-.89a277,277,0,0,1-39.09-34l-1-1.09c-5.91-6.19-11.56-12.59-16.93-19.08-3.78-4.58-7.57-9.45-8.92-15.12s-.08-11.45,1.56-16.85c7.25-23.77,19.81-40.93,40.5-53.61,3.32-2,6.68-4,10.06-6q3.87-2.22,7.76-4.41c17.92-10.12,36-19.93,51.78-33.18q2.28-1.92,4.48-3.92,4.35-4,8.4-8.23a204,204,0,0,0,19.1-23.48q2.52-3.57,4.92-7.25c6.91-10.56,13.14-21.66,19-32.86q1.78-3.43,3.54-6.89c2.63-5.19,5.24-10.41,7.89-15.59C-59.72,29.25-51.41,14-40.72.53q1.38-1.72,2.8-3.42C-37-4-36.09-5-35.14-6.07A143.22,143.22,0,0,1,32.09-47.7q4.81-1.38,9.75-2.42,6.84-1.46,13.83-2.24c9.56-1.07,19.37-1.21,29,.81a76.08,76.08,0,0,1,26.15,11.21l1.28.86c12.8,8.75,23.73,20.94,32.25,34,.89,1.37,1.78,2.76,2.64,4.16.28.44.55.88.82,1.32,7.76,12.66,14.81,26,26.07,35.6,1.42,1.21,2.89,2.34,4.39,3.42l1.26.88c10.12,6.92,21.83,11.37,32.44,17.63A109,109,0,0,1,256.83,109.13Z" transform="translate(247.15 53.13)"/><path class="cls-17" d="M1366,107.07c5.52,6.43,10.3,13.61,12.75,21.53,3,9.64,2.32,19.41-.4,28.86a77.28,77.28,0,0,1-2.89,8.19,125.25,125.25,0,0,1-10.89,20.19,270.85,270.85,0,0,1-34.69,43q-3.2,3.24-6.51,6.36-5,4.72-10.2,9.18c-14.19,12.13-30.41,23.88-36.13,41.51-2.76,8.55-2.79,17.88-5.69,26.39a46.66,46.66,0,0,1-9.6,16.05,63.14,63.14,0,0,1-6.54,6.34,97.79,97.79,0,0,1-17.08,11.41c-14.43,7.75-30.23,13.26-43.86,22.21-15,9.86-26.59,23.33-37.35,37.58q-2.62,3.48-5.2,7c-4.86,6.65-9.65,13.36-14.58,19.87-4.76,6.26-9.87,12.51-16.74,16.58-4.91,2.91-10.52,4.6-16.18,5.9a141.23,141.23,0,0,1-31.94,3.45l-1.69,0a186.93,186.93,0,0,1-50.84-8.31l-1.48-.45a276.73,276.73,0,0,1-47.74-20.06l-1.34-.71c-7.55-4-14.91-8.35-22.05-12.84-5-3.17-10.14-6.61-13.19-11.58s-3.65-10.85-3.78-16.49c-.54-24.84,6-45.07,21.73-63.58q3.78-4.46,7.7-8.81,3-3.32,6-6.62c13.86-15.2,28-30.18,38.83-47.69q1.56-2.52,3-5.12,2.89-5.13,5.41-10.44a203.78,203.78,0,0,0,10.81-28.27q1.27-4.18,2.4-8.43a377.81,377.81,0,0,0,7.77-37.14c.41-2.55.82-5.1,1.2-7.65.88-5.75,1.73-11.52,2.63-17.27,2.68-17.18,5.81-34.24,11.76-50.4.51-1.38,1-2.75,1.59-4.12s1.07-2.61,1.64-3.89a143.3,143.3,0,0,1,50.86-60.55q4.15-2.81,8.51-5.35,6.06-3.51,12.45-6.44c8.75-4,18-7.2,27.76-8.28a76.2,76.2,0,0,1,28.34,2.49c.5.13,1,.27,1.49.42,14.89,4.32,29.08,12.48,41.26,22.23q1.9,1.54,3.8,3.13l1.2,1c11.32,9.6,22.18,20.05,35.87,25.67,1.73.71,3.48,1.33,5.24,1.88l1.48.45c11.77,3.41,24.28,4,36.32,6.61A109.07,109.07,0,0,1,1366,107.07Z" transform="translate(247.15 53.13)"/></g><g id="Layer_1" data-name="Layer 1"><rect class="cls-18" x="513.62" y="185.87" width="98.51" height="62.72"/><g class="cls-19"><path class="cls-20" d="M276.47,138.92h21.15a1,1,0,0,1,1,1v18a1,1,0,0,1-1,.95H276.47a1,1,0,0,1-1-.95v-18A1,1,0,0,1,276.47,138.92Z" transform="translate(247.15 53.13)"/></g><path class="cls-21" d="M276.75,139.08h20.62a1,1,0,0,1,1,.94v17.51a1,1,0,0,1-1,.95H276.75a1,1,0,0,1-1-.95V140A1,1,0,0,1,276.75,139.08Z" transform="translate(247.15 53.13)"/><path class="cls-22" d="M278.5,142.27h1.78a1,1,0,0,1,1,.95v1.3a1,1,0,0,1-1,.95H278.5a1,1,0,0,1-1-.95v-1.3A1,1,0,0,1,278.5,142.27Z" transform="translate(247.15 53.13)"/><path class="cls-23" d="M282.63,142.27h14.82a.18.18,0,0,1,.18.17v0a.18.18,0,0,1-.18.17H282.63a.18.18,0,0,1-.18-.17v0A.18.18,0,0,1,282.63,142.27Z" transform="translate(247.15 53.13)"/><path class="cls-23" d="M282.63,143.34h14.82a.17.17,0,0,1,.18.16v0a.17.17,0,0,1-.18.17H282.63a.17.17,0,0,1-.18-.17v0A.17.17,0,0,1,282.63,143.34Z" transform="translate(247.15 53.13)"/><path class="cls-23" d="M277.28,147.2h20.17a.18.18,0,0,1,.18.17v0a.18.18,0,0,1-.18.17H277.28a.18.18,0,0,1-.18-.17v0A.18.18,0,0,1,277.28,147.2Z" transform="translate(247.15 53.13)"/><path class="cls-23" d="M277.28,148.27h20.17a.17.17,0,0,1,.18.17v0a.17.17,0,0,1-.18.16H277.28a.17.17,0,0,1-.18-.16v0A.17.17,0,0,1,277.28,148.27Z" transform="translate(247.15 53.13)"/><path class="cls-23" d="M277.28,149.69h20.17a.17.17,0,0,1,.18.17v0a.17.17,0,0,1-.18.16H277.28a.17.17,0,0,1-.18-.16v0A.17.17,0,0,1,277.28,149.69Z" transform="translate(247.15 53.13)"/><path class="cls-23" d="M277.28,150.75h11.48a.18.18,0,0,1,.18.17v0a.18.18,0,0,1-.18.17H277.28a.18.18,0,0,1-.18-.17v0A.18.18,0,0,1,277.28,150.75Z" transform="translate(247.15 53.13)"/><path class="cls-23" d="M277.28,152.17h20.17a.18.18,0,0,1,.18.17v0a.18.18,0,0,1-.18.17H277.28a.18.18,0,0,1-.18-.17v0A.18.18,0,0,1,277.28,152.17Z" transform="translate(247.15 53.13)"/><path class="cls-23" d="M277.28,153.24h20.17a.17.17,0,0,1,.18.16v0a.17.17,0,0,1-.18.17H277.28a.17.17,0,0,1-.18-.17v0A.17.17,0,0,1,277.28,153.24Z" transform="translate(247.15 53.13)"/><path class="cls-23" d="M277.28,154.66h20.17a.17.17,0,0,1,.18.16v0a.17.17,0,0,1-.18.17H277.28a.17.17,0,0,1-.18-.17v0A.17.17,0,0,1,277.28,154.66Z" transform="translate(247.15 53.13)"/><path class="cls-23" d="M277.28,155.72h11.48a.18.18,0,0,1,.18.17v0a.18.18,0,0,1-.18.17H277.28a.18.18,0,0,1-.18-.17v0A.18.18,0,0,1,277.28,155.72Z" transform="translate(247.15 53.13)"/><g class="cls-19"><path class="cls-24" d="M280,143.52h21.15a1,1,0,0,1,1,.95v18a1,1,0,0,1-1,1H280a1,1,0,0,1-1-1v-18A1,1,0,0,1,280,143.52Z" transform="translate(247.15 53.13)"/></g><path class="cls-25" d="M280.25,143.67h20.62a1,1,0,0,1,1,1v17.5a1,1,0,0,1-1,.95H280.25a1,1,0,0,1-1-.95v-17.5A1,1,0,0,1,280.25,143.67Z" transform="translate(247.15 53.13)"/><path class="cls-22" d="M282,146.87h1.78a1,1,0,0,1,1,.94v1.3a1,1,0,0,1-1,.95H282a1,1,0,0,1-1-.95v-1.3A1,1,0,0,1,282,146.87Z" transform="translate(247.15 53.13)"/><path class="cls-23" d="M286.13,146.87H301a.17.17,0,0,1,.18.16v0a.17.17,0,0,1-.18.17H286.13a.17.17,0,0,1-.18-.17v0A.17.17,0,0,1,286.13,146.87Z" transform="translate(247.15 53.13)"/><path class="cls-23" d="M286.13,147.93H301a.18.18,0,0,1,.18.17v0a.18.18,0,0,1-.18.17H286.13a.18.18,0,0,1-.18-.17v0A.18.18,0,0,1,286.13,147.93Z" transform="translate(247.15 53.13)"/><path class="cls-23" d="M280.78,151.8H301a.17.17,0,0,1,.18.17v0a.17.17,0,0,1-.18.16H280.78a.17.17,0,0,1-.18-.16v0A.17.17,0,0,1,280.78,151.8Z" transform="translate(247.15 53.13)"/><path class="cls-23" d="M280.78,152.86H301a.18.18,0,0,1,.18.17v0a.18.18,0,0,1-.18.17H280.78a.18.18,0,0,1-.18-.17v0A.18.18,0,0,1,280.78,152.86Z" transform="translate(247.15 53.13)"/><path class="cls-23" d="M280.78,154.28H301a.18.18,0,0,1,.18.17v0a.18.18,0,0,1-.18.17H280.78a.18.18,0,0,1-.18-.17v0A.18.18,0,0,1,280.78,154.28Z" transform="translate(247.15 53.13)"/><rect class="cls-23" x="527.75" y="208.47" width="11.84" height="0.36" rx="0.17"/><path class="cls-23" d="M280.78,156.77H301a.17.17,0,0,1,.18.16v0a.17.17,0,0,1-.18.17H280.78a.17.17,0,0,1-.18-.17v0A.17.17,0,0,1,280.78,156.77Z" transform="translate(247.15 53.13)"/><path class="cls-23" d="M280.78,157.83H301a.18.18,0,0,1,.18.17v0a.18.18,0,0,1-.18.17H280.78a.18.18,0,0,1-.18-.17v0A.18.18,0,0,1,280.78,157.83Z" transform="translate(247.15 53.13)"/><path class="cls-23" d="M280.78,159.25H301a.18.18,0,0,1,.18.17v0a.18.18,0,0,1-.18.17H280.78a.18.18,0,0,1-.18-.17v0A.18.18,0,0,1,280.78,159.25Z" transform="translate(247.15 53.13)"/><path class="cls-23" d="M280.78,160.32h11.48a.17.17,0,0,1,.18.16v0a.17.17,0,0,1-.18.17H280.78a.17.17,0,0,1-.18-.17v0A.17.17,0,0,1,280.78,160.32Z" transform="translate(247.15 53.13)"/><rect class="cls-26" x="558.87" y="199.65" width="12.77" height="11.4"/><rect class="cls-21" x="559.07" y="199.93" width="12.37" height="10.89"/><g class="cls-27"><rect class="cls-12" x="563.13" y="206.4" width="4.46" height="0.56"/></g><rect class="cls-28" x="561.45" y="207.42" width="7.61" height="0.56"/><g class="cls-19"><rect class="cls-29" x="577.49" y="189.67" width="27.85" height="30.41"/></g><rect class="cls-25" x="578.35" y="190.16" width="26.4" height="29.25"/><rect class="cls-23" x="582.3" y="202.99" width="18.57" height="0.73"/><rect class="cls-23" x="582.3" y="207.83" width="18.57" height="0.73"/><rect class="cls-23" x="582.3" y="209.11" width="18.57" height="0.73"/><rect class="cls-23" x="582.3" y="206.54" width="7.84" height="0.73"/><rect class="cls-30" x="595.01" y="206.54" width="5.86" height="0.73"/><rect class="cls-22" x="588.82" y="212.11" width="5.86" height="0.73"/><g class="cls-19"><rect class="cls-31" x="561.24" y="228.64" width="16.55" height="12.63"/></g><rect class="cls-32" x="561.44" y="228.88" width="16.13" height="12.18"/><rect class="cls-22" x="561.44" y="228.88" width="16.13" height="2.72"/><rect class="cls-33" x="561.44" y="228.88" width="16.13" height="2.72"/><rect class="cls-23" x="562.72" y="232.58" width="13.56" height="1.58"/><rect class="cls-23" x="562.72" y="235.36" width="9.9" height="0.54"/><rect class="cls-23" x="562.72" y="236.28" width="6.43" height="0.54"/><rect class="cls-23" x="562.72" y="237.21" width="8.48" height="0.54"/><rect class="cls-23" x="562.72" y="238.13" width="9.9" height="0.54"/><rect class="cls-23" x="562.72" y="239.06" width="3.31" height="0.54"/><g class="cls-19"><rect class="cls-34" x="550.88" y="224" width="20.51" height="15.66"/></g><rect class="cls-25" x="551.12" y="224.3" width="19.99" height="15.1"/><rect class="cls-22" x="551.12" y="224.3" width="19.99" height="3.37"/><rect class="cls-21" x="552.71" y="228.89" width="16.81" height="1.96"/><rect class="cls-23" x="552.71" y="232.33" width="12.27" height="0.67"/><rect class="cls-23" x="552.71" y="233.48" width="7.97" height="0.67"/><rect class="cls-23" x="552.71" y="234.63" width="10.51" height="0.67"/><rect class="cls-23" x="552.71" y="235.77" width="12.27" height="0.67"/><rect class="cls-23" x="552.71" y="236.92" width="4.1" height="0.67"/><rect class="cls-35" x="553.59" y="229.56" width="4.78" height="0.59"/><rect class="cls-36" x="342.29" y="296.04" width="10.47" height="136.02"/><g class="cls-37"><path class="cls-38" d="M256.58,143.53H165.74a3.13,3.13,0,0,0-2.93,3.28v69.51a3.13,3.13,0,0,0,2.93,3.28H197v12h-1.42a1.59,1.59,0,0,0-1.49,1.67h0v2.4H197v1.43h28.36v-1.43h2.9v-2.4a1.58,1.58,0,0,0-1.48-1.67h-1.34v-.1h-.09V219.6h31.25a3.13,3.13,0,0,0,2.93-3.28V146.81A3.13,3.13,0,0,0,256.58,143.53Z" transform="translate(247.15 53.13)"/></g><rect class="cls-28" x="444.4" y="270.65" width="27.99" height="18.35"/><g class="cls-39"><path d="M197.81,219.32h26.94c.32-1.57.58-2.59.58-2.59H197.17S197.45,217.75,197.81,219.32Z" transform="translate(247.15 53.13)"/></g><path class="cls-28" d="M166.42,144.13h89.66a3.06,3.06,0,0,1,2.89,3.21v61.41H163.53V147.34a3.06,3.06,0,0,1,2.89-3.21Z" transform="translate(247.15 53.13)"/><path class="cls-28" d="M256.08,218.73H166.42a3.06,3.06,0,0,1-2.89-3.22v-6.76H259v6.76A3.06,3.06,0,0,1,256.08,218.73Z" transform="translate(247.15 53.13)"/><path class="cls-28" d="M195.85,230.49h30.8a1.55,1.55,0,0,1,1.46,1.63v2.36H194.39v-2.36a1.55,1.55,0,0,1,1.46-1.63Z" transform="translate(247.15 53.13)"/><g class="cls-19"><path class="cls-40" d="M182.46,157.72H240a.85.85,0,0,1,.81.9v35.65a.86.86,0,0,1-.81.9H182.46a.86.86,0,0,1-.81-.9V158.62A.85.85,0,0,1,182.46,157.72Z" transform="translate(247.15 53.13)"/></g><path class="cls-25" d="M183.21,158h56.07a.85.85,0,0,1,.81.9v34.9a.85.85,0,0,1-.81.89H183.21a.85.85,0,0,1-.8-.89v-34.9A.85.85,0,0,1,183.21,158Z" transform="translate(247.15 53.13)"/><g class="cls-19"><path class="cls-12" d="M199.28,163.26H204a.85.85,0,0,1,.8.9v4.57a.85.85,0,0,1-.8.89h-4.75a.85.85,0,0,1-.8-.89v-4.57A.85.85,0,0,1,199.28,163.26Z" transform="translate(247.15 53.13)"/></g><path class="cls-23" d="M207.06,163.26h16.53a.34.34,0,0,1,.32.35h0a.35.35,0,0,1-.32.36H207.06a.34.34,0,0,1-.32-.36h0A.34.34,0,0,1,207.06,163.26Z" transform="translate(247.15 53.13)"/><path class="cls-23" d="M207.06,165.38h13.63a.34.34,0,0,1,.32.36h0a.34.34,0,0,1-.32.35H207.06a.34.34,0,0,1-.32-.35h0A.34.34,0,0,1,207.06,165.38Z" transform="translate(247.15 53.13)"/><g class="cls-19"><path class="cls-12" d="M199.28,173.16H204a.85.85,0,0,1,.8.89v4.57a.85.85,0,0,1-.8.9h-4.75a.85.85,0,0,1-.8-.9v-4.57A.85.85,0,0,1,199.28,173.16Z" transform="translate(247.15 53.13)"/></g><path class="cls-23" d="M207.06,173.16h16.53a.34.34,0,0,1,.32.35h0a.34.34,0,0,1-.32.35H207.06a.33.33,0,0,1-.32-.35h0A.34.34,0,0,1,207.06,173.16Z" transform="translate(247.15 53.13)"/><path class="cls-23" d="M207.06,175.28h16.53a.34.34,0,0,1,.32.35h0a.34.34,0,0,1-.32.35H207.06a.33.33,0,0,1-.32-.35h0A.34.34,0,0,1,207.06,175.28Z" transform="translate(247.15 53.13)"/><g class="cls-19"><path class="cls-12" d="M199.28,183.05H204a.86.86,0,0,1,.8.9v4.57a.86.86,0,0,1-.8.9h-4.75a.86.86,0,0,1-.8-.9V184A.86.86,0,0,1,199.28,183.05Z" transform="translate(247.15 53.13)"/></g><path class="cls-23" d="M207.06,183.05h16.53a.35.35,0,0,1,.32.36h0a.34.34,0,0,1-.32.35H207.06a.34.34,0,0,1-.32-.35h0A.34.34,0,0,1,207.06,183.05Z" transform="translate(247.15 53.13)"/><path class="cls-23" d="M207,185.17h16.71a.31.31,0,0,1,.28.32v.07a.3.3,0,0,1-.28.32H207a.3.3,0,0,1-.29-.32v-.07A.31.31,0,0,1,207,185.17Z" transform="translate(247.15 53.13)"/><line class="cls-41" x1="458.4" y1="205.04" x2="458.4" y2="200.65"/><line class="cls-41" x1="458.4" y1="212.42" x2="458.4" y2="206.66"/><ellipse class="cls-12" cx="458.4" cy="212.42" rx="0.72" ry="0.8"/><ellipse class="cls-42" cx="458.4" cy="205.83" rx="0.72" ry="0.8"/><line class="cls-41" x1="458.4" y1="205.04" x2="458.4" y2="200.65"/><line class="cls-41" x1="458.4" y1="212.42" x2="458.4" y2="206.66"/><ellipse class="cls-12" cx="458.4" cy="212.42" rx="0.72" ry="0.8"/><ellipse class="cls-42" cx="458.4" cy="205.83" rx="0.72" ry="0.8"/><line class="cls-41" x1="458.4" y1="252.31" x2="458.4" y2="258.49"/><line class="cls-41" x1="458.4" y1="246.72" x2="458.4" y2="252.48"/><ellipse class="cls-12" cx="458.4" cy="246.72" rx="0.72" ry="0.8"/><line class="cls-41" x1="426.11" y1="230.27" x2="420.45" y2="230.27"/><line class="cls-41" x1="431.04" y1="230.27" x2="425.86" y2="230.27"/><ellipse class="cls-12" cx="431.04" cy="230.27" rx="0.72" ry="0.8"/><g class="cls-39"><rect x="444.49" y="283.52" width="27.99" height="0.6"/></g><rect class="cls-23" x="297.68" y="286.53" width="321.25" height="6.57"/><rect class="cls-23" x="304.36" y="293.1" width="294.03" height="2.69"/><rect class="cls-3" x="304.36" y="292.68" width="294.03" height="0.9"/><line class="cls-41" x1="495.08" y1="230.27" x2="496.16" y2="230.27"/><line class="cls-41" x1="485.58" y1="230.27" x2="493.63" y2="230.27"/><ellipse class="cls-12" cx="485.58" cy="230.27" rx="0.72" ry="0.8"/><ellipse class="cls-42" cx="494.37" cy="230.27" rx="0.72" ry="0.8"/><path class="cls-43" d="M168.85,146.33h84.62a2.89,2.89,0,0,1,2.72,3v58H166.12v-58a2.89,2.89,0,0,1,2.73-3Z" transform="translate(247.15 53.13)"/><path class="cls-43" d="M253.47,216.73H168.85a2.89,2.89,0,0,1-2.73-3v-6.38h90.07v6.38A2.89,2.89,0,0,1,253.47,216.73Z" transform="translate(247.15 53.13)"/><g class="cls-39"><path class="cls-44" d="M63.94,941.07a10.7,10.7,0,0,1-1.27-.05h-.28V939A8.21,8.21,0,0,1,63.94,941.07Z" transform="translate(247.15 53.13)"/></g><rect class="cls-45" x="518.44" y="235.13" width="33.31" height="51.66" rx="1.8"/><circle class="cls-3" cx="535.1" cy="248.28" r="7.72"/><circle class="cls-3" cx="535.1" cy="248.28" r="7.19"/><circle class="cls-3" cx="535.1" cy="270.97" r="10.38"/><circle class="cls-3" cx="535.1" cy="270.97" r="9.66"/><rect class="cls-45" x="365.54" y="234.62" width="33.31" height="51.66" rx="1.8"/><circle class="cls-3" cx="382.19" cy="247.77" r="7.72"/><circle class="cls-3" cx="382.19" cy="247.77" r="7.19"/><circle class="cls-3" cx="382.19" cy="270.46" r="10.38"/><circle class="cls-3" cx="382.19" cy="270.46" r="9.66"/><rect class="cls-23" x="344.49" y="296.04" width="5.68" height="136.02"/><rect class="cls-36" x="562.87" y="296.04" width="10.47" height="136.02"/><rect class="cls-23" x="565.08" y="296.04" width="5.68" height="136.02"/><circle class="cls-44" cx="458.49" cy="225.23" r="14.41"/><path class="cls-32" d="M208.16,166.5v12.26a.31.31,0,0,0,.3.33.25.25,0,0,0,.17,0l9.72-6.13a.35.35,0,0,0,.1-.48l-.1-.1-9.72-6.13a.31.31,0,0,0-.43.11A.27.27,0,0,0,208.16,166.5Z" transform="translate(247.15 53.13)"/><path class="cls-32" d="M179.21,209.86V204a.16.16,0,0,1,.17-.17H180a.16.16,0,0,1,.16.16h0v2.44l2.72-2.51a.45.45,0,0,1,.63.06.48.48,0,0,1,.1.28v5.32a.45.45,0,0,1-.45.44.4.4,0,0,1-.28-.1l-2.73-2.5v2.44a.15.15,0,0,1-.16.16h-.65A.17.17,0,0,1,179.21,209.86Z" transform="translate(247.15 53.13)"/><path class="cls-32" d="M244.75,204v5.87a.18.18,0,0,1-.17.17h-.67a.16.16,0,0,1-.16-.16h0V207.4L241,209.91a.44.44,0,0,1-.62-.06.37.37,0,0,1-.1-.28v-5.31a.43.43,0,0,1,.44-.44.42.42,0,0,1,.28.1l2.72,2.5V204a.16.16,0,0,1,.16-.17h.67A.17.17,0,0,1,244.75,204Z" transform="translate(247.15 53.13)"/><path class="cls-32" d="M210.86,210.13h-1.33a.65.65,0,0,1-.65-.65v-4.89a.65.65,0,0,1,.65-.65h1.33a.65.65,0,0,1,.65.65v4.87a.65.65,0,0,1-.63.67Zm4.21-.65v-4.89a.65.65,0,0,0-.66-.65h-1.32a.65.65,0,0,0-.65.65v4.87a.65.65,0,0,0,.65.65h1.32a.65.65,0,0,0,.66-.65h0Z" transform="translate(247.15 53.13)"/><rect x="419.99" y="249.17" width="78.26" height="0.87"/><circle class="cls-32" cx="444.15" cy="249.6" r="2.06"/><rect class="cls-32" x="419.99" y="249.17" width="24.17" height="0.87"/><path class="cls-44" d="M90.5,217.43c0,8.06-4.79,10.88-10.7,10.88h-.41l-.81,0c-5.34-.37-9.48-3.33-9.48-10.83,0-7.76,9.91-17.54,10.66-18.27h0l0,0S90.5,209.37,90.5,217.43Z" transform="translate(247.15 53.13)"/><path class="cls-32" d="M79.41,227.07l3.92-5.47-3.93,6.07v.63l-.81,0L79,220.2v-.08l0-.76-3.93-6.08,4,5.51V219l.31-6.09L76,206.57l3.41,5.22.33-12.63v0l-.06,10,3.36-4L79.69,210l-.09,5.45,3.13-5.23-3.14,6,0,3L84.08,212l-4.56,8.35Z" transform="translate(247.15 53.13)"/><rect class="cls-22" x="311.95" y="274.56" width="30.33" height="12.91" rx="6.1"/><g class="cls-37"><path class="cls-46" d="M346.48,213v-4.65H323.23v21.51a4.53,4.53,0,0,0,4.53,4.53H342a4.53,4.53,0,0,0,4.53-4.53v-4.77a6,6,0,1,0,0-12.09Zm0,9.77v-7.45a3.73,3.73,0,1,1,0,7.45Z" transform="translate(247.15 53.13)"/></g><path class="cls-22" d="M345.74,213.72a5.52,5.52,0,1,0,5.52,5.52,5.52,5.52,0,0,0-5.52-5.52Zm0,8.91a3.4,3.4,0,1,1,3.39-3.39h0A3.39,3.39,0,0,1,345.74,222.63Z" transform="translate(247.15 53.13)"/><path class="cls-3" d="M345.74,213.72a5.52,5.52,0,1,0,5.52,5.52,5.52,5.52,0,0,0-5.52-5.52Zm0,8.91a3.4,3.4,0,1,1,3.39-3.39h0A3.39,3.39,0,0,1,345.74,222.63Z" transform="translate(247.15 53.13)"/><path class="cls-22" d="M324.5,209.47h21.24v19.62a4.17,4.17,0,0,1-4.17,4.16H328.66a4.16,4.16,0,0,1-4.16-4.16V209.47Z" transform="translate(247.15 53.13)"/><path class="cls-3" d="M341.91,209.47v19.64a4.14,4.14,0,0,1-4.14,4.14h2.13a4.14,4.14,0,0,0,4.14-4.14V209.47Z" transform="translate(247.15 53.13)"/></g><g id="Layer_3" data-name="Layer 3"><path class="cls-47" d="M709.54,69.7s-1.27-4.56-3.17-5.7v5.7s-7.59-1.14-13,4.56l5.07,1.14s-7.44,2.46-9,13.1L692.6,87l8.55,18.24,5.38-9.88,10.77,11-2.54-6.07,4.12,1.9L716,97.24l12.66,5.7-1-3,4.64,7.77s15.94-16.51-1.47-34C730.91,73.69,723,65.33,709.54,69.7Z" transform="translate(247.15 53.13)"/><path class="cls-48" d="M708.08,110.27s4.72,17.93,3.3,20.29,13.69,15.1,13.69,15.1l14.63-2.83.94-20.29s-13.21-11.33-10.38-19.82Z" transform="translate(247.15 53.13)"/><path class="cls-3" d="M708.08,110.27s4.72,17.93,3.3,20.29,13.69,15.1,13.69,15.1l14.63-2.83.94-20.29s-13.21-11.33-10.38-19.82Z" transform="translate(247.15 53.13)"/><path class="cls-47" d="M695.81,223.53s-3.78,23.59-.95,42.94,4.25,33.51,2.84,36.34-2.84,2.36-1.89,5.66,2.83,1.89.94,5.19-1.41,9-1.41,10.39-2.36,32.09,0,35.39,3.3,2.83,3.3,2.83l2.83,17,15.1-2.36-2.36-15.57s5.67-2.83,3.31-4.72-3.78-1.89-2.36-1.89,3.77-.47,1.88-1.41-.47-26.43-.47-26.43,3.31-46.72,16.52-45.31,23.6,28.79,23.6,28.79l3.77,12.27s1.42,23.12,2.36,25,.47,2.36,0,3.31-3.77-1.42-.47,2.36,3.3,5.19,3.3,5.19l2.13,24.77,15.33-9.67V359s2.84-4.72,1.89-8.5-.94-21.7,0-25,.47-4.25-.47-5.66-3.3-.47-1.42-3.78,3.31-11.79.48-17.93-18.41-66.54-25-69.84S695.81,223.53,695.81,223.53Z" transform="translate(247.15 53.13)"/><path class="cls-44" d="M716.57,368.88s-10.85-1.89-11.32.94a31.79,31.79,0,0,0,0,7.08s-3.78.47-3.31,3.78.95,12.27.95,12.27-5.9,13.92-2.6,17.22c0,0,6.52-.23,10.25-.23h13.58s1.89-6.61,0-7.56S718,393,718.46,391.06s0-15.57,0-15.57l-2.08.11Z" transform="translate(247.15 53.13)"/><path class="cls-44" d="M771.79,377.37l-5.67,4.25s2.36,8,1,9.44-4.48,17.7-1.65,18.64,20.29-.47,20.29-.47,19.58.71,20.06-.24,1.41-6.61-4.25-8.49-9-1.42-10.86-7.08a139.11,139.11,0,0,0-6.13-14.16l-.94-10.38s-5.67.94-6.61.94-5.66,2.36-5.19,4.25A6.37,6.37,0,0,1,771.79,377.37Z" transform="translate(247.15 53.13)"/><circle class="cls-48" cx="963.25" cy="149.71" r="19.58"/><path class="cls-49" d="M728.84,130.09l7.08-12.38s16.52-.84,17.46,1.05,9,95.33,9,95.33,3.77,5.19,1.41,8.49l-2.35,3.31v6.6s-11.8,9.44-27.85,7.55-36.34-10.38-36.34-10.38l4.25-26.43L701,125.37l9.51-4.64s10.78,7.47,12.67,9.83S728.84,130.09,728.84,130.09Z" transform="translate(247.15 53.13)"/><path class="cls-50" d="M712.33,130.09l-2.13-12.51-29,20.53,16,47.19s-9.91,17.93-8,24.54A113.83,113.83,0,0,1,692,226.36s25.49,6.61,25,3.3,0-17.93,0-17.93,8.26-61.12,4.13-70.44S712.33,130.09,712.33,130.09Z" transform="translate(247.15 53.13)"/><path class="cls-50" d="M738.28,124l-4.48-8.73c0-.27,31.85,4.13,33.27,6.84l-3.78,72.68s.47,10.38,2.83,13.21,1.89,7.55,1,8-16.52,5.19-16.52,5.19-15.1-26-13.68-57.1S738.28,124,738.28,124Z" transform="translate(247.15 53.13)"/><path class="cls-50" d="M761.41,122.54l5-1.07a10.57,10.57,0,0,1,4.44,4.84c1.42,3.31,17.94,38.7,17.94,41.06s.47,19.82-9.91,19.82-18.41-44.36-18.41-44.36Z" transform="translate(247.15 53.13)"/><polygon class="cls-48" points="937.77 297.89 946.26 310.63 950.98 294.59 947.68 289.87 937.77 297.89"/><polygon class="cls-50" points="932.58 191.71 928.33 191.24 917.95 246.92 935.88 302.61 951.45 290.81 940.6 253.53 944.37 224.74 932.58 191.71"/><path class="cls-47" d="M736.55,91.06C734,81.6,725.84,74.7,716.24,74.7a20.69,20.69,0,0,0-16.94,9.12l4.85,9.29,4.83-8L718.64,94l-2.27-4.9,3.69,1.53-2.56-4,11.37,4.59L728,88.82l5.4,7.05A21.72,21.72,0,0,0,736.55,91.06Z" transform="translate(247.15 53.13)"/><polygon class="cls-3" points="1005.49 198.55 1018.2 209.64 1011.62 195.25 1005.49 198.55"/><path class="cls-51" d="M753.05,128l-.44-.17,2.39-6a1.41,1.41,0,0,0-.78-1.81h0l-13.56-5.4a1.4,1.4,0,0,0-1.81.78h0l-11.12,27.94a1.39,1.39,0,0,0,.78,1.81l13.56,5.4a1.41,1.41,0,0,0,1.81-.78h0l5.73-14.41.45.17Z" transform="translate(247.15 53.13)"/><circle class="cls-12" cx="991.57" cy="177.71" r="2.38"/><path class="cls-48" d="M752.91,143.77s-6.13-18.87-13.68-15.57,2.83,23.12,2.83,23.12l6.6,4.25Z" transform="translate(247.15 53.13)"/><path class="cls-50" d="M785.47,167.84l-33-26-11.8,17.46s31.15,33,38.23,26.42S785.47,167.84,785.47,167.84Z" transform="translate(247.15 53.13)"/><path class="cls-52" d="M653.53,179.3s-4.75-12.13-20.93-22.94-16-17.23-16-17.23-3-22.69-7-29-6.28-15.48-6.28-15.48l-.44.55a4.79,4.79,0,0,0-.05-.49c-.41-3.35-1.45-9.65-3.19-7.71,0,0-.39.33-1.06.84l-.27-.35c-1.59-2.06-4.19-5.5-4.19-6.08,0-.84-19.88-16.11-24.93-18.47-3.56-1.66-11.2-5.94-15.38-8.33a9.69,9.69,0,0,0-6.46-1.11c-6.11,1.06-17.78,3.81-16.22,9.07,2.09,7.08,10.18,5.13,15.7,1.11,0,0,4.86-1.86,10.37,3.64S585.35,89,585.35,89l1.88,5.23.18.5a5,5,0,0,1-2.06.34c-1.71-.22-1,1.46.24,3.33.17.26.35.52.55.78l-.68-.28.36.71-.36-.15s8.75,16.78,9.32,20a26.8,26.8,0,0,1,.41,4.2c0,1.46-.22,2.6-.6,2.88-.76.56-3,6.35-3,6.35l-8.95.38h0l-.8-.1-.55-.08v-.21a16.22,16.22,0,0,0-3.62-10.21h.13c1.89-4.11-2.18-8.4-3.06-12.85a27.81,27.81,0,0,1-.28-4.37,17,17,0,0,0-.15-1.75c-.92-6.14-6.75-10.24-12.44-12.57-3.33-1.39-7.22-2.41-10.52-.93-3.86,1.71-5.72,6.21-9.2,8.61-5.56,3.83-13.12,1.19-19.76,2.32a10,10,0,0,0-6.67,3.75,12.19,12.19,0,0,0-1.67,6.65c-.16,6.15,1.07,12.44-.55,18.34-2.64,9.65-11.85,15.56-18.74,22.74a55.44,55.44,0,0,0-10.56,15.66c-1,2.19-1.74,5-.16,6.81.91,1,2.34,1.39,3.28,2.36,1.21,1.24,1.37,3.18,1.15,4.9-.83,6.41-5.64,11.38-9.45,16.58s-6.7,12.35-3.48,17.92c2.78,4.8,8.86,6.23,14.27,7.23a9.83,9.83,0,0,0,5.19,0,8.64,8.64,0,0,0,3.53-3.11,43.51,43.51,0,0,0,5.52-9.52c.7-1.67,1.39-3.5,2.93-4.45,1.36-.82,3.06-.71,4.65-.58l11.89,1a6.77,6.77,0,0,0,3-.2,5.66,5.66,0,0,0,2.6-2.54,22.54,22.54,0,0,0,2.12-5c1.43-4.63,2.23-9.58,5.56-12.9,3-3,7.47-3.83,11.67-3.89,2.57,0,5.13.24,7.69.34.72,0,1.45.06,2.17.06.48,0,1,0,1.45,0,1,6.59,2.12,16.35,1.2,19.05a21.25,21.25,0,0,0-1.33,6.9l.66.33c-.07.15-.13.3-.19.47-.69,1.86-1.17,4.6,1,6.34a8.31,8.31,0,0,0,1.11.75l-.16.46c-2.07,6-6.83,20.08-7.28,23.82-.55,4.81-7.42,19.41-7.42,19.41s-18.64,15.33-1.85,20.88a34.14,34.14,0,0,1,5.14-10.29,28.13,28.13,0,0,0,4.72-8.94,14.66,14.66,0,0,1,2-3.94c1.49-2.13,4.66-8.65,7.61-15l2.37.51c-1.19,5.14-1.51,14,2.91,28.1,0,0,.1.56.25,1.44a1.3,1.3,0,0,0-.31-.16c-2.11-.88-5.42,2.13-7.4,6.72-1.81,4.2-1.88,8.26-.25,9.59a1.9,1.9,0,0,0,.49.3,2.41,2.41,0,0,0,1.81-.05l.08,0a5.28,5.28,0,0,0,1.3-.76c1.59-.4,3.22-1.16,4.85-1.07a5.44,5.44,0,0,1,1.27.21c.11,1.66.17,3.28.12,4.66-.21,7.35-.35,10.56-.35,10.56s-1.07,5.45-1.93,6.78-1.78,29.46,1.78,42.95c0,0,2.43,13.07,1.36,15.31v0a12.3,12.3,0,0,0-.79,3.69,32.38,32.38,0,0,0-.11,3.27l-5.14,15.73s-.14.28-.32.73a8.29,8.29,0,0,0-.61,4.23A4.25,4.25,0,0,0,567,398h0s-.73,6.93,7.09,6.81,9.18-5.36,9.18-5.36l-.56-2.45a1.81,1.81,0,0,0,.1-.61s-.06-.86-.12-2.16c-.14-3.4-.3-9.8.48-11.27,1.07-2,.42-10.7.42-10.7l-.28-2.36-.3-2.47-.41-3.49s-.13-14.9,1.18-17.06,5.15-20.29,4-32.54a14.77,14.77,0,0,1,.71-5.94c1.16-3.6,2.78-9.6,2.33-13.84,0-.41-.07-.93-.08-1.56a10.54,10.54,0,0,0,8.16,4.8h.26a10.36,10.36,0,0,0,6.71-2c4-3,8.33-7.89,10.74-16A58.65,58.65,0,0,1,619,273c2.22-5.09,6-14.64,6.85-21.49l.23.24s5.34-15.88,5.19-22.08a5.47,5.47,0,0,0-.33-2.4l-.06-.49a.13.13,0,0,1,.06-.07s-2.11-16.62-2.85-30.79l6.84-5.11s-3.23-6.67-1.14-7.92,5.14,6.61,5.14,6.61S659.25,190.67,653.53,179.3Zm-76.4,18.37,4.34-4.37c.42,2.4-.59,5.27-4.44,8.56l-.14,0C577.13,199.52,577.13,197.67,577.13,197.67Zm-5.19-48s-.5.38-1.31,1c-.14-.79-.29-1.58-.44-2.37.24.15.48.3.71.46a9.68,9.68,0,0,1,1,.88Zm21.92,102.65.55-4.62,1.22.8a59.61,59.61,0,0,0-2.46,9.87c.29-3,.52-5.16.62-6.12Zm-1.11,14.78a6.71,6.71,0,0,1-.32,2.56h-.3c.19-2.15.38-4.25.55-6.21,0,1.22,0,2.43.08,3.65Z" transform="translate(247.15 53.13)"/><path class="cls-48" d="M563.2,282.79v6.11c2.44.91,5-1.2,7.6-1.06,1.52.07,2.9.91,4.4,1.17a1.44,1.44,0,0,0,1.11-.16,1.6,1.6,0,0,0,.46-1.05c.55-3.25,1.16-11.12-3.89-11.67C569.14,275.7,567.71,282.36,563.2,282.79Z" transform="translate(247.15 53.13)"/><path class="cls-3" d="M563.2,282.79v6.11c2.44.91,5-1.2,7.6-1.06,1.52.07,2.9.91,4.4,1.17a1.44,1.44,0,0,0,1.11-.16,1.6,1.6,0,0,0,.46-1.05c.55-3.25,1.16-11.12-3.89-11.67C569.14,275.7,567.71,282.36,563.2,282.79Z" transform="translate(247.15 53.13)"/><path class="cls-53" d="M570.19,283.06c-1.42,3.33-3.53,5.85-5.37,6.59l-.08,0a2.38,2.38,0,0,1-1.76.05,1.61,1.61,0,0,1-.48-.3c-1.58-1.32-1.52-5.36.24-9.53,1.93-4.56,5.16-7.55,7.23-6.67S572.12,278.5,570.19,283.06Z" transform="translate(247.15 53.13)"/><path class="cls-53" d="M567,395.66l-.1,1.45s-.69,6.84,6.91,6.74,8.94-5.32,8.94-5.32l-.78-3.47Z" transform="translate(247.15 53.13)"/><path class="cls-48" d="M593.07,251.89s-3.68,36.05-3,42.44c.45,4.22-1.11,10.18-2.27,13.75a14.76,14.76,0,0,0-.69,5.9c1.11,12.17-2.69,30.33-3.89,32.32-1.27,2.16-1.15,16.95-1.15,16.95l.4,3.48.29,2.45.27,2.34s.63,8.62-.41,10.63c-.75,1.46-.6,7.81-.46,11.2.06,1.28.11,2.14.11,2.14a2.49,2.49,0,0,1-.63,1.62c-.94,1.16-3.27,2.47-9,2.27-4.6-.16-6.12-2.08-6.47-4.1a8.5,8.5,0,0,1,.59-4.2c.18-.45.32-.73.32-.73l5-15.63a32.08,32.08,0,0,1,.11-3.25,11.73,11.73,0,0,1,.77-3.65v-.05c1-2.22-1.32-15.21-1.32-15.21-3.47-13.41-2.57-41.34-1.74-42.66s1.93-6.71,1.93-6.71.13-3.2.35-10.5S570,272,570,272c-7.85-25.57-.35-33.84-.35-33.84l23.41,5.49Z" transform="translate(247.15 53.13)"/><path class="cls-53" d="M582.8,369.18c-2.55.84-7.78,2.45-10.6,2.29a12,12,0,0,1,.78-3.65c2.29.46,6.18.8,9.53-1.12Z" transform="translate(247.15 53.13)"/><path class="cls-53" d="M581.67,397.12c-3.45-1.81-10-4.39-15.49-1.84a8.58,8.58,0,0,1,.6-4.19c3.21-.43,10-.83,15.42,2.26,0,1.29.11,2.14.11,2.14A2.52,2.52,0,0,1,581.67,397.12Z" transform="translate(247.15 53.13)"/><path class="cls-48" d="M571.24,214.88v14.27s-10.65,24.78-13.78,29.31a14.84,14.84,0,0,0-1.91,3.92,28.08,28.08,0,0,1-4.6,8.89,34.12,34.12,0,0,0-5,10.23c-16.35-5.52,1.8-20.75,1.8-20.75s6.67-14.5,7.23-19.27c.43-3.72,5.06-17.69,7.08-23.67.56-1.66.93-2.73.93-2.73Z" transform="translate(247.15 53.13)"/><path class="cls-54" d="M594.19,270.4s-5.72-3.89-8,6.67,6.31,13.34,6.31,13.34Z" transform="translate(247.15 53.13)"/><path class="cls-55" d="M594.19,270.4s-5.72-3.89-8,6.67,6.31,13.34,6.31,13.34Z" transform="translate(247.15 53.13)"/><path class="cls-48" d="M596.53,244.16s-5.31,11.61-4.52,23a6.59,6.59,0,0,1-.5,3.07,40,40,0,0,0-3,17.59v.33a10.14,10.14,0,0,0,16.21,7.42c3.89-2.94,8.12-7.84,10.47-15.92A59.61,59.61,0,0,1,617.5,273c2.78-6.5,8.13-20.35,6.53-26.34C621.91,238.72,596.53,244.16,596.53,244.16Z" transform="translate(247.15 53.13)"/><path class="cls-3" d="M623.73,246.66c-.93-3.48-6.27-4.39-12-4.33,5.29.07,10,1.11,10.89,4.33,1.6,6-3.76,19.84-6.53,26.34a59.61,59.61,0,0,0-2.31,6.62c-2.35,8.08-6.57,13-10.46,15.92a9.92,9.92,0,0,1-5.52,2,10,10,0,0,0,6.63-2c3.89-2.93,8.11-7.84,10.46-15.92a57.69,57.69,0,0,1,2.32-6.62C620,266.51,625.33,252.65,623.73,246.66Z" transform="translate(247.15 53.13)"/><path class="cls-3" d="M567.58,226s-4.1,16.12-5,17.09c0,0,26.68,5.34,30.49,9.37l.56-4.58,1.88,1.25s15.42-11,28.9,2.78c0,0,6.6-20,4.72-23.76s-24.38-.49-24.38-.49Z" transform="translate(247.15 53.13)"/><path class="cls-56" d="M567.58,225.42s-4.1,16.12-5,17.09c0,0,26.68,5.35,30.49,9.38l.56-4.59,1.88,1.25s15.42-11,28.9,2.78c0,0,6.6-20,4.72-23.76s-24.38-.48-24.38-.48Z" transform="translate(247.15 53.13)"/><path class="cls-57" d="M566.83,129.4a12.39,12.39,0,0,0,0,2.51c.18,1.67.44,3.33.72,5,.09.49.17,1,.26,1.46.88,4.77,2,9.5,2.78,14.29a68,68,0,0,1,.81,7.4,40.53,40.53,0,0,1-1.18,13.07,26.2,26.2,0,0,1-2.89,6.75,8.4,8.4,0,0,1-2,2.4,4.73,4.73,0,0,1-.56.35,8.94,8.94,0,0,1-3.72,1,26.17,26.17,0,0,1-2.66.11c-.7,0-1.4,0-2.1-.05-2.5-.11-5-.36-7.49-.34-4.09,0-8.43.91-11.36,3.85-3.29,3.29-4,8.21-5.43,12.78a23.24,23.24,0,0,1-2.07,5,5.52,5.52,0,0,1-2.53,2.52,6.46,6.46,0,0,1-2.93.2l-11.59-1a7.35,7.35,0,0,0-4.53.59c-1.5.91-2.17,2.74-2.86,4.39a43.41,43.41,0,0,1-5.37,9.44,8.5,8.5,0,0,1-3.44,3.09,9,9,0,0,1-5,0c-5.27-1-11.19-2.4-13.9-7.17-3.14-5.55-.29-12.63,3.39-17.78s8.38-10.05,9.19-16.42c.22-1.72.06-3.64-1.11-4.87-.92-1-2.32-1.34-3.2-2.34-1.54-1.79-.8-4.59.16-6.77a54.93,54.93,0,0,1,10.29-15.56c6.7-7.13,15.67-13,18.24-22.59,1.57-5.89.37-12.13.52-18.24a12.37,12.37,0,0,1,1.63-6.61,9.7,9.7,0,0,1,6.51-3.72c6.45-1.11,13.81,1.5,19.23-2.31,3.39-2.38,5.2-6.85,9-8.56,3.23-1.46,7-.44,10.24.93,5.56,2.32,11.22,6.39,12.12,12.49.07.58.12,1.16.14,1.74a28.66,28.66,0,0,0,.27,4.34c.86,4.41,4.82,8.68,3,12.78C571.7,124.3,567.28,124.31,566.83,129.4Z" transform="translate(247.15 53.13)"/><path class="cls-3" d="M570.27,173.13c-2,3-3.71,6.27-5.43,9.5a8.94,8.94,0,0,1-3.72,1,26.17,26.17,0,0,1-2.66.11c-.7,0-1.4,0-2.1-.05-2.5-.11-5-.36-7.49-.34-4.08,0-8.42.91-11.36,3.85-3.29,3.29-4,8.21-5.43,12.78h-.6c-2.89,0-5.43-1.83-7.65-3.68a5.48,5.48,0,0,1-1.45-1.58,4.23,4.23,0,0,1-.34-2.38c.32-3.22,2.52-5.88,4.49-8.44a96.38,96.38,0,0,0,5.93-8.64c.83-1.36,1.67-2.87,1.52-4.44-.11-1.28-.83-2.42-1.12-3.67-.76-3.2,1.4-6.39,3.93-8.48s5.56-3.63,7.69-6.14a16.4,16.4,0,0,0,3.39-9.36c.17-2.37.1-5,1.7-6.75,2.37-2.57,6-1,9-.73s6.08.67,9.08,1.18l.27,1.46c.87,4.77,2,9.5,2.77,14.29a68.07,68.07,0,0,1,.82,7.4A40.7,40.7,0,0,1,570.27,173.13Z" transform="translate(247.15 53.13)"/><path class="cls-48" d="M598.56,90.2l-11.11,7.6-.85-2.41-1.84-5.19s-22-16.12-27.42-21.58S547.25,65,547.25,65C541.87,69,534,70.93,532,63.89c-1.51-5.22,9.84-8,15.79-9A9.32,9.32,0,0,1,554,56c4.07,2.37,11.51,6.63,15,8.27,4.92,2.32,24.27,17.51,24.27,18.35,0,.55,2.53,4,4.09,6C598.06,89.56,598.56,90.2,598.56,90.2Z" transform="translate(247.15 53.13)"/><path class="cls-58" d="M620.24,157.64l5,39.64,7.78-5.92s-3.15-6.67-1.11-7.87,5,6.57,5,6.57,19.83,1.11,14.27-10.19l-6.3-8.15-12.41-8.81Z" transform="translate(247.15 53.13)"/><path class="cls-3" d="M620.2,157.27l5,39.64L633,191s-3.15-6.67-1.11-7.87,5,6.57,5,6.57,19.83,1.11,14.27-10.19l-6.3-8.15-12.41-8.81Z" transform="translate(247.15 53.13)"/><path class="cls-48" d="M601.53,155.78l-2.41,20-16,1.3S566,172.2,572.26,160.23c2.87-5.45,1.07-8.71-1.53-10.62a16.06,16.06,0,0,0-6.34-2.53s-.47-30.57,4.9-20.2c2.41,4.66,7.33,6.52,12,7.15a38.17,38.17,0,0,0,11.14-.29Z" transform="translate(247.15 53.13)"/><path class="cls-3" d="M581.31,134.29a16.39,16.39,0,0,1-10.59,15.32,16.06,16.06,0,0,0-6.34-2.53s-.46-30.57,4.91-20.2c2.41,4.66,7.33,6.52,12,7.15A2.54,2.54,0,0,1,581.31,134.29Z" transform="translate(247.15 53.13)"/><circle class="cls-48" cx="811.54" cy="186.86" r="16.37"/><path class="cls-3" d="M598.56,90.2l-11.11,7.6-.85-2.41c3.31-1.09,8.4-4.89,10.77-6.75C598.06,89.56,598.56,90.2,598.56,90.2Z" transform="translate(247.15 53.13)"/><path class="cls-59" d="M602,97.8l-.46,2.12-13,4.17A46.26,46.26,0,0,1,585,99.52c-1.22-1.85-1.9-3.51-.24-3.3,3.62.46,13.9-8.06,13.9-8.06,1.72-1.93,2.72,4.33,3.13,7.67C601.93,97,602,97.8,602,97.8Z" transform="translate(247.15 53.13)"/><path class="cls-3" d="M571.24,214.88V220c-1.11,0-6-.25-9.18-2.17.56-1.67.93-2.73.93-2.73Z" transform="translate(247.15 53.13)"/><path class="cls-59" d="M573.65,209.88l-.71,3.15-1.46,6.39s-7,0-10.33-2.82c-2.07-1.73-1.6-4.45-.93-6.3a12.51,12.51,0,0,1,.93-2Z" transform="translate(247.15 53.13)"/><path class="cls-3" d="M573.65,209.88l-.71,3.15c-3.28,1.73-10.8-1.78-12.72-2.73a12.51,12.51,0,0,1,.93-2Z" transform="translate(247.15 53.13)"/><path class="cls-22" d="M560.68,170.7l-1.76,6.76s3.52,21,2.13,25.2a21.63,21.63,0,0,0-1.3,6.85s10.19,5.37,13.62,2.69,3.42-14.06,3.42-14.06l7.23-7.41-9.17-13.24Z" transform="translate(247.15 53.13)"/><path class="cls-3" d="M595.51,144.23s8.75,29.32-19.73,22.51L584,199.12l-16.44,30.56s52.66,8.9,61.55-2.64c0,0-4.3-34.73-2.64-46.4s-5.28-29.88-9-31.06S595.51,144.23,595.51,144.23Z" transform="translate(247.15 53.13)"/><path class="cls-3" d="M595.51,145.34s8.75,29.32-19.73,22.51L584,200.23,567.58,230.8s52.66,8.89,61.55-2.64c0,0-4.3-34.74-2.64-46.41s-5.28-29.88-9-31.06S595.51,145.34,595.51,145.34Z" transform="translate(247.15 53.13)"/><path class="cls-59" d="M595.51,144.79s8.75,29.32-19.73,22.51L584,199.67l-16.44,30.57s52.66,8.89,61.55-2.64c0,0-4.3-34.74-2.64-46.41s-5.28-29.88-9-31.06S595.51,144.79,595.51,144.79Z" transform="translate(247.15 53.13)"/><path class="cls-3" d="M595.69,101.16c-1.67.78-5.41,1.8-10.84-.59,0,0,8.53,16.68,9.09,19.83s.55,7-.19,7.6-3,6.29-3,6.29l-8.71.39s5.56,2.22,5.56,6.47,12.23,12.22,18.72,15.38,33,12.43,33,12.43l11.86,11.46s-4.63-12-20.38-22.78-15.56-17.14-15.56-17.14-3-22.51-6.85-28.81-6.12-15.37-6.12-15.37-3.11,4.29-5,4.4A4.6,4.6,0,0,0,595.69,101.16Z" transform="translate(247.15 53.13)"/><path class="cls-3" d="M602,97.8l-.46,2.12-13,4.17A46.26,46.26,0,0,1,585,99.52c5.35,2.31,9,1.3,10.69.53a4.39,4.39,0,0,1,1.62-.44c1.41-.09,3.53-2.58,4.48-3.78C601.93,97,602,97.8,602,97.8Z" transform="translate(247.15 53.13)"/><path class="cls-22" d="M596.67,100.07c-1.69.73-5.46,1.66-10.82-.87,0,0,8.09,16.89,8.56,20.06s.37,7-.39,7.59-3.12,6.22-3.12,6.22l-8.72.15s5.5,2.37,5.39,6.61,11.9,12.55,18.31,15.87S638.52,169,638.52,169l11.55,11.78s-4.32-12.17-19.78-23.32-15.11-17.53-15.11-17.53-2.37-22.58-6.1-29-5.71-15.53-5.71-15.53-3.22,4.21-5.07,4.28A4.53,4.53,0,0,0,596.67,100.07Z" transform="translate(247.15 53.13)"/><path class="cls-3" d="M553.8,146.08c.56-1.75.22-3.65.46-5.48.62-4.94,5.27-8.92,5-13.89a2.23,2.23,0,0,1,.2-1.37,1.76,1.76,0,0,1,1.21-.59c2.42-.44,5.2-.21,7-1.89s1.76-4.72,1.49-7.27c-.15-1.38-.37-2.89-1.42-3.79a5.42,5.42,0,0,0-2.43-1q-4.54-1-9.14-1.81c-3.09-.52-6.34-.94-9.28.15s-5.23,3.63-7.32,6.06c-2,2.28-4.08,5-3.53,8,.31,1.61,1.36,3,2.06,4.45a10.77,10.77,0,0,1-.56,10.06c-1.45,2.35-3.89,4.21-4.48,6.92a6.6,6.6,0,0,0,2.89,6.69C540.42,154.24,552.06,151.6,553.8,146.08Z" transform="translate(247.15 53.13)"/><path class="cls-57" d="M553.25,146.08c.55-1.75.22-3.65.45-5.48.62-4.94,5.28-8.92,5.06-13.89a2.3,2.3,0,0,1,.19-1.37,1.78,1.78,0,0,1,1.21-.59c2.42-.44,5.21-.21,7-1.89s1.75-4.72,1.48-7.27c-.15-1.38-.36-2.89-1.42-3.79a5.39,5.39,0,0,0-2.42-1q-4.54-1-9.15-1.81c-3.09-.52-6.34-.94-9.28.15s-5.22,3.63-7.32,6.06c-2,2.28-4.08,5-3.52,8,.3,1.61,1.35,3,2.05,4.45a10.74,10.74,0,0,1-.55,10.06c-1.46,2.35-3.89,4.21-4.48,6.92a6.6,6.6,0,0,0,2.88,6.69C539.86,154.24,551.51,151.6,553.25,146.08Z" transform="translate(247.15 53.13)"/><path class="cls-3" d="M572.29,150.47s-13.74,10.87-14.2,14.49,1.47,12.13,1.47,12.13l13.72,8.61s15.84,6.21,4,16.58-16,32.61-16,32.61S567,241.75,577.72,222c0,0,10.38-11.3,10.84-16.85s2.08-22.61-4.93-33.17c-4.63-7-7.15-14.79-9-18.85A5.08,5.08,0,0,0,572.29,150.47Z" transform="translate(247.15 53.13)"/><path class="cls-22" d="M571.74,150.47S558,161.34,557.53,165,559,177.09,559,177.09l13.71,8.61s15.84,6.21,4,16.58-16,32.61-16,32.61,5.74,6.86,16.49-12.85c0,0,10.37-11.3,10.83-16.85s2.08-22.61-4.93-33.17c-4.63-7-7.15-14.79-9-18.85A5.1,5.1,0,0,0,571.74,150.47Z" transform="translate(247.15 53.13)"/><path class="cls-3" d="M576.71,202.28s-12.07,3.78-10.6,15.57" transform="translate(247.15 53.13)"/><polygon class="cls-3" points="826.74 239.11 823.94 251.25 829.22 245.83 826.74 239.11"/><polygon class="cls-3" points="840.78 300.43 837.18 303.16 840.22 305.02 840.78 300.43"/><path class="cls-3" d="M613.85,186s12.39.4,12.64-4.26" transform="translate(247.15 53.13)"/></g><g id="Layer_4" data-name="Layer 4"><path class="cls-60" d="M195.78,43.92,181.69,76.56a11.87,11.87,0,0,0-3.15-2c-4.85-2.09-10.28-.36-12.37,4.49s.38,10,5.23,12.05a9.34,9.34,0,0,0,12.6-5l9.79-22.67,25.59,11.06L212.73,90a11.84,11.84,0,0,0-3.15-2c-4.85-2.1-10.27-.37-12.37,4.49s.38,10,5.23,12a9.34,9.34,0,0,0,12.6-5l17.23-39.89Zm25.79,25.57L196,58.44l2.9-6.72,25.59,11.05Z" transform="translate(247.15 53.13)"/><path class="cls-60" d="M111.16,94.45l9.92,21.77a9,9,0,1,0,7.37,5.24L119,100.82l8.26-3.77-3.76-8.25Z" transform="translate(247.15 53.13)"/><path class="cls-3" d="M122.28,89.38l3.14,6.89L117.16,100l9.41,20.64a9.06,9.06,0,0,1-10.41,12.56,9.07,9.07,0,0,0,12.39-11.82l-9.41-20.64L127.4,97l-3.77-8.25Z" transform="translate(247.15 53.13)"/><g class="cls-39"><path d="M218.37,73.43,192.78,62.37,183,85A9.34,9.34,0,0,1,170.39,90a10.54,10.54,0,0,1-3.13-2,10.28,10.28,0,0,0,4.14,3.18,9.34,9.34,0,0,0,12.6-5l9.79-22.67L218.12,74Z" transform="translate(247.15 53.13)"/><polygon points="442.11 110.43 443.38 110.98 446.02 104.84 470.36 115.35 470.61 114.77 445.01 103.71 442.11 110.43"/><path d="M231,59.13,214,98.44a9.36,9.36,0,0,1-12.6,5,10.76,10.76,0,0,1-3.13-2.06,10.37,10.37,0,0,0,4.14,3.19,9.37,9.37,0,0,0,12.61-5l17.22-39.9Z" transform="translate(247.15 53.13)"/></g><path class="cls-60" d="M311.85,107.66l9.93,21.77a9,9,0,1,0,7.37,5.24L319.74,114l8.26-3.76L324.23,102Z" transform="translate(247.15 53.13)"/><path class="cls-3" d="M323,102.59l3.14,6.89-8.26,3.77,9.41,20.64a9.07,9.07,0,0,1-10.41,12.57,9.06,9.06,0,0,0,12.38-11.83L319.83,114l8.26-3.77L324.33,102Z" transform="translate(247.15 53.13)"/><path class="cls-60" d="M287.68,46.06,275.56,66.69a9,9,0,1,0-.06,9L287,56.17l7.83,4.6L299.41,53Z" transform="translate(247.15 53.13)"/><path class="cls-3" d="M298.22,52.26l-3.84,6.53-7.83-4.6L275.06,73.75a9.06,9.06,0,0,1-16.27-1.31,9.07,9.07,0,0,0,16.8,3.35l11.49-19.56,7.83,4.6L299.5,53Z" transform="translate(247.15 53.13)"/><path class="cls-60" d="M450.82,59.18l1.95,35.5a11.77,11.77,0,0,0-3.69-.37c-5.28.29-9.36,4.26-9.07,9.54s4.77,8.74,10.05,8.45a9.36,9.36,0,0,0,9.07-10.06l-1.35-24.65,27.83-1.52.92,16.75a11.76,11.76,0,0,0-3.69-.36c-5.28.29-9.36,4.26-9.07,9.54s4.78,8.73,10.05,8.44a9.34,9.34,0,0,0,9.07-10L490.51,57Zm34.49,11.37-27.83,1.53-.4-7.3,27.83-1.53Z" transform="translate(247.15 53.13)"/><g class="cls-39"><path d="M484.21,75.51,456.37,77l1.35,24.66a9.35,9.35,0,0,1-9.07,10,10.68,10.68,0,0,1-3.72-.45,10.36,10.36,0,0,0,5.13,1,9.35,9.35,0,0,0,9.07-10l-1.35-24.66,26.46-1.45Z" transform="translate(247.15 53.13)"/><polygon points="703.21 124.65 704.59 124.57 704.22 117.9 730.69 116.45 730.65 115.81 702.81 117.34 703.21 124.65"/><path d="M489.14,57.07l2.34,42.76a9.34,9.34,0,0,1-9.06,10,10.47,10.47,0,0,1-3.73-.44,10.37,10.37,0,0,0,5.14,1,9.35,9.35,0,0,0,9.06-10L490.51,57Z" transform="translate(247.15 53.13)"/></g><path class="cls-60" d="M370.81,154.28l-14.1,32.64a11.69,11.69,0,0,0-3.14-2c-4.86-2.1-10.28-.37-12.38,4.49s.38,9.95,5.24,12a9.34,9.34,0,0,0,12.6-4.95l9.78-22.66,25.6,11-6.66,15.41a11.66,11.66,0,0,0-3.14-2c-4.85-2.09-10.28-.36-12.37,4.49s.38,9.95,5.23,12a9.36,9.36,0,0,0,12.6-4.95L407.3,170Zm25.79,25.57-25.6-11,2.9-6.72,25.6,11.06Z" transform="translate(247.15 53.13)"/><g class="cls-39"><path d="M393.4,183.79l-25.6-11L358,195.41a9.35,9.35,0,0,1-12.6,5,11,11,0,0,1-3.13-2.06,10.41,10.41,0,0,0,4.15,3.19,9.36,9.36,0,0,0,12.6-5l9.79-22.67,24.32,10.5Z" transform="translate(247.15 53.13)"/><polygon points="617.14 220.79 618.4 221.34 621.05 215.21 645.38 225.71 645.63 225.13 620.04 214.08 617.14 220.79"/><path d="M406,169.49l-17,39.32a9.36,9.36,0,0,1-12.6,4.95,10.57,10.57,0,0,1-3.13-2.06,10.31,10.31,0,0,0,4.14,3.19,9.36,9.36,0,0,0,12.6-4.95L407.3,170Z" transform="translate(247.15 53.13)"/></g><path class="cls-60" d="M419.28,146l18.6,15.06a9.05,9.05,0,1,0,8.93,1.4l-17.63-14.27,5.71-7.06-7.05-5.7Z" transform="translate(247.15 53.13)"/><path class="cls-3" d="M427,136.49l5.89,4.77-5.72,7.06,17.63,14.27a9.06,9.06,0,0,1-3.71,15.89,9.07,9.07,0,0,0,5.81-16.11L429.25,148.1,435,141l-7-5.71Z" transform="translate(247.15 53.13)"/></g></svg>