<svg xmlns="http://www.w3.org/2000/svg" viewBox="0 0 1133.74 1184.71"><defs><style>.cls-1{fill:#fff;stroke:#000;stroke-miterlimit:10;}.cls-2,.cls-21{fill:#6c63ff;}.cls-3{fill:#f2f2f2;}.cls-4,.cls-7{fill:none;stroke-linecap:round;stroke-linejoin:round;}.cls-4{stroke:#a4a4a4;stroke-width:3px;}.cls-5{fill:#e49d75;}.cls-6{fill:#d38d6a;}.cls-7{stroke:#e0e0e0;stroke-width:2px;}.cls-8{fill:#e0e0e0;}.cls-9{fill:#2694c4;}.cls-10{fill:#3daee9;}.cls-11{fill:#2d2d2d;}.cls-12{fill:#4d4d4d;}.cls-13{fill:#f47750;}.cls-14{fill:#a4a4a4;}.cls-15{fill:#6d6d6d;}.cls-16{fill:#ed1515;}.cls-17{fill:#2ecc71;}.cls-18{fill:#3acc6c;}.cls-19,.cls-21{opacity:0.1;isolation:isolate;}.cls-20{fill:#ffd037;}.cls-22{fill:#65617d;}.cls-23{fill:#9d9cb5;}.cls-24{fill:#c17174;}.cls-25{fill:#f67400;}.cls-26{fill:#3f3d56;}.cls-27{fill:#ccc;}</style></defs><title>notifications</title><g id="Layer_10" data-name="Layer 10"><rect class="cls-1" x="0.5" y="0.5" width="1068" height="423.03"/></g><g id="Layer_7" data-name="Layer 7"><ellipse class="cls-2" cx="1071.34" cy="413.86" rx="62.4" ry="58.14"/></g><g id="Layer_1" data-name="Layer 1"><path class="cls-3" d="M836.91,204.66c31,33.87,68.73,61.51,66.68,86.79s-43.89,48-90.27,68.66S716,399.28,676.15,387.69s-68.59-53.4-76.91-95.62,3.6-84.93,33.4-118.55S710,115.21,745.91,123,806,170.73,836.91,204.66Z" transform="translate(0.5 0.5)"/><line class="cls-4" x1="777.57" y1="294.28" x2="777.57" y2="400.26"/><path class="cls-5" d="M769.34,409.35c-.57,1.17-4.44,8.37-4.44,8.37l12.52,3.95,3.73-10.29Z" transform="translate(0.5 0.5)"/><polygon class="cls-5" points="841.53 399.67 844.11 407.54 832.84 412.1 825.4 405.69 841.53 399.67"/><path class="cls-6" d="M824.88,248.44c-1.29,1.23-11.93,11.8-12.69,12.63s-31.92,8.68-33.56,9-7.55,2.49-9.21,2.49-7-1.46-9.21-1.16-9.27,3.72-8.59,5.09,76.88-3.19,76.88-3.19l8.3-21.41Z" transform="translate(0.5 0.5)"/><line class="cls-7" x1="840.32" y1="347.69" x2="820.96" y2="430.29"/><polygon class="cls-8" points="911.67 212.91 955.47 212.91 913.94 347.69 833.68 347.69 833.68 338.92 878.62 314.21 911.67 212.91"/><path class="cls-9" d="M820.48,339.46c2.22,3.76,21,56.54,21.47,59.61-2.39,2.07-12.76,6.69-17.18,7-7.5-4.88-28.51-45.92-28.51-45.92S803.41,326.1,820.48,339.46Z" transform="translate(0.5 0.5)"/><path class="cls-10" d="M918.51,320.55c1.2,9.61-21.3,23.69-53.07,23.69-10.49,0-45.21-1.93-55.18-5.05-.52,5.22-25.67,70.4-28.52,72.76-4.68,1-11.61-1.09-13.34-2.54s12-91.49,15.87-97.31,82.27-10.18,82.27-10.18l44.29-12.73C912.46,290.79,917.73,314.44,918.51,320.55Z" transform="translate(0.5 0.5)"/><path class="cls-11" d="M856.4,221.7c14.72,7.11-7.3,38.2-10.08,39-4.44-.42-19.89-7.91-22.79-13.41C822.91,243.9,843.82,215.61,856.4,221.7Z" transform="translate(0.5 0.5)"/><path class="cls-12" d="M864.55,208.79c24.62,0,48.32,77.82,47.35,80.93-2,6.39-42.32,18.07-48.78,13C846.75,290.09,816.58,208.79,864.55,208.79Z" transform="translate(0.5 0.5)"/><line class="cls-7" x1="909.31" y1="347.69" x2="928.67" y2="430.29"/><polygon points="778.87 422.49 772.44 435.91 737.77 423.11 741.21 417.36 766.53 417.99 778.87 422.49"/><polygon points="844.32 406.56 852.84 419.16 818.97 433.36 815.76 427.52 832.32 411.65 844.32 406.56"/><path class="cls-6" d="M858.72,200.23c.56,2.57,4.1,10.34,5.63,11.76s-6.73,9.75-15.92,8.23c-.27-2.62-1.37-10-2.81-11.25S858.72,200.23,858.72,200.23Z" transform="translate(0.5 0.5)"/><ellipse class="cls-5" cx="842.59" cy="188.63" rx="18.33" ry="22.19" transform="translate(52.83 537.02) rotate(-36.38)"/><path class="cls-13" d="M827.45,159.52c10.2,0,36.4,15,36.4,30.09,0,8.1-1.73,10.17-2.39,10.17s-7-4.06-7-7-1.24-7.24-2.46-7.24c-2,0-2.34,1.88-7.49,1.88-2,0-5.67-1.94-5.67-4.18-4.19.06-4.19,1.21-9.92,1.21-6.5,0-22.47-2.72-22.47-6.9,0-2.83,4.46-4.78,8.85-4.09-3-1.32-5.63-4-5.63-5.84,0-2.53,3.84-4.27,6.81-4.27a13.76,13.76,0,0,1,8.09,2.44C823.37,164.07,824.57,159.52,827.45,159.52Z" transform="translate(0.5 0.5)"/><ellipse class="cls-5" cx="851.71" cy="190.3" rx="5.29" ry="4.38"/><rect class="cls-14" x="566.61" y="288.12" width="265.43" height="6.16"/><polygon class="cls-8" points="809.21 278.11 699.32 278.11 699.04 278.11 589.16 278.11 566.61 288.07 699.04 288.07 699.32 288.07 831.76 288.07 809.21 278.11"/><line class="cls-4" x1="600.03" y1="294.28" x2="600.03" y2="423.53"/><line class="cls-4" x1="621.07" y1="294.28" x2="621.07" y2="400.26"/><line class="cls-4" x1="798.61" y1="294.28" x2="798.61" y2="423.53"/><rect class="cls-14" x="723.14" y="278.8" width="47.06" height="2.67"/><rect class="cls-14" x="664.25" y="275.48" width="9.01" height="8.88"/><ellipse class="cls-3" cx="758.02" cy="282.82" rx="10.55" ry="4.09"/><path class="cls-5" d="M832.38,252.68c-1.53,1.39-10.93,12.58-11.94,13.76-21.5,2.08-49.91,7.79-51,7.82s-13-3.18-14.59-2.95-4.88,5-4.74,6,9.54,5.69,20.37,5.57c2.05-.12,2.72-1,4.85-1s50.66,3.11,59.09-.54c4.58-2,17.45-17,17.45-18.1S832.38,252.68,832.38,252.68Z" transform="translate(0.5 0.5)"/><path class="cls-15" d="M863,225.32c14.72,7.12-7.29,38.2-10.07,39-4.45-.43-19.89-7.91-22.8-13.41C829.53,247.52,850.44,219.24,863,225.32Z" transform="translate(0.5 0.5)"/><rect class="cls-8" x="656.62" y="165.29" width="4.31" height="115.02"/><polygon class="cls-14" points="660.93 165.29 660.93 222.79 660.93 280.3 681.33 274.13 681.33 222.79 681.33 171.46 660.93 165.29"/></g><g id="Layer_9" data-name="Layer 9"><circle class="cls-16" cx="980.64" cy="47.59" r="13.57"/><circle class="cls-17" cx="1026.5" cy="134.04" r="11.36"/><ellipse class="cls-16" cx="322.59" cy="440.61" rx="43.8" ry="46.9"/></g><g id="Layer_5" data-name="Layer 5"><path class="cls-10" d="M549.27,159c9.39,13.42,16.29,29.14,14.65,45-.9,8.78-4.34,17.13-7.84,25.34q-8.75,20.49-18.22,40.7c-5.94,12.62-12.24,25.41-22.36,35.52-14.05,14-34.12,21.54-54.11,26.47a287.64,287.64,0,0,1-102.51,6.22c-40.37-4.85-82.38-18.11-120.51-4.94-14.52,5-27.25,13.57-41.1,20-38.81,18-86.81,18.21-125.78.45-11.94-5.44-24.45-15-23-27.24,1.45-12.63,16.33-19.28,28.41-25.38,15.63-7.89,30.72-20.47,32-36.85,1.4-17.7-13.84-32.93-30.31-42.1s-35.37-14.93-49.8-26.68C.41,172.43-1.6,127.06,24.62,101.9,48.17,79.31,85.9,75.39,119.7,78.61a297.48,297.48,0,0,1,69.16,15c26.51,9.2,51.51,22.15,78.73,29.41s58.27,8.18,82.21-5.79l-6.59,4.64q-5,3.22-9.71,6.84l9.71-6.84c30.34-19.51,68.9-28,105.53-22.9C489.4,104.69,527,127.09,549.27,159Z" transform="translate(0.5 0.5)"/><path class="cls-10" d="M343.21,121.9l-9.71,6.84Q338.2,125.13,343.21,121.9Z" transform="translate(0.5 0.5)"/><path class="cls-18" d="M620.24,226.43s2.32,4.31-1.07,10.83-6.18,12-5.06,16.08c0,0,5.12-12.1,9.28-12.27S624.82,233.7,620.24,226.43Z" transform="translate(0.5 0.5)"/><path class="cls-19" d="M620.24,226.43a6.32,6.32,0,0,1,.47,1.35c4.06,6.79,6.23,13.13,2.32,13.29-3.63.15-8,9.4-9,11.74,0,.18.08.36.12.53,0,0,5.12-12.1,9.28-12.27S624.82,233.7,620.24,226.43Z" transform="translate(0.5 0.5)"/><path class="cls-20" d="M624.55,231.93a7.21,7.21,0,0,1-.27,2.75,7.45,7.45,0,0,1-.27-2.75c0-1.52.15-.81.3-.81S624.55,230.41,624.55,231.93Z" transform="translate(0.5 0.5)"/><path class="cls-20" d="M626,233.74c-.94.73-1.76,1.17-1.82,1s.63-.92,1.56-1.65.57-.19.65,0S627,233,626,233.74Z" transform="translate(0.5 0.5)"/><path class="cls-18" d="M608,226.43s-2.32,4.31,1.07,10.83,6.18,12,5.05,16.08c0,0-5.11-12.1-9.27-12.27S603.41,233.7,608,226.43Z" transform="translate(0.5 0.5)"/><path class="cls-19" d="M608,226.43a6.32,6.32,0,0,0-.47,1.35c-4.07,6.79-6.23,13.13-2.32,13.29,3.63.15,8,9.4,9,11.74,0,.18-.08.36-.13.53,0,0-5.11-12.1-9.27-12.27S603.41,233.7,608,226.43Z" transform="translate(0.5 0.5)"/><path class="cls-20" d="M603.68,231.93a7.21,7.21,0,0,0,.27,2.75,7.33,7.33,0,0,0,.26-2.75c0-1.52-.14-.81-.29-.81S603.68,230.41,603.68,231.93Z" transform="translate(0.5 0.5)"/><ellipse class="cls-21" cx="614.61" cy="281.57" rx="24.24" ry="5.3"/><path class="cls-22" d="M626.59,247.53l-.11,1.34-.17,1.91-.06.79-.17,1.91-.07.79-.16,1.9L624,277.83c-.16,1.93-2.38,3.44-5.06,3.44h-9.64c-2.67,0-4.87-1.51-5-3.44l-1.86-21.66-.16-1.91-.07-.79-.17-1.91-.07-.79-.16-1.91-.12-1.34c-.09-1.07,1.13-2,2.63-2H624C625.49,245.52,626.69,246.45,626.59,247.53Z" transform="translate(0.5 0.5)"/><polygon class="cls-23" points="626.98 249.37 626.81 251.28 602.41 251.28 602.25 249.37 626.98 249.37"/><polygon class="cls-23" points="626.75 252.07 626.58 253.98 602.65 253.98 602.48 252.07 626.75 252.07"/><polygon class="cls-23" points="626.51 254.77 626.35 256.67 602.88 256.67 602.72 254.77 626.51 254.77"/><path class="cls-24" d="M189.7,1184.21c-7.82-.2-10.31-22.9-10.31-22.9s1.2-43.21,3.43-46a2.12,2.12,0,0,1,1.13-.6c1.64,2.44,3.08,7.84,1.78,19.72-2.44,22.51.5,23.93.5,23.93S189.9,1177.49,189.7,1184.21Z" transform="translate(0.5 0.5)"/><ellipse class="cls-25" cx="100.02" cy="159.84" rx="37.6" ry="34.84"/><circle class="cls-13" cx="67.47" cy="255.88" r="24.42"/><circle class="cls-25" cx="471.34" cy="109.6" r="48.45"/></g><g id="Layer_3" data-name="Layer 3"><path class="cls-26" d="M334.06,145.39h-1.3V110.73c0-11.07-9.24-20.06-20.64-20.06H236.57c-11.4,0-20.64,9-20.64,20.06h0V300.88c0,11.08,9.24,20.06,20.64,20.06h75.55c11.4,0,20.64-9,20.64-20.06h0V170.07h1.3Z" transform="translate(0.5 0.5)"/><path class="cls-3" d="M328.36,111.91V301.78a15.21,15.21,0,0,1-15.41,15H237a15.21,15.21,0,0,1-15.41-15V111.91a15.21,15.21,0,0,1,15.41-15h9.22a7,7,0,0,0,4,9.28,7.5,7.5,0,0,0,2.77.53h43.28a7.23,7.23,0,0,0,7.32-7.12,7,7,0,0,0-.54-2.69H313A15.21,15.21,0,0,1,328.36,111.91Z" transform="translate(0.5 0.5)"/><rect class="cls-27" x="253.59" y="122.68" width="64.14" height="2.32"/><rect class="cls-27" x="253.59" y="130.01" width="64.14" height="2.32"/><rect class="cls-27" x="253.59" y="137.35" width="64.14" height="2.32"/><rect class="cls-27" x="233.25" y="124.11" width="14.53" height="14.12"/><rect class="cls-27" x="253.59" y="287.45" width="64.14" height="2.32"/><rect class="cls-27" x="253.59" y="294.79" width="64.14" height="2.32"/><rect class="cls-27" x="253.59" y="302.12" width="64.14" height="2.32"/><rect class="cls-27" x="233.25" y="288.88" width="14.53" height="14.12"/></g><g id="Layer_4" data-name="Layer 4"><path class="cls-10" d="M238.66,245.68l.14-17.2h-6.05V179.15h85.33v49.33H253Zm-5.11-18.17h6l-.12,15.83,13.2-15.83h64.61V180.12H233.55Z" transform="translate(0.5 0.5)"/><rect class="cls-10" x="248.81" y="195.28" width="51.04" height="0.98"/><rect class="cls-10" x="248.9" y="202.73" width="51.04" height="0.98"/><rect class="cls-10" x="248.9" y="209.57" width="51.04" height="0.98"/></g><g id="Layer_2" data-name="Layer 2"><path class="cls-10" d="M711.24,164l.28-23.66H699.43V72.45H870.09v67.88H739.93ZM701,139h12.1l-.25,21.78L739.28,139H868.5V73.79H701Z" transform="translate(0.5 0.5)"/><rect class="cls-10" x="731.03" y="94.45" width="102.08" height="1.34"/><rect class="cls-10" x="731.22" y="104.71" width="102.08" height="1.34"/><rect class="cls-10" x="731.22" y="114.12" width="102.08" height="1.34"/></g></svg>