<svg xmlns="http://www.w3.org/2000/svg" xmlns:xlink="http://www.w3.org/1999/xlink" viewBox="0 0 385 320.09"><defs><style>.cls-1{fill:#31363b;}.cls-2{opacity:0.5;}.cls-3{fill:#d0d2d5;}.cls-12,.cls-4{opacity:0.1;}.cls-4{isolation:isolate;}.cls-5{fill:#3f3d56;}.cls-6{fill:none;stroke:#000;stroke-miterlimit:10;stroke-width:12px;}.cls-7{fill:url(#linear-gradient);}.cls-8{fill:#fdbc4b;}.cls-9{fill:#fbbebe;}.cls-10{fill:#eff0f1;}.cls-11{fill:#4d4d4d;}</style><linearGradient id="linear-gradient" x1="1895.3" y1="54.85" x2="1895.3" y2="324.57" gradientTransform="translate(2056 436.36) rotate(-177.71)" gradientUnits="userSpaceOnUse"><stop offset="0" stop-color="gray" stop-opacity="0.25"/><stop offset="0.54" stop-color="gray" stop-opacity="0.12"/><stop offset="1" stop-color="gray" stop-opacity="0.1"/></linearGradient></defs><title>plugin</title><g id="Layer_2" data-name="Layer 2"><rect class="cls-1" width="385" height="304"/></g><g id="Layer_1" data-name="Layer 1"><g class="cls-2"><rect class="cls-3" x="212.33" width="110.06" height="110.06" rx="11.6"/><path class="cls-4" d="M251.76,31.63H283s26.28,23,0,46.81H251.76S225.47,57.09,251.76,31.63Z"/><rect class="cls-5" x="255.04" y="44.76" width="4.11" height="12.32"/><rect class="cls-5" x="275.57" y="43.12" width="4.11" height="14.78"/><path class="cls-5" d="M267.36,64.47h0a4.93,4.93,0,0,1,4.93,4.93v4.11h-9.86V69.4A4.93,4.93,0,0,1,267.36,64.47Z"/></g><rect class="cls-3" x="191.48" y="69.92" width="64.06" height="11.5" transform="translate(-12.44 79.16) rotate(-19.55)"/><path class="cls-3" d="M211.6,103.44l55-19.51a5.75,5.75,0,0,1,7.34,3.49h0a5.75,5.75,0,0,1-3.49,7.35l-54.95,19.51h0l-3.85-10.84Z"/><path d="M159.25,69.74,172.64,65a47.64,47.64,0,0,1,60.83,29l4.75,13.39a18.62,18.62,0,0,1-11.32,23.79l-40.72,14.46a18.63,18.63,0,0,1-23.79-11.32L147.93,93.52A18.61,18.61,0,0,1,159.25,69.74Z"/><path class="cls-6" d="M73.68,315l19.41-12.51,22-15.45a11.51,11.51,0,0,0,4.15-3.72,13.51,13.51,0,0,0,1.41-6.07c.45-6.17.87-12.57-1.3-18.36-2.54-6.77-8.33-11.89-11.11-18.56S105.93,226,107.73,219C110,210.36,114,202.29,118,194.33c3.95-7.75,7.95-15.48,12.6-22.83,13.09-20.66,31-37.78,48.68-54.66"/><path class="cls-7" d="M104.2,287.73a8.09,8.09,0,0,1,1.79-2c3.59-3.38,5.25-8.36,6.14-13.24s1.14-9.86,2.56-14.63a47.82,47.82,0,0,1,2.89-7.12c.82-1.76,1.85-5.21,3.36-6.43a2.15,2.15,0,0,1,1-.5,12,12,0,0,1,3-4c2.35-2.13,5.22-3.82,6.79-6.57a14,14,0,0,1,1.58-2.7c1.06-1.18,2.74-1.65,3.71-2.89,1.28-1.59,1-3.86.82-5.9s0-4.46,1.76-5.52c1-.65,2.41-.59,3.5-1.16,1.64-.82,2.29-2.9,2.26-4.75s-.61-3.64-.76-5.48c-.46-5.88,3.42-11.73,1.92-17.43-.57-2.16-1.86-4-2.82-6.05a14.26,14.26,0,0,1-.82-2.08,29,29,0,0,1-8,1.93c4.52-10.15,3.37-22,5.48-32.85l-.27-.38a17,17,0,0,1-3.46-9.73c0-4.11,1.89-7.87,2.75-11.83.72-3.39.7-6.91,1.64-10.23a31.29,31.29,0,0,1,2.6-5.93q1.55-2.85,3.23-5.61,1.57-5.22,3.16-10.44c1.48-4.93,3-9.86,5.88-14.08,1.05-1.55,1.37-4.68,3-5.62a7.25,7.25,0,0,1,4.27-.75c2.28-1.28,4.28-3.13,4.57-5.66a5.35,5.35,0,0,0-.16-1.64h-.28c-3.62-.34-5.45-3.52-7.33-6.31-3-4.52-1.88-10.63,0-15.77a10.64,10.64,0,0,1,2.47-4.34c2.63-2.46,6.81-1.92,10.21-3.11A33.36,33.36,0,0,1,176,35.7,10.13,10.13,0,0,1,182.71,37a67,67,0,0,0,6.17,3.22c2.17.82,4.85,1.47,5.38,3.7a4,4,0,0,1-.19,2.24,8.24,8.24,0,0,1-2.53,3.65,14.64,14.64,0,0,1-6.78,19.56,15.08,15.08,0,0,1-2.14.84c-.63,1-1.21,2-1.74,3.06a10.13,10.13,0,0,0-1.44,6,19.59,19.59,0,0,1,1.64,2c2.36,3.29,3.7,7.15,4.93,11a114.36,114.36,0,0,1,4,15c2,4.25,4.46,8.33,5.91,12.8a29,29,0,0,0,7.7-1l6.93-1.58c2.41-.54,4.93-1.13,6.82-2.73,1-.82,1.78-1.91,2.8-2.73s3.07-1.77,4.18-1.09a3,3,0,0,1,.57.43c1-2,7.47,6.35,3.06,7.18l.28.82c.59,1.7,1.83,3.77,1.51,5.55l-30.85,10.58a18.85,18.85,0,0,1-6.2,1.37,9.79,9.79,0,0,1-2.47-.32v1.63c-.08,10.83,1.64,21.6,2,32.43.06,2,0,4.1-1.24,5.65-1.4,1.69-3.88,2-6,1.64a13,13,0,0,1-1.53-.34,57,57,0,0,0-1.58,8.3l-2,14.58a21.74,21.74,0,0,0-.32,4.55c.24,3.44,2,6.53,3.37,9.7s2.09,7,.36,10c-.54.92-1.28,1.71-1.77,2.66a10.91,10.91,0,0,0-.82,4.66c-.12,4.43-.25,8.86-.36,13.29a1.54,1.54,0,0,1,1,.21c1.71,1.32,1.52,7.66,1.65,9.63.13,3.28,0,6.63.18,9.95a58.35,58.35,0,0,0,2.2,13.25,8.52,8.52,0,0,0,1.88,3.79,8.12,8.12,0,0,0,3.33,1.73,38.31,38.31,0,0,0,12.67,1.72,12.54,12.54,0,0,1,5.15.44c1.61.66,2.91,2.46,2.32,4.11-.5,1.38-2,2-3.39,2.55a52.71,52.71,0,0,0-9,4.16,25.61,25.61,0,0,1-3.5,2,17.86,17.86,0,0,1-3.6.88L176.55,302c-3,.51-6.57.82-8.47-1.65a7.42,7.42,0,0,1-1.13-4.82c.09-3.28.74-6.63.31-9.91a30.14,30.14,0,0,0-1.52-5.7L161.37,267a68.49,68.49,0,0,1-3.51-13.23c-.2-1.64-.19-3.5,1.07-4.53a3,3,0,0,1,1.08-.56c.05-4,.57-7.92.35-11.88-.06-1-.16-2-.24-3a14.16,14.16,0,0,0-2,2.4c-1.39,2.19-1.91,5.1-4.05,6.57-1.83,1.25-4.53,1.18-5.81,3a8.53,8.53,0,0,0-.92,2.23,16.15,16.15,0,0,1-3.29,5.21,27,27,0,0,1-2,5.21c-1.21,2.55-2.42,5.09-3.62,7.64-1.29,2.72-2.59,5.45-4.11,8a22.49,22.49,0,0,0-2.75,5.31c-1.15,4.05.73,8.51,3.72,11.49s6.94,4.71,10.81,6.31a3,3,0,0,1,1.11.66,2.08,2.08,0,0,1,.49,1.43,4.63,4.63,0,0,1-3.34,4.11,12.51,12.51,0,0,1-5.61.2c-10.49-1.27-21-3.83-30.24-8.94a10.8,10.8,0,0,1-3.61-2.78A4.22,4.22,0,0,1,104.2,287.73Z"/><path class="cls-8" d="M148.56,103.54c-1.74,2.69-3.39,5.44-4.92,8.27a30,30,0,0,0-2.61,5.88c-1,3.28-.93,6.8-1.64,10.15-.82,3.94-2.74,7.7-2.74,11.74a16.84,16.84,0,0,0,3.46,9.66,46.64,46.64,0,0,0,7.25,7.48,154.34,154.34,0,0,0,10.25-50.28,17.66,17.66,0,0,0-.78-7.06c-.54-1.4-3.09-5.22-4.74-3.72-.6.55-.76,3-1.13,3.85A28.18,28.18,0,0,1,148.56,103.54Z"/><path class="cls-4" d="M149.26,102.4q-2.62,4-4.93,8.26a30.62,30.62,0,0,0-2.61,5.88c-1,3.29-.92,6.8-1.64,10.15-.82,3.94-2.74,7.71-2.74,11.74a16.89,16.89,0,0,0,3.46,9.67,46.58,46.58,0,0,0,7.25,7.47A154.08,154.08,0,0,0,158.3,105.3a17.87,17.87,0,0,0-.77-7.07c-.55-1.39-3.1-5.22-4.75-3.72-.6.55-.76,3-1.13,3.85A29.79,29.79,0,0,1,149.26,102.4Z"/><path class="cls-9" d="M236.73,112.52c3.21-.53,6.78-.27,9.28,1.81a7.68,7.68,0,0,1,2.66,5.06c.21,2.28-1.11,5-3.39,5.16a11.43,11.43,0,0,1-1.65-.11,24.78,24.78,0,0,0-4.3.35,17.6,17.6,0,0,1-15-6c-2-2.42.62-3.53,3-4C230.47,114.06,233.56,113.06,236.73,112.52Z"/><path class="cls-10" d="M181.8,186.7l-2,14.48a21.31,21.31,0,0,0-.32,4.51c.24,3.41,2.05,6.47,3.36,9.63s2.11,6.92.37,9.85c-.53.92-1.29,1.7-1.76,2.64a10.54,10.54,0,0,0-.82,4.63L180,253a130.11,130.11,0,0,1-19-.11,1.12,1.12,0,0,1-.71-.18,1.18,1.18,0,0,1-.24-.75c-.27-4.8.56-9.62.29-14.42-.1-1.76-.35-3.51-.38-5.27-.1-7.16,3.44-14.16,2.37-21.24a50.25,50.25,0,0,0-1.31-5.28c-3.38-12.32-2.67-25.27-1.93-38a1,1,0,0,1,.17-.58.94.94,0,0,1,.45-.24,23.36,23.36,0,0,1,21.17,4c.9.72,3.16,1.42,3.75,2.27.82,1.21-.26,2.4-.73,3.68A46.81,46.81,0,0,0,181.8,186.7Z"/><path class="cls-4" d="M181.79,185.88l-2,14.47a21.4,21.4,0,0,0-.31,4.52c.24,3.41,2,6.47,3.36,9.63s2.1,6.92.37,9.85c-.54.92-1.29,1.7-1.77,2.64a10.8,10.8,0,0,0-.82,4.63L180,252.16a131.53,131.53,0,0,1-19-.11,1.07,1.07,0,0,1-.7-.18,1.13,1.13,0,0,1-.24-.75c-.28-4.8.56-9.62.29-14.42-.1-1.76-.36-3.51-.38-5.27-.11-7.16,3.43-14.16,2.36-21.24a45.24,45.24,0,0,0-1.31-5.28c-3.38-12.32-2.66-25.27-1.92-38a.7.7,0,0,1,.61-.82,23.37,23.37,0,0,1,21.18,4c.89.72,3.15,1.42,3.74,2.27.82,1.21-.26,2.4-.73,3.68A46.17,46.17,0,0,0,181.79,185.88Z"/><path class="cls-10" d="M143.72,182.33c1,2,2.25,3.86,2.82,6,1.5,5.66-2.37,11.5-1.91,17.3.15,1.83.71,3.61.76,5.44s-.64,3.87-2.26,4.71c-1.1.56-2.47.51-3.49,1.15-1.74,1.05-1.93,3.46-1.76,5.48s.45,4.27-.82,5.86c-1,1.22-2.66,1.69-3.71,2.85a13.7,13.7,0,0,0-1.59,2.69c-1.57,2.73-4.43,4.41-6.78,6.57s-4.33,5.3-3.28,8.27c.77,2.2,2.94,3.54,5,4.57a53.61,53.61,0,0,0,12,4.23,2.9,2.9,0,0,0,1.37.07,3,3,0,0,0,1.2-.82c2.43-2.38,4.93-4.87,6.05-8.06a8.4,8.4,0,0,1,.92-2.21c1.28-1.79,4-1.73,5.8-3,2.14-1.45,2.66-4.34,4.05-6.52s3.44-3.46,4.93-5.39c2.47-3.18,3.13-7.43,4.93-11.07.76-1.55,1.74-3,2.35-4.6a25,25,0,0,0,1.12-5.94c1.16-9.6,4.11-19.25,2.25-28.75-.41-2.09-1-4.11-1.3-6.26-.46-3.73.26-7.53-.29-11.25a3,3,0,0,0-1.24-2.38,3.43,3.43,0,0,0-1.41-.3,97.65,97.65,0,0,0-14.61.34c-2.46.24-5.23.74-6.7,2.75-1.25,1.72-1.19,4-1.64,6.13-.49,2.57-1.8,4-3.17,6S142.71,180.26,143.72,182.33Z"/><path class="cls-11" d="M162.67,249.08c-1.3,0-2.74-.08-3.74.74-1.25,1-1.27,2.9-1.07,4.51a68.43,68.43,0,0,0,3.52,13.14l4.37,12.82a30,30,0,0,1,1.52,5.65c.43,3.29-.23,6.58-.31,9.86,0,1.64.11,3.47,1.14,4.79,1.85,2.38,5.47,2.1,8.45,1.59l14.55-2.46a17.86,17.86,0,0,0,3.6-.88,25,25,0,0,0,3.49-2,53.62,53.62,0,0,1,9-4.11c1.37-.51,2.89-1.16,3.39-2.54.58-1.64-.72-3.44-2.33-4.1a12.2,12.2,0,0,0-5.15-.44A38.48,38.48,0,0,1,190.48,284a8,8,0,0,1-3.33-1.72,8.35,8.35,0,0,1-1.89-3.75,58.7,58.7,0,0,1-2.2-13.15c-.16-3.28-.05-6.57-.18-9.85-.08-1.95.11-8.22-1.64-9.55-1.31-1-6.69,1.76-8.45,2.16A40.51,40.51,0,0,1,162.67,249.08Z"/><path class="cls-11" d="M114.74,258.21c-1.41,4.71-1.64,9.68-2.55,14.52s-2.55,9.78-6.14,13.14a8,8,0,0,0-1.78,2,4.15,4.15,0,0,0,.62,4.3,10.83,10.83,0,0,0,3.6,2.77c9.27,5,19.71,7.6,30.23,8.87a12.8,12.8,0,0,0,5.61-.2,4.63,4.63,0,0,0,3.34-4.11,2.08,2.08,0,0,0-.49-1.41,3.19,3.19,0,0,0-1.11-.65c-3.88-1.59-7.82-3.33-10.81-6.27s-4.88-7.39-3.72-11.38a22.5,22.5,0,0,1,2.74-5.26,87,87,0,0,0,4.11-8L142,259a19.72,19.72,0,0,0,2.3-6.95A33.36,33.36,0,0,1,131,249.87a20.88,20.88,0,0,1-5.48-3.28c-1.4-1.17-2.67-3.34-4.55-1.82-1.51,1.22-2.46,4.63-3.36,6.38A48.07,48.07,0,0,0,114.74,258.21Z"/><path class="cls-9" d="M167.68,70c-.36,3.14-3.41,5.23-6.33,6.47l18.45,5.9c-1.19-2.29-.22-5.08,1-7.4a40.84,40.84,0,0,1,3.29-5.25c.18-.26.38-.59.25-.87a.92.92,0,0,0-.52-.41c-3.79-1.69-7.7-3.44-11.85-4-1.2-.18-3.47-.66-4.36.56S167.88,68.52,167.68,70Z"/><path class="cls-4" d="M167.68,70c-.36,3.14-3.41,5.23-6.33,6.47l18.45,5.9c-1.19-2.29-.22-5.08,1-7.4a40.84,40.84,0,0,1,3.29-5.25c.18-.26.38-.59.25-.87a.92.92,0,0,0-.52-.41c-3.79-1.69-7.7-3.44-11.85-4-1.2-.18-3.47-.66-4.36.56S167.88,68.52,167.68,70Z"/><circle class="cls-9" cx="178.44" cy="58.06" r="14.47"/><path class="cls-8" d="M190.94,177.13c-1.4,1.64-3.87,2-6,1.64-5-.82-9.19-4.54-14.13-5.88-6.06-1.64-12.48.47-18.2,3.05s-11.42,5.7-17.67,6.2c5.65-12.62,2.42-27.8,7.82-40.53,1.33-3.1,3.18-6.11,3.48-9.47.37-4.18-1.72-8.21-2-12.37-.3-3.71.82-7.4,1.88-10.92l4-13c1.48-4.84,3-9.78,5.86-14,1.05-1.54,1.38-4.64,3-5.58,3.52-2,8.85.54,12.66.68s7.28,2.85,9.51,5.91c2.36,3.24,3.7,7.09,4.93,10.9a102.59,102.59,0,0,1,4.38,17.44c.13.88.23,1.77.32,2.67.82,8.43-.38,16.91-.45,25.38v.07c-.07,10.74,1.64,21.43,2,32.17C192.24,173.51,192.19,175.65,190.94,177.13Z"/><path class="cls-4" d="M190.22,139.35a18.55,18.55,0,0,1-7.6-4.55,32.16,32.16,0,0,1-5-5.7,41.16,41.16,0,0,1-4.34-9.17,106.15,106.15,0,0,1-5.75-26.51c-.22-2.47-.28-5.1,1.19-7.06a6,6,0,0,1,7.18-1.75c1.94,1,3.2,2.87,4.36,4.69a61,61,0,0,1,6.13,11.35c.65,1.79,1.14,3.64,1.78,5.44a49.74,49.74,0,0,0,2.25,5.2c.12.89.23,1.77.31,2.67C191.45,122.35,190.29,130.84,190.22,139.35Z"/><path class="cls-8" d="M168.71,84.77c-1.46,2-1.4,4.61-1.19,7a106.4,106.4,0,0,0,5.75,26.51,40.88,40.88,0,0,0,4.34,9.16,31.55,31.55,0,0,0,5,5.71c2.79,2.56,6.19,4.83,10,4.86a19.2,19.2,0,0,0,6.21-1.35l30.8-10.46c.32-1.77-.92-3.81-1.51-5.51l-1.64-4.88c-.47-1.33-1-2.79-2.23-3.52s-3.17.27-4.18,1.09-1.8,1.88-2.8,2.71c-1.9,1.57-4.41,2.16-6.81,2.7l-6.93,1.56a29.45,29.45,0,0,1-7.7,1c-1.93-5.89-5.6-11.08-7.68-16.93-.64-1.79-1.14-3.64-1.79-5.43a61,61,0,0,0-6.12-11.35C179.1,85.88,177.84,84,175.9,83A6,6,0,0,0,168.71,84.77Z"/><path d="M173.82,61.32a7.32,7.32,0,0,1,.87-2.7,2.28,2.28,0,0,1,2.46-1.09c1.45.45,1.93,2.69,3.45,2.76,1,.05,1.75-1,2.07-2a6,6,0,0,1,1.25-2.76,4.57,4.57,0,0,1,1.79-.82c3.51-1.11,7.13-3.16,8.3-6.65a4.1,4.1,0,0,0,.19-2.22c-.54-2.21-3.29-2.88-5.38-3.68s-4.11-2.15-6.16-3.19a10.21,10.21,0,0,0-6.7-1.25c-1.14.37-2.27.79-3.37,1.27-3.4,1.17-7.57.63-10.21,3.08a10.76,10.76,0,0,0-2.47,4.31c-1.84,5.1-3,11.17.05,15.66,1.87,2.76,3.7,5.93,7.31,6.25C171.48,68.71,173.15,64.87,173.82,61.32Z"/><g class="cls-12"><path d="M180.24,56.59a6.13,6.13,0,0,1,1.25-2.76,4.71,4.71,0,0,1,1.79-.82c3.52-1.11,7.13-3.16,8.31-6.65a4.1,4.1,0,0,0,.18-2.22,2.79,2.79,0,0,0-.44-1c1.34.58,2.51,1.36,2.83,2.72A4,4,0,0,1,194,48.1c-1.17,3.49-4.79,5.54-8.3,6.65a4.57,4.57,0,0,0-1.79.82,6,6,0,0,0-1.26,2.76c-.32,1-1,2-2.07,2s-1.51-1-2.16-1.75C179.3,58.42,179.94,57.48,180.24,56.59Z"/><path d="M164.87,66.58c4.22.38,5.89-3.45,6.57-7a7.14,7.14,0,0,1,.87-2.7,2.28,2.28,0,0,1,2.46-1.09c.78.24,1.28,1,1.82,1.65a2.44,2.44,0,0,0-1.86,1.15,7.32,7.32,0,0,0-.87,2.7c-.66,3.55-2.34,7.39-6.57,7A6.75,6.75,0,0,1,163,66,6.39,6.39,0,0,0,164.87,66.58Z"/></g></g></svg>