<?xml version="1.0" encoding="UTF-8" standalone="no"?>
<svg
   xmlns:dc="http://purl.org/dc/elements/1.1/"
   xmlns:cc="http://creativecommons.org/ns#"
   xmlns:rdf="http://www.w3.org/1999/02/22-rdf-syntax-ns#"
   xmlns:svg="http://www.w3.org/2000/svg"
   xmlns="http://www.w3.org/2000/svg"
   xmlns:sodipodi="http://sodipodi.sourceforge.net/DTD/sodipodi-0.dtd"
   xmlns:inkscape="http://www.inkscape.org/namespaces/inkscape"
   viewBox="0 0 330.77 192.73"
   version="1.1"
   id="svg132"
   sodipodi:docname="userbase2.svg"
   inkscape:version="0.92.3 (2405546, 2018-03-11)">
  <metadata
     id="metadata136">
    <rdf:RDF>
      <cc:Work
         rdf:about="">
        <dc:format>image/svg+xml</dc:format>
        <dc:type
           rdf:resource="http://purl.org/dc/dcmitype/StillImage" />
        <dc:title>Asset 52</dc:title>
      </cc:Work>
    </rdf:RDF>
  </metadata>
  <sodipodi:namedview
     pagecolor="#ffffff"
     bordercolor="#666666"
     borderopacity="1"
     objecttolerance="10"
     gridtolerance="10"
     guidetolerance="10"
     inkscape:pageopacity="0"
     inkscape:pageshadow="2"
     inkscape:window-width="1920"
     inkscape:window-height="1015"
     id="namedview134"
     showgrid="false"
     inkscape:zoom="3.8939446"
     inkscape:cx="201.78377"
     inkscape:cy="76.023623"
     inkscape:window-x="0"
     inkscape:window-y="0"
     inkscape:window-maximized="1"
     inkscape:current-layer="svg132" />
  <defs
     id="defs4">
    <style
       id="style2">.cls-1{fill:#3e3127;}.cls-2{fill:#637582;}.cls-3{fill:#9fb1bc;}.cls-4{fill:#caeefc;}.cls-5{fill:#78abba;}.cls-6{fill:#fff;}.cls-7{fill:#455760;}.cls-8{fill:#ecebeb;}.cls-9{fill:#c4c4c4;}.cls-10{fill:#d2eef9;}</style>
  </defs>
  <title
     id="title6">Asset 52</title>
  <g
     id="g567">
    <ellipse
       style="fill:#3e3127"
       id="ellipse8"
       ry="7.9099998"
       rx="145.7"
       cy="184.81"
       cx="185.07001"
       class="cls-1" />
    <path
       style="fill:#637582"
       inkscape:connector-curvature="0"
       id="path10"
       d="M 286.22,171.23 H 85.74 A 4.76,4.76 0 0 1 81,166.47 V 38.87 c 0,-2.63 2.13,-7.76 4.76,-7.76 h 200.46 c 2.62,0 4.75,5.13 4.75,7.76 v 127.6 a 4.76,4.76 0 0 1 -4.75,4.76 z"
       class="cls-2" />
    <path
       style="fill:#9fb1bc"
       inkscape:connector-curvature="0"
       id="path12"
       d="m 291,34.17 v 4.63 c 0,-2.63 0.87,-4.76 -1.75,-4.76 H 83.73 C 81.11,34 81,36.17 81,38.8 v -4.63 a 4.76,4.76 0 0 1 4.75,-4.76 h 200.47 a 4.76,4.76 0 0 1 4.78,4.76 z"
       class="cls-3" />
    <polyline
       style="fill:#caeefc"
       id="polyline14"
       points="89.54 168 89.54 40.62 282.41 40.62 282.41 167.88"
       class="cls-4" />
    <rect
       style="fill:#78abba"
       id="rect16"
       height="4.6500001"
       width="192.87"
       y="162.85001"
       x="89.720001"
       class="cls-5" />
    <rect
       style="fill:#ffffff"
       id="rect18"
       height="4.6500001"
       width="192.87"
       y="41.84"
       x="89.720001"
       class="cls-6" />
    <path
       style="fill:#3e3127"
       inkscape:connector-curvature="0"
       id="path20"
       d="m 293,168.83 h -4 V 35 a 2.75,2.75 0 0 0 -2.75,-2.75 H 85.74 A 2.76,2.76 0 0 0 83,35 V 168 H 79 V 35 a 6.76,6.76 0 0 1 6.76,-6.75 H 286.22 A 6.76,6.76 0 0 1 293,35 Z"
       class="cls-1" />
    <rect
       style="fill:#637582"
       id="rect22"
       rx="7.4200001"
       height="14.84"
       width="267.70001"
       y="168.83"
       x="52.130001"
       class="cls-2" />
    <path
       style="fill:#455760"
       inkscape:connector-curvature="0"
       id="path24"
       d="m 319.83,177.23 a 7.41,7.41 0 0 1 -7.42,7.42 H 59.55 a 7.42,7.42 0 0 1 -7.42,-7.42 7.3,7.3 0 0 1 1,-3.71 7.39,7.39 0 0 0 6.42,3.71 h 252.86 a 7.42,7.42 0 0 0 5.25,-2.17 7.28,7.28 0 0 0 1.17,-1.54 7.3,7.3 0 0 1 1,3.71 z"
       class="cls-7" />
    <path
       style="fill:#3e3127"
       inkscape:connector-curvature="0"
       id="path26"
       d="M 312.41,186.32 H 59.55 a 9.42,9.42 0 1 1 0,-18.84 h 252.86 a 9.42,9.42 0 0 1 0,18.84 z M 59.55,171.48 a 5.42,5.42 0 1 0 0,10.84 h 252.86 a 5.42,5.42 0 0 0 0,-10.84 z"
       class="cls-1" />
    <path
       id="polygon32"
       d="M 88.039062 39.800781 L 88.039062 168.68945 L 91.039062 168.68945 L 91.039062 42.800781 L 280.91992 42.800781 L 280.91992 168.56055 L 283.91992 168.56055 L 283.91992 39.800781 L 88.039062 39.800781 z "
       style="fill:#3e3127" />
    <path
       style="fill:#ffffff"
       inkscape:connector-curvature="0"
       id="path84"
       d="m 105.32,46.34 a 4.33,4.33 0 0 1 -8.66,0 C 96.66,44 98.6,44 101,44 c 2.4,0 4.32,0 4.32,2.34 z"
       class="cls-6" />
    <path
       style="fill:#3e3127"
       inkscape:connector-curvature="0"
       id="path104"
       d="m 295.12,176.2 a 0.49,0.49 0 0 1 -0.5,-0.49 0.5,0.5 0 0 1 0.5,-0.51 h 10.8 v 0 a 0.49,0.49 0 0 1 0.5,0.49 0.51,0.51 0 0 1 -0.49,0.51 z"
       class="cls-1" />
    <path
       style="fill:#3e3127"
       inkscape:connector-curvature="0"
       id="path106"
       d="m 301.86,178.32 a 0.49,0.49 0 0 1 -0.5,-0.49 0.51,0.51 0 0 1 0.5,-0.51 h 6.45 v 0 a 0.5,0.5 0 0 1 0.5,0.5 0.49,0.49 0 0 1 -0.49,0.5 z"
       class="cls-1" />
    <path
       style="fill:#3e3127"
       inkscape:connector-curvature="0"
       id="path108"
       d="m 61.81,176.2 a 0.49,0.49 0 0 1 -0.5,-0.49 0.5,0.5 0 0 1 0.5,-0.51 h 10.8 v 0 a 0.51,0.51 0 0 1 0.5,0.49 0.52,0.52 0 0 1 -0.5,0.51 H 61.8 Z"
       class="cls-1" />
    <path
       style="fill:#3e3127"
       inkscape:connector-curvature="0"
       id="path110"
       d="m 68.55,178.32 a 0.5,0.5 0 0 1 -0.5,-0.49 0.51,0.51 0 0 1 0.5,-0.51 H 75 v 0 a 0.5,0.5 0 0 1 0,1 h -6.46 z"
       class="cls-1" />
    <path
       style="fill:#3e3127"
       inkscape:connector-curvature="0"
       id="path118"
       d="m 208.61,177.25 h -44.9 a 15.42,15.42 0 0 1 -13.57,-8.09 1.0000125,1.0000125 0 1 1 1.76,-0.95 13.42,13.42 0 0 0 11.81,7 h 44.9 a 13.42,13.42 0 0 0 11.81,-7 1.0000125,1.0000125 0 1 1 1.76,0.95 15.42,15.42 0 0 1 -13.57,8.09 z"
       class="cls-1" />
    <g
       transform="matrix(0,-0.31563097,0.31563097,0,107.58482,152.51906)"
       id="g361">
      <path
         class="cls-5"
         d="m 166.16,121.06 c -9.31,1 -18.68,1.77 -27.91,2.83 L 91,129.32 v -7.43 L 133.18,117 c 10.65,-1.22 21.48,-2.05 32.21,-3.32 a 46.45,46.45 0 0 0 0.77,7.38 z"
         id="path28"
         inkscape:connector-curvature="0"
         style="fill:#78abba" />
      <path
         class="cls-5"
         d="m 253.15,129.68 a 46.25,46.25 0 0 1 -88.45,-8.47 46.45,46.45 0 0 1 -0.77,-7.34 c 0,-0.41 0,-0.82 0,-1.23 0,-1.28 0.05,-2.56 0.15,-3.81 0,0 0,-0.09 0,-0.13 a 45.71,45.71 0 0 0 5.13,17.6 46.35,46.35 0 0 0 80,3.38 l 7.52,-10.76 z"
         id="path30"
         inkscape:connector-curvature="0"
         style="fill:#78abba" />
      <path
         class="cls-8"
         d="m 163.91,112.7 c -11.44,1.41 -23,2.27 -34.42,3.58 l -78.44,9 c -10.47,1.2 -21.26,4.13 -31.8,1.87 C 8.71,124.89 2,115 2,104.47 v 0.81 C 2,94.73 8.76,84.85 19.25,82.6 c 10.49,-2.25 21.33,0.67 31.8,1.87 l 78.44,9 c 11.38,1.31 23,2.16 34.43,3.58"
         id="path50"
         inkscape:connector-curvature="0"
         style="fill:#ecebeb" />
      <path
         class="cls-6"
         d="m 161.94,99.67 v 3.82 c -11.45,-1.41 -23.05,-2.27 -34.43,-3.58 l -78.44,-9 C 38.6,89.71 27.81,86.78 17.27,89 7.55,91.12 1,99.75 0.14,109.4 A 17.33,17.33 0 0 1 0,107.49 c 0.16,-10.4 6.88,-20.06 17.24,-22.28 10.54,-2.26 21.33,0.67 31.8,1.87 l 78.44,9 c 11.41,1.32 23.01,2.17 34.46,3.59 z"
         id="path52"
         inkscape:connector-curvature="0"
         style="fill:#ffffff" />
      <path
         class="cls-9"
         d="m 166.16,108.13 v 5 c -11.45,1.42 -23,2.28 -34.43,3.58 l -78.43,9 C 42.83,127 32,129.88 21.49,127.62 11.15,125.4 4.42,115.74 4.25,105.35 a 24,24 0 0 1 0.58,-4.95 c 1.85,8.38 8,15.48 16.66,17.33 10.55,2.26 21.34,4.19 31.81,3 l 78.43,-9 c 11.38,-1.32 22.98,-2.18 34.43,-3.6 z"
         id="path54"
         inkscape:connector-curvature="0"
         style="fill:#c4c4c4" />
      <path
         class="cls-8"
         d="m 253.15,119.71 a 46.31,46.31 0 1 1 -1.2,-36.6 h -37 v 36.6 z"
         id="path56"
         inkscape:connector-curvature="0"
         style="fill:#ecebeb" />
      <path
         class="cls-6"
         d="m 252.75,85.28 h -3 a 46.18,46.18 0 0 0 -84.94,22.27 c 0,-0.9 -0.08,-1.8 -0.08,-2.71 a 46.19,46.19 0 0 1 88,-19.56 z"
         id="path58"
         inkscape:connector-curvature="0"
         style="fill:#ffffff" />
      <path
         class="cls-9"
         d="m 253.15,120.91 a 46.25,46.25 0 0 1 -89.24,-17 44.16,44.16 0 0 1 0.28,-5 45.62,45.62 0 0 0 5,16.48 46.35,46.35 0 0 0 78.44,5.6 z"
         id="path60"
         inkscape:connector-curvature="0"
         style="fill:#c4c4c4" />
      <rect
         class="cls-6"
         x="183.91"
         y="86.309998"
         width="22.33"
         height="7.0900002"
         id="rect62"
         style="fill:#ffffff" />
      <rect
         class="cls-6"
         x="183.91"
         y="98.730003"
         width="22.33"
         height="7.0900002"
         id="rect64"
         style="fill:#ffffff" />
      <rect
         class="cls-6"
         x="183.91"
         y="111.15"
         width="22.33"
         height="7.0900002"
         id="rect66"
         style="fill:#ffffff" />
      <path
         class="cls-1"
         d="m 27.65,131.31 a 41.88,41.88 0 0 1 -8.82,-0.87 C 8.17,128.16 0.36,118.21 0,106.62 v 0 -0.82 C 0.36,94.21 8.17,84.26 18.83,82 c 8.31,-1.78 16.67,-0.49 24.75,0.75 2.54,0.39 5.16,0.8 7.7,1.09 l 78.44,9 c 5.12,0.59 10.39,1.1 15.49,1.59 6.22,0.6 12.65,1.22 19,2 l -0.49,4 c -6.25,-0.78 -12.66,-1.39 -18.85,-2 -5.12,-0.49 -10.41,-1 -15.57,-1.59 l -78.44,-9 c -2.61,-0.3 -5.27,-0.71 -7.85,-1.1 -7.72,-1.19 -15.71,-2.43 -23.3,-0.8 -9,1.87 -15.53,10.38 -15.71,20.27 0.18,9.89 6.71,18.4 15.67,20.32 7.59,1.63 15.58,0.39 23.31,-0.8 2.57,-0.4 5.23,-0.81 7.84,-1.11 q 39.22,-4.49 78.44,-9 c 5.16,-0.59 10.44,-1.1 15.55,-1.59 6.2,-0.6 12.61,-1.21 18.86,-2 l 0.49,4 c -6.31,0.78 -12.74,1.4 -19,2 -5.09,0.49 -10.35,1 -15.47,1.59 l -78.44,9 c -2.53,0.29 -5.16,0.69 -7.69,1.08 a 104.51,104.51 0 0 1 -15.91,1.61 z"
         id="path68"
         inkscape:connector-curvature="0"
         style="fill:#3e3127" />
      <path
         class="cls-1"
         d="m 210.1,152.52 a 48.19,48.19 0 1 1 43.66,-68.59 l 1.34,2.84 h -38.19 v 32.6 h 39.17 L 255,122.1 a 47.77,47.77 0 0 1 -44.9,30.42 z m 0,-92.37 a 44.19,44.19 0 1 0 40,63.22 h -37.19 v -40.6 h 35.77 A 44.4,44.4 0 0 0 210.1,60.15 Z"
         id="path70"
         inkscape:connector-curvature="0"
         style="fill:#3e3127" />
      <path
         class="cls-1"
         d="m 207.24,95.67 h -24.33 v -9.1 h 24.33 z m -22.33,-2 h 20.33 v -5.1 h -20.33 z"
         id="path72"
         inkscape:connector-curvature="0"
         style="fill:#3e3127" />
      <path
         class="cls-1"
         d="M 207.24,108.08 H 182.91 V 99 h 24.33 z m -22.33,-2 h 20.33 V 101 h -20.33 z"
         id="path74"
         inkscape:connector-curvature="0"
         style="fill:#3e3127" />
      <path
         class="cls-1"
         d="m 207.24,120.5 h -24.33 v -9.09 h 24.33 z m -22.33,-2 h 20.33 v -5.09 h -20.33 z"
         id="path76"
         inkscape:connector-curvature="0"
         style="fill:#3e3127" />
      <circle
         class="cls-9"
         cx="47.380001"
         cy="120.36"
         r="3.0999999"
         id="circle78"
         style="fill:#c4c4c4" />
      <circle
         class="cls-9"
         cx="202.06"
         cy="139.86"
         id="circle80"
         style="fill:#c4c4c4"
         r="4.3299999" />
      <circle
         class="cls-10"
         cx="106.84"
         cy="51.860001"
         r="2.1600001"
         id="circle86"
         style="fill:#d2eef9" />
      <circle
         class="cls-10"
         cx="96.529999"
         cy="51.779999"
         r="1.08"
         id="circle88"
         style="fill:#d2eef9" />
      <circle
         class="cls-9"
         cx="51.09"
         cy="116.41"
         id="circle90"
         style="fill:#c4c4c4"
         r="1.2" />
      <circle
         class="cls-9"
         cx="207.53"
         cy="134.53"
         id="circle92"
         style="fill:#c4c4c4"
         r="1.2" />
      <circle
         class="cls-9"
         cx="197.03999"
         cy="133.72"
         id="circle96"
         style="fill:#c4c4c4"
         r="1.96" />
      <path
         class="cls-1"
         d="M 63,96.92 H 62.9 L 52.17,95.66 a 1.0065908,1.0065908 0 1 1 0.23,-2 l 10.73,1.25 a 1.0015114,1.0015114 0 0 1 -0.11,2 z"
         id="path100"
         inkscape:connector-curvature="0"
         style="fill:#3e3127" />
      <path
         class="cls-1"
         d="m 65,100.31 h -0.1 l -6.41,-0.75 a 1.0065908,1.0065908 0 1 1 0.23,-2 l 6.41,0.75 a 1.0015114,1.0015114 0 0 1 -0.11,2 z"
         id="path102"
         inkscape:connector-curvature="0"
         style="fill:#3e3127" />
      <path
         class="cls-6"
         d="m 221.3,69.09 a 0.75,0.75 0 0 1 -0.21,0 43.52,43.52 0 0 0 -18.35,-0.1 1,1 0 0 1 -1.19,-0.76 1,1 0 0 1 0.77,-1.19 45.18,45.18 0 0 1 19.19,0.1 1,1 0 0 1 0.77,1.18 1,1 0 0 1 -0.98,0.77 z"
         id="path120"
         inkscape:connector-curvature="0"
         style="fill:#ffffff" />
      <path
         class="cls-6"
         d="m 189.65,74.42 a 1,1 0 0 1 -0.79,-0.39 1,1 0 0 1 0.17,-1.4 30.52,30.52 0 0 1 6.97,-3.69 1.0008996,1.0008996 0 1 1 0.74,1.86 28.6,28.6 0 0 0 -6.46,3.41 1,1 0 0 1 -0.63,0.21 z"
         id="path122"
         inkscape:connector-curvature="0"
         style="fill:#ffffff" />
      <path
         class="cls-6"
         d="m 97.74,67.33 a 1.5,1.5 0 0 1 -1.5,-1.5 v -6.34 a 1.5,1.5 0 1 1 3,0 v 6.34 a 1.5,1.5 0 0 1 -1.5,1.5 z"
         id="path124"
         inkscape:connector-curvature="0"
         style="fill:#ffffff" />
      <path
         class="cls-6"
         d="m 97.74,84.81 a 1.5,1.5 0 0 1 -1.5,-1.5 v -9.93 a 1.5,1.5 0 0 1 3,0 v 9.93 a 1.5,1.5 0 0 1 -1.5,1.5 z"
         id="path126"
         inkscape:connector-curvature="0"
         style="fill:#ffffff" />
      <path
         class="cls-6"
         d="m 93.1,94.66 v 0.46 A 2.88,2.88 0 0 0 95.63,98 l 23.59,2.94 a 2.89,2.89 0 0 0 3.24,-2.87 v -1.18"
         id="path128"
         inkscape:connector-curvature="0"
         style="fill:#ffffff" />
    </g>
    <g
       transform="matrix(0.1886988,0,0,0.18455222,206.58718,107.47089)"
       id="g310">
      <rect
         class="cls-3"
         x="32.225292"
         y="135.87286"
         width="37"
         height="79.169998"
         transform="rotate(-43.48)"
         id="rect80"
         style="fill:#314e5d" />
      <g
         transform="translate(-325.45856,-325.28202)"
         class="cls-10"
         id="g86"
         style="opacity:0.5;fill:#d2eef9">
        <circle
           class="cls-11"
           cx="385.82001"
           cy="313.79999"
           r="87.309998"
           transform="rotate(-43.48,385.80965,313.8063)"
           id="circle82"
           style="fill:#8bddeb" />
        <path
           class="cls-12"
           d="m 339.8,364.25 a 87.26,87.26 0 0 1 16,-133.39 87.31,87.31 0 1 0 77.46,155.29 87.32,87.32 0 0 1 -93.46,-21.9 z"
           id="path84-3"
           inkscape:connector-curvature="0"
           style="fill:#62d6f8" />
      </g>
      <path
         class="cls-13"
         d="m 155.64144,-104.70203 a 134.19,134.19 0 0 0 -32.65,-25.27 c -0.21,-0.13 -0.42,-0.24 -0.65,-0.35 A 134.46,134.46 0 0 0 -40.458556,79.297976 c 0.31,0.35 0.63,0.69 1,1 a 134,134 0 0 0 34.2499998,26.130004 l 0.36,0.19 A 134.46,134.46 0 0 0 155.64144,-104.70203 Z m -32.89,33.140003 a 87.31,87.31 0 1 1 -123.42999616,-3.27 87.3,87.3 0 0 1 123.42999616,3.28 z"
         id="path88"
         inkscape:connector-curvature="0"
         style="fill:#e7e7e7" />
      <path
         class="cls-14"
         d="M 165.07144,66.137976 A 134.46,134.46 0 0 1 -48.518556,-89.932027 134.47,134.47 0 1 0 180.90144,48.237976 a 135.26,135.26 0 0 1 -15.83,17.9 z"
         id="path90"
         inkscape:connector-curvature="0"
         style="fill:#ced0d0" />
      <path
         class="cls-3"
         d="m 59.20144,126.98798 a 137.49,137.49 0 0 1 -65.8899962,-16.78 l -0.5,-0.27 A 138.94,138.94 0 0 1 -70.628556,36.127976 c -0.26,-0.68 -0.51,-1.39 -0.74,-2.12 A 138.48,138.48 0 0 1 124.15144,-133.88203 c 0.27,0.13 0.54,0.28 0.8,0.43 a 138.47,138.47 0 0 1 -48.53,259.38001 141,141 0 0 1 -17.22,1.06 z m 0.23,-269.00001 A 130.54,130.54 0 0 0 -63.808556,31.437976 v 0.12 c 0.19,0.6 0.41,1.2 0.63,1.79 a 130.92,130.92 0 0 0 59.8299998,69.610004 l 0.35,0.19 A 130.45,130.45 0 0 0 154.05144,-101.28203 v 0 a 129.86,129.86 0 0 0 -32.95,-25.2 l -0.15,-0.09 -0.32,-0.17 -0.15,-0.08 a 130.15,130.15 0 0 0 -61.05,-15.16 z m 0,221.810006 c -0.83,0 -1.65,0 -2.48,0 a 91.2,91.2 0 1 1 2.48,0 z m -0.11,-174.620003 a 82.74,82.74 0 0 0 -57.2699962,22.86 v 0 a 83.3,83.3 0 1 0 59.5399962,-22.83 q -1.11,0 -2.24,0 z"
         id="path92"
         inkscape:connector-curvature="0"
         style="fill:#314e5d" />
      <rect
         class="cls-15"
         x="23.883282"
         y="184.87207"
         width="56.889999"
         height="174.39"
         rx="28.440001"
         ry="28.440001"
         transform="rotate(-43.48)"
         id="rect94"
         style="fill:#426372" />
      <path
         class="cls-3"
         d="m 264.43144,236.46798 h -0.89 a 32.21,32.21 0 0 1 -22.68,-10.07 l -80.85,-85.28 a 32.442831,32.442831 0 1 1 47.08,-44.650004 l 80.86,85.250004 a 32.52,32.52 0 0 1 -1.22,45.86 v 0 a 32.19,32.19 0 0 1 -22.3,8.89 z m -80.89,-142.100004 a 24.46,24.46 0 0 0 -17.73,41.250004 l 80.85,85.26 a 24.53,24.53 0 0 0 34.56,0.92 v 0 a 24.53,24.53 0 0 0 0.92,-34.56 l -80.85,-85.26 a 24.38,24.38 0 0 0 -17.75,-7.610004 z"
         id="path96"
         inkscape:connector-curvature="0"
         style="fill:#314e5d" />
      <g
         transform="translate(-325.45856,-325.28202)"
         class="cls-10"
         id="g102"
         style="opacity:0.5;fill:#d2eef9">
        <path
           class="cls-1"
           d="m 517.9,434.08 c 10,8.4 17.73,18.85 27.07,27.89 2.78,2.69 7,-1.55 4.24,-4.24 -9.34,-9 -17.07,-19.49 -27.07,-27.89 -2.94,-2.47 -7.2,1.75 -4.24,4.24 z"
           id="path98"
           inkscape:connector-curvature="0"
           style="fill:#ffffff" />
        <path
           class="cls-1"
           d="m 500.64,432.19 a 12.83,12.83 0 0 1 10.83,-1.26 c 3.71,1.08 5.3,-4.71 1.6,-5.79 A 18.87,18.87 0 0 0 497.61,427 c -3.31,2 -0.3,7.17 3,5.18 z"
           id="path100-6"
           inkscape:connector-curvature="0"
           style="fill:#ffffff" />
      </g>
      <path
         class="cls-1"
         d="m 92.59144,-121.13203 c 15.95,4.85 30.95,12.61 43.41,23.680003 15.82,14 26.58,32.38 33.16,52.340003 1.2,3.65 7,2.09 5.79,-1.6 -6.89,-20.900003 -18.13,-40.290003 -34.7,-55.000006 -13.28,-11.78 -29.14,-20 -46.05,-25.22 -3.7,-1.13 -5.28,4.66 -1.6,5.79 z"
         id="path104-7"
         inkscape:connector-curvature="0"
         style="fill:#ffffff" />
    </g>
  </g>
</svg>
