<?xml version="1.0" encoding="utf-8"?>
<!-- Generator: Adobe Illustrator 24.0.1, SVG Export Plug-In . SVG Version: 6.00 Build 0)  -->
<svg version="1.1" id="Layer_1" xmlns="http://www.w3.org/2000/svg" xmlns:xlink="http://www.w3.org/1999/xlink" x="0px" y="0px"
	 viewBox="0 0 167.6 117.5" style="enable-background:new 0 0 167.6 117.5;" xml:space="preserve">
<style type="text/css">
	.st0{fill:#637582;}
	.st1{fill:#455760;}
	.st2{fill:#94A5AF;}
	.st3{fill:#ECEBEB;}
	.st4{fill:#FF2A00;}
	.st5{fill:#FFF800;}
	.st6{fill:#FF6700;}
	.st7{fill:#FFFFFF;}
	.st8{fill:none;stroke:#3E3127;stroke-width:5;stroke-miterlimit:10;}
	.st9{fill:none;stroke:#3E3127;stroke-width:3;stroke-miterlimit:10;}
	.st10{fill:none;stroke:#F67400;stroke-width:3;stroke-linecap:round;stroke-miterlimit:10;}
	.st11{fill:none;stroke:#3DAEE9;stroke-width:3;stroke-linecap:round;stroke-miterlimit:10;}
	.st12{fill:none;stroke:#FFFFFF;stroke-width:3;stroke-linecap:round;stroke-miterlimit:10;}
</style>
<title>Asset 35</title>
<g>
	<path class="st0" d="M13.5,0.8l145.4,0.3c4.7,0,8.5,3.8,8.5,8.5l-0.2,95.2c0,4.7-3.8,8.5-8.5,8.5L6.2,113c-0.8,0-1.4-0.6-1.4-1.4
		L4.9,9.3C5,4.6,8.8,0.8,13.5,0.8z"/>
	<path class="st1" d="M165.6,15.8l-0.1,88.5c0,6.6-5.3,11.9-11.9,11.9h0L74.2,116c26-30.5,38.3-85.4,42.9-112.2l36.6,0.1
		C160.3,3.9,165.6,9.2,165.6,15.8L165.6,15.8z"/>
	
		<rect x="-40.1" y="62.9" transform="matrix(1.716572e-03 -1 1 1.716572e-03 -58.683 72.2103)" class="st2" width="94" height="5.1"/>
	<path class="st3" d="M164.5,9.6v9.7L2.1,19V9.3c0.1-3,2.7-5.3,5.6-5.1l151.2,0.3C161.9,4.3,164.4,6.6,164.5,9.6z"/>
	<path class="st4" d="M15.1,9.6c0.9,0,1.6,0.7,1.6,1.6c0,0.9-0.7,1.6-1.6,1.6c-0.9,0-1.6-0.7-1.6-1.6C13.4,10.4,14.2,9.6,15.1,9.6z"
		/>
	<path class="st5" d="M21.8,9.6c0.9,0,1.6,0.7,1.6,1.6s-0.7,1.6-1.6,1.6c-0.9,0-1.6-0.7-1.6-1.6S20.9,9.6,21.8,9.6z"/>
	<path class="st6" d="M28.5,9.6c0.9,0,1.6,0.7,1.6,1.6c0,0.9-0.7,1.6-1.6,1.6c-0.9,0-1.6-0.7-1.6-1.6C26.8,10.4,27.5,9.6,28.5,9.6z"
		/>
	<polygon class="st7" points="100.3,4.5 91.6,19.4 81.6,19.4 90.3,4.5 	"/>
	<polygon class="st7" points="123.7,4.6 114.9,19.4 104.9,19.4 113.7,4.6 	"/>
	<path class="st8" d="M8.7,2.5l150.4,0.3c3.3,0,6,2.7,6,6L164.9,109c0,3.3-2.7,6-6,6L8.5,114.7c-3.3,0-6-2.7-6-6L2.7,8.5
		C2.7,5.2,5.4,2.5,8.7,2.5z"/>
	<line class="st9" x1="2.6" y1="18.6" x2="165.9" y2="18.9"/>
	<line class="st10" x1="20.5" y1="32.2" x2="92.6" y2="32.4"/>
	<line class="st11" x1="20.5" y1="44.5" x2="60.8" y2="44.6"/>
	<line class="st12" x1="20.5" y1="56.9" x2="68.2" y2="56.9"/>
	<line class="st12" x1="73" y1="44.6" x2="78.4" y2="44.6"/>
	<line class="st10" x1="79.3" y1="57" x2="90" y2="57"/>
</g>
</svg>
