<?xml version="1.0" encoding="utf-8"?>
<!-- Generator: Adobe Illustrator 24.0.1, SVG Export Plug-In . SVG Version: 6.00 Build 0)  -->
<svg version="1.1" id="Layer_1" xmlns="http://www.w3.org/2000/svg" xmlns:xlink="http://www.w3.org/1999/xlink" x="0px" y="0px"
	 viewBox="0 0 168.6 138.1" style="enable-background:new 0 0 168.6 138.1;" xml:space="preserve">
<style type="text/css">
	.st0{fill:#FFFFFF;}
	.st1{fill:#DBCEC8;}
	.st2{fill:none;stroke:#000000;stroke-width:5;stroke-miterlimit:10;}
	.st3{fill:none;stroke:#000000;stroke-width:3;stroke-miterlimit:10;}
	.st4{fill:#9E9893;}
	.st5{fill:none;stroke:#FFFFFF;stroke-width:3;stroke-linecap:round;stroke-miterlimit:10;}
	.st6{fill:none;stroke:#000000;stroke-width:4;stroke-miterlimit:10;}
</style>
<title>Asset 33</title>
<g>
	<path class="st0" d="M20.7,112.4l5.7,21.8c0.2,1,1.2,1.5,2.2,1.3l0,0l65.9-17.2c0.9-0.2,1.5-1.2,1.3-2.2c-0.2-0.8-0.9-1.4-1.8-1.3
		c-19.5,0.7-48.1,11.4-70.5-4.3c-0.8-0.6-1.9-0.4-2.5,0.4C20.6,111.3,20.5,111.9,20.7,112.4z"/>
	<path class="st0" d="M94.9,118.2l-66.8,17.4c-0.7,0.2-1.4-0.2-1.6-0.9L2.5,42.9c-0.2-0.7,0.2-1.4,0.9-1.6l66.8-17.4
		c0.7-0.2,1.4,0.2,1.6,0.9l23.9,91.7C96,117.3,95.6,118,94.9,118.2"/>
	<path class="st0" d="M44.8,107.2c0.9,0,1.6,0.7,1.6,1.6s-0.7,1.7-1.6,1.7s-1.6-0.7-1.6-1.7S43.9,107.2,44.8,107.2z"/>
	<circle class="st0" cx="36.6" cy="114.1" r="4.7"/>
	<path class="st1" d="M20.7,112.4l5.7,21.8c0.2,1,1.2,1.5,2.2,1.3l0,0l65.9-17.2c0.9-0.2,1.5-1.2,1.3-2.2c-0.2-0.8-0.9-1.4-1.8-1.3
		c-19.5,0.7-48.1,11.4-70.5-4.3c-0.8-0.6-1.9-0.4-2.5,0.4C20.6,111.3,20.5,111.9,20.7,112.4z"/>
	<path class="st2" d="M94.9,118.2l-66.8,17.4c-0.7,0.2-1.4-0.2-1.6-0.9L2.5,42.9c-0.2-0.7,0.2-1.4,0.9-1.6l66.8-17.4
		c0.7-0.2,1.4,0.2,1.6,0.9l23.9,91.7C96,117.3,95.6,118,94.9,118.2z"/>
	<path class="st1" d="M44.8,107.2c0.9,0,1.6,0.7,1.6,1.6c0,0.9-0.7,1.6-1.6,1.6c-0.9,0-1.6-0.7-1.6-1.6
		C43.3,107.9,44,107.2,44.8,107.2z"/>
	<path class="st1" d="M37.1,109.3c2.4,0,4.4,2,4.4,4.4c0,2.4-2,4.4-4.4,4.4c-2.4,0-4.4-2-4.4-4.4C32.7,111.3,34.7,109.3,37.1,109.3z
		"/>
	<line class="st3" x1="63.8" y1="44.4" x2="24.7" y2="54.5"/>
	<polyline class="st4" points="65.9,50.8 48,55.1 48.7,58 66.6,53.7 65.9,50.8 	"/>
	<line class="st5" x1="92" y1="71.1" x2="97.1" y2="71.6"/>
	<polygon class="st0" points="152.8,110.7 152.8,15.4 60.1,15.4 60.1,132.3 131.7,132.3 	"/>
	<polygon class="st1" points="151.6,13.7 151.6,108.9 130.5,130.5 117.4,130.5 143.9,104 143.9,13.7 	"/>
	<path class="st1" d="M143.1,35.7c2.9,0,5.2,2.3,5.2,5.2S146,46,143.1,46c-2.9,0-5.2-2.3-5.2-5.2S140.3,35.7,143.1,35.7z"/>
	<path class="st1" d="M133.9,34.2c1.3,0,2.3,1,2.3,2.3s-1,2.3-2.3,2.3c-1.3,0-2.3-1-2.3-2.3S132.6,34.2,133.9,34.2z"/>
	<polygon class="st2" points="153.2,109.9 153.2,14.7 60.5,14.7 60.5,131.5 132.1,131.5 	"/>
	<path class="st6" d="M73.8,14.3v-1.9C73.8,6.7,78.4,2,84.2,2c5.7,0,10.4,4.7,10.4,10.4v0v24.8c0,5.2-4.2,9.4-9.4,9.4
		c-5.2,0-9.3-4.2-9.3-9.4v-6.8"/>
	<line class="st6" x1="77.5" y1="63.2" x2="126.2" y2="63.2"/>
	<line class="st6" x1="77.5" y1="73.3" x2="101.2" y2="73.3"/>
	<line class="st6" x1="77.5" y1="83.2" x2="118.2" y2="83.2"/>
</g>
</svg>
